<svg width="171" height="171" viewBox="0 0 171 171" fill="none" xmlns="http://www.w3.org/2000/svg">
<path d="M107.271 79.9898C108.131 77.8198 108.701 75.6898 108.951 73.6698C109.201 71.6498 109.181 69.6398 108.891 67.6898C108.601 65.7698 108.071 63.8398 107.311 61.9298C107.301 61.9098 107.291 61.8798 107.281 61.8498C106.641 60.2498 105.831 58.5998 104.891 56.9398C104.341 56.8198 103.771 56.7098 103.191 56.6298C101.941 56.4498 100.621 56.3398 99.2506 56.3398C96.9406 56.3398 94.7806 56.5998 92.8406 57.1198C90.8906 57.6398 89.0606 58.4098 87.3906 59.4098C87.0206 59.6298 86.6606 59.8698 86.3006 60.1098C87.1306 60.7598 87.9406 61.4698 88.7206 62.2298C88.8306 62.3298 88.9306 62.4498 89.0406 62.5598C90.5706 62.0498 92.1606 61.6598 93.7906 61.4298C97.4006 60.9098 101.101 60.9098 104.721 61.4298C104.781 61.4398 104.851 61.4498 104.911 61.4598C104.961 61.6698 105.011 61.8698 105.051 62.0798C105.391 63.8998 105.511 65.7398 105.441 67.5398C105.361 69.3398 105.101 71.1598 104.661 72.9598C103.841 76.3198 102.561 79.5798 100.901 82.6098C100.791 82.8198 100.691 83.0298 100.571 83.2298C100.451 83.4398 100.321 83.6498 100.191 83.8598C101.081 85.1498 101.811 86.4998 102.361 87.8698C102.481 88.1598 102.601 88.4398 102.701 88.7298C103.311 90.4798 103.711 92.2698 103.901 94.0598C104.091 95.8498 104.111 97.6898 103.951 99.5298C103.631 103.22 102.791 106.87 101.461 110.32C100.801 112.04 99.9806 113.68 99.0206 115.2C98.0706 116.72 96.9206 118.15 95.6106 119.44C95.6006 119.45 95.5806 119.46 95.5706 119.48C94.9506 120.68 94.2506 121.9 93.4606 123.12C94.8306 122.43 96.1306 121.7 97.3106 120.92C99.0406 119.79 100.601 118.5 101.941 117.09C103.281 115.67 104.441 114.04 105.381 112.23C106.321 110.43 107.061 108.36 107.591 106.08C108.121 103.8 108.361 101.61 108.301 99.5698C108.251 97.5298 107.921 95.5498 107.341 93.6698C106.761 91.7998 105.931 89.9398 104.871 88.1498C104.511 87.5398 104.111 86.9198 103.691 86.2998C103.851 86.0998 104.011 85.9098 104.161 85.6998C105.361 84.0998 106.411 82.1598 107.271 79.9898ZM96.9006 112.59C97.3406 110.67 97.5106 108.67 97.4006 106.64C97.3006 104.61 96.8906 102.44 96.1906 100.21C95.4906 97.9798 94.5906 95.9698 93.5206 94.2498C93.4206 94.0898 93.3106 93.9398 93.2106 93.7798C92.8606 93.2398 92.4806 92.7298 92.0906 92.2298C91.3606 91.3098 90.5806 90.4498 89.7206 89.6798C88.9906 89.0198 88.2006 88.3898 87.3706 87.8098C88.7606 86.6398 90.3706 85.6398 92.1606 84.8398L92.3506 84.7498L91.9906 83.4898L91.7506 83.5798C89.5806 84.3498 87.5606 85.2398 85.7506 86.2298C85.5906 86.3198 85.4406 86.4198 85.2906 86.5098C85.1306 86.4198 84.9706 86.3198 84.8106 86.2298C83.0006 85.2398 80.9806 84.3498 78.8106 83.5798L78.5706 83.4898L78.2106 84.7498L78.4006 84.8398C80.2006 85.6398 81.8306 86.6498 83.2306 87.8298C84.6306 89.0198 85.8906 90.3498 86.9606 91.7898C87.4706 92.4798 87.9606 93.2098 88.4106 93.9598C88.6406 94.3498 88.8706 94.7498 89.0906 95.1498C89.3206 95.5798 89.5506 96.0198 89.7606 96.4698C91.3506 99.7998 92.4706 103.38 93.0706 107.03C93.3706 108.85 93.5006 110.69 93.4406 112.49C93.3906 114.29 93.1206 116.11 92.6506 117.9C92.1806 119.68 91.4306 121.46 90.4106 123.17L90.3006 123.36L91.3106 124.18L91.4606 123.97C92.8006 122.07 93.9406 120.16 94.8506 118.3C95.7706 116.41 96.4606 114.5 96.9006 112.59ZM74.9406 119.46C73.6306 118.16 72.4806 116.74 71.5306 115.22C70.5706 113.7 69.7506 112.06 69.0906 110.34C67.7606 106.89 66.9206 103.24 66.6006 99.5498C66.4406 97.7098 66.4606 95.8698 66.6506 94.0798C66.8406 92.2898 67.2506 90.4898 67.8506 88.7498C67.9506 88.4598 68.0706 88.1698 68.1906 87.8898C68.7406 86.5198 69.4706 85.1698 70.3606 83.8798C70.2306 83.6698 70.1006 83.4598 69.9806 83.2498C69.8606 83.0498 69.7706 82.8298 69.6506 82.6298C67.9906 79.5998 66.7106 76.3398 65.8906 72.9798C65.4606 71.1898 65.1906 69.3598 65.1106 67.5598C65.0306 65.7598 65.1606 63.9198 65.5006 62.0998C65.5406 61.8898 65.5906 61.6898 65.6406 61.4798C65.7006 61.4698 65.7706 61.4598 65.8306 61.4498C69.4406 60.9298 73.1406 60.9298 76.7606 61.4498C78.5606 61.7098 80.3306 62.1498 82.0106 62.7398C82.2606 62.8298 82.5106 62.9298 82.7606 63.0298C82.7306 63.0598 82.6906 63.0898 82.6606 63.1198C81.1906 64.5698 79.7406 66.2498 78.3506 68.1198L78.2006 68.3298L79.2806 69.0598L79.4206 68.8998C80.7206 67.3998 82.1606 66.1398 83.6906 65.1398C84.2106 64.8098 84.7406 64.4998 85.2706 64.2098C85.8006 64.4998 86.3306 64.7998 86.8506 65.1398C88.3906 66.1298 89.8306 67.3998 91.1206 68.8998L91.2606 69.0598L92.3406 68.3298L92.1906 68.1198C90.8106 66.2498 89.3606 64.5698 87.8806 63.1198C86.4006 61.6698 84.8106 60.4198 83.1406 59.4198C81.4706 58.4198 79.6406 57.6498 77.6906 57.1298C75.7506 56.6098 73.5906 56.3498 71.2806 56.3498C69.9006 56.3498 68.5906 56.4598 67.3406 56.6398C66.7606 56.7298 66.2006 56.8298 65.6506 56.9498C64.7106 58.6098 63.9106 60.2598 63.2606 61.8598C63.2506 61.8798 63.2406 61.9098 63.2306 61.9398C62.4706 63.8498 61.9306 65.7898 61.6506 67.6998C61.3606 69.6398 61.3406 71.6498 61.5906 73.6798C61.8406 75.6998 62.4106 77.8298 63.2706 79.9998C64.1306 82.1698 65.1806 84.0998 66.3806 85.7398C66.5306 85.9398 66.6906 86.1398 66.8506 86.3398C66.4306 86.9598 66.0306 87.5798 65.6706 88.1898C64.6106 89.9798 63.7806 91.8398 63.2006 93.7098C62.6206 95.5798 62.3006 97.5698 62.2406 99.6098C62.1906 101.65 62.4306 103.84 62.9506 106.12C63.4806 108.4 64.2206 110.47 65.1606 112.27C66.1006 114.07 67.2606 115.71 68.6006 117.13C69.9406 118.54 71.5006 119.84 73.2306 120.96C74.4206 121.73 75.7106 122.47 77.0806 123.16C76.2906 121.94 75.5906 120.72 74.9706 119.52C74.9606 119.48 74.9506 119.47 74.9406 119.46ZM82.4606 88.7598C82.3806 88.6898 82.2806 88.6198 82.1906 88.5498C81.7206 88.9098 81.2706 89.2898 80.8406 89.6798C79.9906 90.4498 79.2006 91.3098 78.4706 92.2298C78.0806 92.7298 77.7006 93.2498 77.3506 93.7798C77.2506 93.9398 77.1306 94.0898 77.0406 94.2498C75.9706 95.9698 75.0706 97.9798 74.3706 100.21C73.6706 102.44 73.2606 104.61 73.1606 106.64C73.0606 108.68 73.2306 110.68 73.6606 112.59C74.1006 114.5 74.7806 116.42 75.7006 118.29C76.6206 120.15 77.7606 122.06 79.0906 123.96L79.2406 124.17L80.2506 123.35L80.1406 123.17C79.1206 121.46 78.3706 119.69 77.9006 117.9C77.4306 116.11 77.1706 114.29 77.1106 112.49C77.0606 110.69 77.1806 108.85 77.4806 107.03C78.0806 103.38 79.2006 99.7998 80.7906 96.4698C81.0006 96.0198 81.2306 95.5798 81.4606 95.1498C81.6806 94.7498 81.9006 94.3498 82.1406 93.9598C82.6006 93.2098 83.0806 92.4798 83.5906 91.7898C83.8706 91.4198 84.1606 91.0498 84.4606 90.6998C83.8406 90.0098 83.1706 89.3598 82.4606 88.7598Z" fill="#56693B"/>
<path d="M13.8507 73.6898C14.2007 71.9798 14.7007 70.5298 15.3507 69.3298C16.0007 68.1398 16.7707 67.1898 17.6507 66.4998C18.5307 65.8098 19.5407 65.3598 20.6507 65.1598C21.7707 64.9498 22.9607 64.9798 24.2407 65.2498C25.4807 65.5098 26.5907 65.9498 27.5507 66.5798C28.5107 67.2098 29.2907 67.9898 29.8807 68.9398C30.4707 69.8898 30.8507 70.9998 31.0407 72.2698C31.2207 73.5398 31.1607 74.9598 30.8407 76.5298L29.8007 81.6598L16.0107 78.7798C15.2407 78.6198 14.6007 78.5998 14.0907 78.7198C13.5807 78.8398 13.2407 79.2898 13.0807 80.0598L12.9807 80.5798L12.4707 80.4698L13.8507 73.6898ZM29.0807 78.9498C29.5107 77.9798 29.7907 77.1298 29.9507 76.3898C30.1407 75.4398 30.1507 74.5198 29.9707 73.6298C29.7907 72.7298 29.4307 71.9098 28.9007 71.1798C28.3707 70.4398 27.6707 69.7998 26.8107 69.2698C25.9507 68.7298 24.9407 68.3398 23.7907 68.0998C22.6707 67.8698 21.6107 67.8198 20.6107 67.9598C19.6207 68.0998 18.7207 68.3998 17.9407 68.8698C17.1507 69.3298 16.5007 69.9398 15.9707 70.6998C15.4407 71.4598 15.0807 72.3298 14.8807 73.3098C14.8007 73.6898 14.7507 74.0998 14.7307 74.5498C14.7107 74.9998 14.7207 75.4698 14.7607 75.9698L29.0807 78.9498Z" fill="#56693B"/>
<path d="M26.7004 42.8698C26.9504 42.4898 27.2004 42.2098 27.4604 42.0298C27.7204 41.8498 27.9704 41.7498 28.2204 41.7098C28.4704 41.6798 28.7204 41.6998 28.9604 41.7898C29.2004 41.8798 29.4404 41.9898 29.6504 42.1398L31.2904 43.2198L31.0104 43.6598C30.1404 43.0798 29.3404 42.8998 28.6404 43.1198C27.9304 43.3398 27.2904 43.8898 26.7204 44.7698L24.0804 48.8898L29.7704 52.6398L33.6104 46.6498L34.4804 47.2298L30.6404 53.2098L36.7604 57.2498L39.2504 53.3698C39.8904 52.3698 40.2204 51.4498 40.2304 50.6298C40.2404 49.8098 39.9204 48.9398 39.2604 48.0198L39.6504 47.6498L41.2304 49.7898C41.4904 50.1298 41.6304 50.4998 41.6504 50.8998C41.6704 51.2998 41.5404 51.7298 41.2604 52.1698L36.3604 59.8198L24.5504 52.0398C23.8904 51.6098 23.3104 51.3498 22.7904 51.2698C22.2704 51.1898 21.8004 51.4798 21.3704 52.1498L21.0904 52.5898L20.6504 52.2998L26.7004 42.8698Z" fill="#56693B"/>
<path d="M40.0711 32.5299C39.6111 31.8899 39.1111 31.4699 38.5611 31.2699C38.0111 31.0699 37.3711 31.2499 36.6411 31.7799L36.4311 31.9399L36.1211 31.5099L37.4911 30.4999C38.1811 29.9899 38.8311 29.6899 39.4311 29.5899C40.0411 29.4899 40.6411 29.5199 41.2511 29.6799L55.3011 33.5599L47.7211 22.9699L48.5711 22.3499L58.8311 36.6899L58.4211 36.9999L41.1511 32.2199L49.1911 43.4599L48.3411 44.0799L40.0711 32.5299Z" fill="#56693B"/>
<path d="M74.4508 12.7898L74.7208 13.8098L69.0508 15.3298L73.1808 31.1798L70.9108 31.7898L66.7808 15.9398L64.5108 16.5498C63.5008 16.8198 62.7808 17.2598 62.3608 17.8798C61.9408 18.4898 61.8608 19.3098 62.1208 20.3398L61.6208 20.4798L61.1208 18.5598C61.0508 18.2998 61.0208 18.0498 61.0108 17.7798C61.0008 17.5198 61.0608 17.2698 61.1708 17.0398C61.2808 16.8098 61.4608 16.5998 61.7108 16.3998C61.9608 16.2098 62.3008 16.0498 62.7408 15.9298L74.4508 12.7898Z" fill="#56693B"/>
<path d="M107.451 32.64L115.921 36.44L115.501 37.41L104.891 32.65L110.591 19.6C110.911 18.88 111.061 18.25 111.061 17.71C111.051 17.18 110.691 16.75 109.981 16.43L109.501 16.22L109.711 15.74L111.861 16.7C112.271 16.89 112.601 17.08 112.851 17.27C113.091 17.47 113.251 17.71 113.331 18C113.401 18.29 113.391 18.64 113.291 19.05C113.191 19.46 113.011 19.96 112.751 20.55L107.451 32.64Z" fill="#56693B"/>
<path d="M131.741 28.1499L133.561 29.6599L124.641 40.7099C124.141 41.3199 123.831 41.8899 123.691 42.3999C123.551 42.9099 123.791 43.4199 124.401 43.9299L124.801 44.2699L124.471 44.6799L122.651 43.1699C122.301 42.8799 122.031 42.6099 121.851 42.3499C121.661 42.0899 121.581 41.8099 121.581 41.5099C121.591 41.2099 121.691 40.8799 121.891 40.5199C122.091 40.1599 122.401 39.7199 122.821 39.1999L131.741 28.1499Z" fill="#56693B"/>
<path d="M146.53 54C147.76 52.76 148.46 51.54 148.63 50.33C148.79 49.12 148.48 47.91 147.67 46.7C147.2 45.98 146.63 45.39 145.97 44.91C145.31 44.43 144.55 44.14 143.69 44.02C142.83 43.9 141.87 44.01 140.8 44.33C139.73 44.65 138.55 45.25 137.25 46.14C136.44 46.69 135.71 47.33 135.06 48.05C134.41 48.78 133.92 49.56 133.6 50.4C133.27 51.24 133.14 52.12 133.21 53.04C133.27 53.96 133.62 54.89 134.24 55.83C134.96 56.93 135.85 57.7 136.89 58.13C137.93 58.57 139.15 58.76 140.54 58.71L140.51 59.37C139.6 59.48 138.77 59.47 138.03 59.35C137.29 59.23 136.61 59.01 136 58.71C135.39 58.4 134.84 58 134.34 57.5C133.84 57 133.38 56.42 132.94 55.76C132.25 54.72 131.82 53.65 131.65 52.55C131.48 51.45 131.53 50.38 131.8 49.33C132.07 48.29 132.55 47.3 133.24 46.38C133.93 45.46 134.78 44.65 135.81 43.95C136.89 43.21 138.03 42.7 139.21 42.42C140.39 42.13 141.54 42.06 142.66 42.2C143.77 42.33 144.81 42.68 145.76 43.23C146.71 43.78 147.5 44.53 148.12 45.46C148.92 46.68 149.45 47.84 149.69 48.95C149.93 50.06 149.94 50.97 149.73 51.69C149.58 52.19 149.23 52.67 148.66 53.12C148.1 53.56 147.49 54.01 146.84 54.45L146.53 54Z" fill="#56693B"/>
<path d="M97.9905 22.0499L97.9305 22.1099C97.3505 22.6899 96.7205 23.1699 96.0605 23.5299C95.4005 23.8899 94.7005 24.1799 93.9905 24.3699C93.2805 24.5699 92.5406 24.6899 91.7906 24.7499C90.2806 24.8599 88.7605 24.7399 87.2805 24.4199C86.5405 24.2599 85.8306 24.0199 85.1606 23.7299C84.4906 23.4299 83.8406 23.0499 83.2306 22.5999C82.6206 22.1399 82.0706 21.5799 81.5806 20.9199L81.5305 20.8499L81.0605 21.1199L81.1206 21.2099C81.6406 22.0199 82.1805 22.7599 82.7505 23.3999C83.3205 24.0399 83.9405 24.6099 84.6005 25.0699C85.2605 25.5299 85.9905 25.9099 86.7805 26.1799C87.5705 26.4499 88.4506 26.6199 89.4006 26.6899C90.3506 26.7599 91.2505 26.7199 92.0705 26.5599C92.8905 26.4099 93.6705 26.1399 94.3805 25.7799C95.1005 25.4199 95.7906 24.9499 96.4406 24.3999C97.0906 23.8499 97.7405 23.1999 98.3605 22.4699L98.4305 22.3899L97.9905 22.0499Z" fill="#56693B"/>
<path d="M95.081 23.3599L91.541 12.4499L90.761 12.3899L85.321 23.1699C85.341 23.1799 85.361 23.1899 85.381 23.1999C85.691 23.3299 86.001 23.4499 86.321 23.5599L90.101 16.0499L92.731 24.0499C93.101 23.9899 93.471 23.9099 93.831 23.8099C94.261 23.6999 94.671 23.5399 95.081 23.3599ZM85.061 23.6899L82.251 29.2499L83.421 29.3399L86.071 24.0899C85.761 23.9899 85.451 23.8699 85.161 23.7399C85.121 23.7199 85.091 23.6999 85.061 23.6899ZM95.261 23.9099C94.841 24.0899 94.411 24.2599 93.981 24.3799C93.631 24.4799 93.281 24.5599 92.921 24.6199L94.751 30.1699L97.361 30.3599L95.261 23.9099Z" fill="#56693B"/>
<path d="M150.791 80.1799L150.711 80.1399C150.001 79.7399 149.371 79.2599 148.841 78.7099C148.311 78.1599 147.851 77.5699 147.461 76.9299C147.081 76.2899 146.751 75.6099 146.491 74.8899C145.971 73.4499 145.651 71.9399 145.541 70.4099C145.491 69.6499 145.511 68.8899 145.601 68.1499C145.691 67.4099 145.871 66.6699 146.141 65.9499C146.401 65.2299 146.781 64.5399 147.271 63.8699L147.321 63.7999L146.931 63.4199L146.861 63.4999C146.241 64.2299 145.691 64.9699 145.241 65.6999C144.791 66.4299 144.431 67.1899 144.181 67.9599C143.921 68.7299 143.781 69.5499 143.741 70.3899C143.701 71.2299 143.791 72.1399 143.991 73.0799C144.191 74.0299 144.481 74.8899 144.861 75.6399C145.241 76.3899 145.701 77.0799 146.251 77.6699C146.791 78.2699 147.431 78.8099 148.131 79.2899C148.841 79.7699 149.631 80.2199 150.501 80.6199L150.601 80.6599L150.791 80.1799Z" fill="#56693B"/>
<path d="M148.741 77.7099L158.081 71.2099L157.921 70.4399L146.191 68.1599C146.191 68.1799 146.181 68.2099 146.181 68.2299C146.141 68.5599 146.111 68.9099 146.101 69.2499L154.271 70.8299L147.431 75.6299C147.591 75.9799 147.771 76.3099 147.961 76.6299C148.191 76.9999 148.461 77.3599 148.741 77.7099ZM145.631 68.0399L139.581 66.8599L139.831 68.0199L145.541 69.1299C145.551 68.7999 145.571 68.4699 145.611 68.1499C145.611 68.1099 145.631 68.0799 145.631 68.0399ZM148.271 78.0399C147.981 77.6799 147.711 77.3199 147.471 76.9299C147.281 76.6199 147.111 76.2899 146.951 75.9599L142.201 79.2899L142.751 81.8799L148.271 78.0399Z" fill="#56693B"/>
<path d="M18.8104 110.96C18.3204 110.66 17.9704 110.21 17.7604 109.61C17.5904 109.11 17.5604 108.61 17.6604 108.09C17.7704 107.57 18.0404 107.12 18.4804 106.74C18.9204 106.36 19.4804 106.04 20.1704 105.8C20.7004 105.61 21.2504 105.51 21.8004 105.51C22.3604 105.5 22.8604 105.66 23.3004 105.97C23.7404 106.29 24.0704 106.76 24.2904 107.38C24.4804 107.93 24.5004 108.43 24.3604 108.88C24.2204 109.33 23.8904 109.76 23.3704 110.16L23.9804 111.14C24.6504 110.66 25.0904 110.07 25.3104 109.36C25.5304 108.66 25.5004 107.9 25.2104 107.08C24.9604 106.36 24.5704 105.76 24.0404 105.27C23.5104 104.79 22.8804 104.49 22.1404 104.39C21.4004 104.29 20.6204 104.38 19.7804 104.68C19.0104 104.95 18.3404 105.35 17.7704 105.88C17.2004 106.4 16.8304 107.01 16.6704 107.68C16.5104 108.36 16.5804 109.13 16.8804 110.01C17.1704 110.86 17.6504 111.5 18.3104 111.92C18.9704 112.35 19.7804 112.52 20.7304 112.43L20.6304 111.25C19.9104 111.36 19.3004 111.25 18.8104 110.96Z" fill="#56693B"/>
<path d="M24.1398 124.69L30.5298 120.66L32.0198 123.08L32.8698 122.54L29.2998 116.73L28.4398 117.27L29.9298 119.69L23.5498 123.72L24.1398 124.69Z" fill="#56693B"/>
<path d="M37.0806 130.36C37.8806 130.39 38.5506 130.69 39.1106 131.26C39.5006 131.67 39.7606 132.13 39.8706 132.66C39.9806 133.19 39.9406 133.72 39.7306 134.26C39.5306 134.8 39.1806 135.31 38.6806 135.81C37.9006 136.59 37.1006 136.99 36.2906 137.02C35.4806 137.05 34.7806 136.76 34.1806 136.14C33.6006 135.54 33.3206 134.83 33.3506 134.01C33.3806 133.19 33.7706 132.42 34.5006 131.68C35.4306 130.77 36.2906 130.33 37.0806 130.36ZM32.5406 132.7C32.2906 133.41 32.2506 134.13 32.4206 134.87C32.5906 135.6 32.9506 136.26 33.5206 136.84C34.0406 137.38 34.6506 137.75 35.3506 137.96C36.0506 138.17 36.7606 138.16 37.4906 137.93C38.2206 137.7 38.8906 137.27 39.5106 136.66C40.1206 136.05 40.5506 135.39 40.7906 134.67C41.0406 133.95 41.0706 133.23 40.9006 132.51C40.7206 131.79 40.3606 131.14 39.8106 130.57C38.9706 129.7 37.9906 129.28 36.8906 129.3C35.7906 129.32 34.7306 129.83 33.7206 130.84C33.1806 131.36 32.7906 131.99 32.5406 132.7Z" fill="#56693B"/>
<path d="M45.3001 146.57L49.0501 140.27L47.4101 147.86L48.2801 148.39L54.0901 143.49L50.4001 149.68L51.3301 150.25L55.7401 142.85L54.4401 142.05L49.6301 146.13C49.1401 146.54 48.7801 146.86 48.5401 147.08C48.6101 146.79 48.7101 146.36 48.8401 145.77L50.2301 139.47L48.7801 138.58L44.3701 145.98L45.3001 146.57Z" fill="#56693B"/>
<path d="M64.9602 149.38C65.3102 148.92 65.6102 148.44 65.8802 147.94C65.8702 148.43 65.8902 149.06 65.9402 149.83L66.0902 152.38L63.3302 151.51L64.9602 149.38ZM61.0902 154.53L62.7502 152.31L66.1602 153.38L66.3502 156.18L67.5802 156.56L66.7602 147.26L65.6002 146.9L59.9502 154.18L61.0902 154.53Z" fill="#56693B"/>
<path d="M79.0106 158.39L79.7306 150.8L82.5406 151.07L82.6305 150.06L75.9106 149.4L75.8105 150.42L78.6105 150.69L77.8905 158.28L79.0106 158.39Z" fill="#56693B"/>
<path d="M91.2504 151.43C91.7504 150.81 92.4004 150.45 93.2004 150.35C93.7604 150.28 94.2804 150.36 94.7604 150.59C95.2404 150.82 95.6304 151.18 95.9304 151.67C96.2304 152.16 96.4204 152.76 96.5004 153.46C96.6304 154.56 96.4604 155.45 95.9904 156.12C95.5204 156.79 94.8604 157.18 94.0204 157.28C93.1904 157.38 92.4704 157.17 91.8504 156.64C91.2304 156.11 90.8604 155.33 90.7304 154.3C90.5704 153.01 90.7404 152.05 91.2504 151.43ZM90.3104 156.51C90.7104 157.15 91.2504 157.62 91.9304 157.93C92.6004 158.24 93.3404 158.35 94.1404 158.25C94.8704 158.16 95.5404 157.9 96.1304 157.47C96.7204 157.04 97.1504 156.46 97.4104 155.73C97.6704 155 97.7504 154.2 97.6504 153.33C97.5504 152.47 97.2904 151.72 96.8804 151.09C96.4704 150.45 95.9304 149.99 95.2504 149.69C94.5804 149.39 93.8504 149.29 93.0704 149.38C91.8804 149.53 90.9504 150.05 90.3004 150.95C89.6404 151.85 89.4004 153.01 89.5704 154.43C89.6604 155.18 89.9104 155.87 90.3104 156.51Z" fill="#56693B"/>
<path d="M107.22 152.57C107.47 153.25 107.57 153.7 107.52 153.93C107.47 154.16 107.32 154.32 107.08 154.41C106.96 154.46 106.79 154.48 106.59 154.47L106.76 155.49C107.12 155.45 107.42 155.39 107.65 155.3C108.03 155.15 108.31 154.92 108.48 154.61C108.65 154.3 108.7 153.93 108.63 153.5C108.56 153.08 108.37 152.44 108.06 151.59L106.52 147.42L109.41 146.33L112.04 153.47L113.1 153.07L110.12 144.97L105.12 146.87L107.22 152.57Z" fill="#56693B"/>
<path d="M120.39 141.35C120.56 140.56 120.97 139.94 121.63 139.48C122.09 139.16 122.59 138.99 123.13 138.97C123.66 138.95 124.17 139.09 124.66 139.39C125.14 139.69 125.58 140.13 125.97 140.71C126.59 141.63 126.84 142.49 126.72 143.31C126.6 144.12 126.19 144.77 125.49 145.26C124.8 145.74 124.06 145.88 123.27 145.7C122.48 145.52 121.8 145 121.22 144.14C120.5 143.07 120.23 142.14 120.39 141.35ZM121.86 146.3C122.51 146.68 123.2 146.85 123.94 146.81C124.68 146.77 125.38 146.53 126.05 146.07C126.66 145.65 127.13 145.11 127.46 144.45C127.79 143.79 127.91 143.08 127.81 142.3C127.71 141.53 127.42 140.78 126.94 140.06C126.46 139.35 125.89 138.8 125.24 138.43C124.59 138.06 123.89 137.89 123.16 137.94C122.43 137.99 121.73 138.23 121.08 138.68C120.09 139.37 119.5 140.26 119.32 141.37C119.14 142.47 119.45 143.62 120.25 144.8C120.68 145.42 121.21 145.93 121.86 146.3Z" fill="#56693B"/>
<path d="M136.77 136.87L137.54 136.03L132.02 130.85L134.99 127.59L134.25 126.9L130.51 131L136.77 136.87Z" fill="#56693B"/>
<path d="M146.28 124.9L146.84 123.91L143.28 116.51L149.11 119.92L149.62 119.02L142.24 114.7L141.67 115.7L145.26 123.1L139.41 119.68L138.9 120.58L146.28 124.9Z" fill="#56693B"/>
<path d="M148.11 101.53L147.34 104.15C147.16 104.76 147.15 105.25 147.32 105.61C147.49 105.97 147.76 106.21 148.15 106.32C148.41 106.4 148.68 106.4 148.95 106.32C149.22 106.24 149.44 106.07 149.63 105.82C149.81 105.57 149.98 105.19 150.13 104.69L150.82 102.33L148.11 101.53ZM155.38 103.72L151.75 102.63L151.38 103.9C151.3 104.18 151.25 104.39 151.24 104.52C151.23 104.7 151.25 104.89 151.31 105.09C151.37 105.29 151.49 105.53 151.69 105.81C151.89 106.1 152.19 106.47 152.58 106.94L153.96 108.55L153.56 109.93L151.76 107.82C151.41 107.4 151.14 106.99 150.94 106.58C150.85 106.39 150.78 106.13 150.73 105.8C150.39 106.56 149.96 107.07 149.46 107.34C148.95 107.6 148.41 107.64 147.83 107.47C147.38 107.33 147 107.1 146.7 106.75C146.4 106.41 146.23 106.02 146.19 105.59C146.16 105.16 146.25 104.58 146.46 103.84L147.54 100.17L155.71 102.63L155.38 103.72Z" fill="#56693B"/>
<path d="M167.56 85.39C167.56 39.32 130.72 1.96997 85.2702 1.96997C39.8302 1.96997 2.99023 39.32 2.99023 85.39C2.99023 131.46 39.8302 168.81 85.2702 168.81C130.72 168.81 167.56 131.46 167.56 85.39ZM134.38 87.87C134.38 60.38 112.4 38.09 85.2702 38.09C58.1502 38.09 36.1602 60.38 36.1602 87.87C36.1602 115.36 58.1502 137.65 85.2702 137.65C112.4 137.65 134.38 115.36 134.38 87.87Z" stroke="#56693B" stroke-width="0.9664" stroke-miterlimit="10"/>
</svg>
