<svg width="36" height="36" viewBox="0 0 36 36" fill="none" xmlns="http://www.w3.org/2000/svg">
<g clip-path="url(#clip0_347_749)">
<path d="M17.8 0C27.6 0 35.5 8 35.5 17.8C35.5 27.6 27.5 35.5 17.7 35.5C7.9 35.4 0 27.5 0 17.7C0 7.9 8 0 17.8 0ZM19.9 9.6C19.9 9.7 19.9 9.8 19.9 9.9C19.9 10.3 19.9 10.6 19.9 11C19.9 16.8 19.9 22.6 19.9 28.4C19.9 28.9 19.9 28.8 20.4 28.8C21.5 28.8 22.5 28.8 23.6 28.8C23.8 28.8 23.9 28.7 23.9 28.5C23.9 21.3 23.9 14.1 23.9 6.8C23.9 6.6 23.8 6.5 23.6 6.5C21.7 6.5 19.8 6.5 17.9 6.5C16.7 6.5 15.6 6.7 14.4 7C12.2 7.7 10.6 8.9 9.8 11.1C9.3 12.6 9.3 14.2 9.6 15.8C10 17.5 11.1 18.9 12.4 20C12.9 20.4 13.4 20.8 13.9 21.2C12.2 23.7 10.5 26.2 8.8 28.7C9 28.7 9.1 28.7 9.1 28.7C10.3 28.7 11.5 28.7 12.7 28.7C12.9 28.7 13.1 28.6 13.2 28.4C14.8 26 16.4 23.6 18.1 21.2C18.3 20.9 18.5 20.6 18.7 20.2C18.6 20.1 18.4 20 18.3 19.9C17.4 19.3 16.5 18.7 15.6 18.1C13.9 16.9 13 15.2 13.2 13C13.3 11.6 14 10.6 15.3 9.9C16.8 9.4 18.3 9.6 19.9 9.6Z" fill="#E14021"/>
</g>
<defs>
<clipPath id="clip0_347_749">
<rect width="35.5" height="35.5" fill="white"/>
</clipPath>
</defs>
</svg>
