<svg width="20" height="47" viewBox="0 0 20 47" fill="none" xmlns="http://www.w3.org/2000/svg">
<g clip-path="url(#clip0_557_260)">
<path d="M6.93878 25.881C7.7551 29.8149 9.18367 33.5418 11.0204 37.2687C12.6531 40.5814 14.6939 44.5153 17.7551 46.7929C18.7755 47.6211 20.4082 46.1717 20 45.1365C18.9796 41.8237 16.9388 38.718 15.5102 35.6123C14.0816 32.2995 13.0612 28.9867 12.2449 25.4669C10.8163 20.2907 10 14.4933 10.4082 9.11006C11.8367 11.8017 13.4694 14.2863 15.9184 15.7356C17.3469 16.7709 19.1837 14.7004 18.3673 13.251C17.1429 11.1805 15.3061 9.52416 14.0816 7.66073C12.6531 6.21139 12.0408 4.555 11.2245 2.69156C11.2245 2.48451 11.0204 2.48451 11.0204 2.27747C10.8163 2.07042 10.6122 1.65632 10.4082 1.24222C10 -6.71835e-05 8.57143 -0.414164 7.7551 0.41403C4.4898 3.93385 0 9.31711 0 14.4933C0 15.1145 0.816327 15.3215 1.22449 14.9074C2.85714 13.251 3.87755 11.1805 5.30612 9.11006C5.30612 8.90302 5.71429 8.69597 5.91837 8.28187C4.69388 14.0792 5.71429 20.4977 6.93878 25.881Z" fill="#96744A"/>
</g>
<defs>
<clipPath id="clip0_557_260">
<rect width="20" height="47" fill="white"/>
</clipPath>
</defs>
</svg>
