<svg width="20" height="10" viewBox="0 0 20 10" fill="none" xmlns="http://www.w3.org/2000/svg">
<g clip-path="url(#clip0_558_263)">
<path d="M5.10638 3.04348C3.82979 2.17391 2.55319 1.30435 1.70213 0C1.2766 0 0.851064 0 0.851064 0.434783C0.851064 1.30435 0.425532 1.73913 0.425532 2.6087C0 3.47826 0 3.91304 0 4.78261C0 5.21739 0.425532 5.21739 0.851064 4.78261C0.851064 4.34783 1.2766 3.47826 1.2766 3.04348V2.6087C1.2766 3.04348 1.2766 3.47826 1.70213 3.91304C2.12766 4.78261 2.55319 6.08696 2.97872 6.95652C4.25532 8.69565 5.95745 9.56522 8.08511 10C10.6383 10.4348 12.766 10 14.8936 8.69565C15.7447 8.26087 17.0213 7.3913 17.8723 6.52174C18.2979 6.08696 18.7234 5.65217 19.1489 5.21739C19.1489 4.78261 20 4.34783 20 3.91304C20 3.47826 20 3.04348 19.5745 3.47826C19.1489 3.47826 18.7234 3.91304 18.2979 4.34783C17.8723 4.78261 17.8723 5.21739 17.4468 5.65217C16.5957 6.08696 15.7447 6.95652 14.4681 7.3913C12.766 8.69565 10.6383 9.13043 8.51064 8.69565C6.80851 8.69565 5.10638 7.3913 3.82979 6.08696C3.40426 5.21739 2.97872 4.34783 2.55319 3.47826C2.55319 3.04348 2.55319 2.6087 2.12766 2.6087C2.97872 2.6087 3.40426 3.47826 4.25532 3.91304C4.68085 4.34783 5.53192 3.47826 5.10638 3.04348Z" fill="#96744A"/>
</g>
<defs>
<clipPath id="clip0_558_263">
<rect width="20" height="10" fill="white"/>
</clipPath>
</defs>
</svg>
