<svg width="40" height="20" viewBox="0 0 40 20" fill="none" xmlns="http://www.w3.org/2000/svg">
<g clip-path="url(#clip0_558_263)">
<path d="M10.2128 6.08696C7.65957 4.34783 5.10638 2.6087 3.40426 0C2.55319 0 1.70213 0 1.70213 0.869565C1.70213 2.6087 0.851064 3.47826 0.851064 5.21739C0 6.95652 0 7.82609 0 9.56522C0 10.4348 0.851064 10.4348 1.70213 9.56522C1.70213 8.69565 2.55319 6.95652 2.55319 6.08696V5.21739C2.55319 6.08696 2.55319 6.95652 3.40426 7.82609C4.25532 9.56522 5.10638 12.1739 5.95745 13.913C8.51064 17.3913 11.9149 19.1304 16.1702 20C21.2766 20.8696 25.5319 20 29.7872 17.3913C31.4894 16.5217 34.0426 14.7826 35.7447 13.0435C36.5957 12.1739 37.4468 11.3043 38.2979 10.4348C38.2979 9.56522 40 8.69565 40 7.82609C40 6.95652 40 6.08696 39.1489 6.95652C38.2979 6.95652 37.4468 7.82609 36.5957 8.69565C35.7447 9.56522 35.7447 10.4348 34.8936 11.3043C33.1915 12.1739 31.4894 13.913 28.9362 14.7826C25.5319 17.3913 21.2766 18.2609 17.0213 17.3913C13.617 17.3913 10.2128 14.7826 7.65957 12.1739C6.80851 10.4348 5.95745 8.69565 5.10638 6.95652C5.10638 6.08696 5.10638 5.21739 4.25532 5.21739C5.95745 5.21739 6.80851 6.95652 8.51064 7.82609C9.3617 8.69565 11.0638 6.95652 10.2128 6.08696Z" fill="#7A9154"/>
</g>
<defs>
<clipPath id="clip0_558_263">
<rect width="40" height="20" fill="white"/>
</clipPath>
</defs>
</svg>
