<svg width="76" height="76" viewBox="0 0 76 76" fill="none" xmlns="http://www.w3.org/2000/svg">
<g clip-path="url(#clip0_237_682)">
<path d="M37.7998 75.3C58.5105 75.3 75.2998 58.5107 75.2998 37.8C75.2998 17.0894 58.5105 0.300049 37.7998 0.300049C17.0891 0.300049 0.299805 17.0894 0.299805 37.8C0.299805 58.5107 17.0891 75.3 37.7998 75.3Z" fill="#F0EBE8" stroke="#96744A" stroke-width="0.5" stroke-miterlimit="10"/>
<path d="M60.9997 37.2001H60.8997C59.4997 37.2001 58.1997 37.1 56.9997 36.8C55.7997 36.5 54.5997 36 53.4997 35.5C52.3997 34.9 51.2997 34.2001 50.3997 33.4001C48.3997 31.8001 46.6997 29.9 45.1997 27.9C44.4997 26.9 43.8997 25.8001 43.3997 24.6C42.8997 23.5 42.4997 22.3 42.2997 21C42.0997 19.8 41.9997 18.4 42.0997 17.1V17L41.1997 16.8V17C40.8997 18.6 40.7997 20.1 40.6997 21.5C40.6997 22.9 40.7997 24.3001 41.0997 25.6C41.3997 26.9 41.8997 28.2 42.4997 29.4C43.1997 30.6 44.0997 31.8 45.1997 33C46.2997 34.2 47.4997 35.1001 48.5997 35.9001C49.7997 36.6001 50.9997 37.2 52.2997 37.6C53.5997 38 54.9997 38.2 56.3997 38.3C57.7997 38.4 59.3997 38.3 60.8997 38.1H61.0997L60.9997 37.2001Z" fill="#96744A"/>
<path d="M60.9997 38.3001H60.8997C59.4997 38.3001 58.1997 38.4001 56.9997 38.7001C55.7997 39.0001 54.5997 39.5001 53.4997 40.0001C52.3997 40.6001 51.2997 41.3001 50.3997 42.1001C48.3997 43.7001 46.6997 45.6001 45.1997 47.6001C44.4997 48.6001 43.8997 49.7001 43.3997 50.9001C42.8997 52.0001 42.4997 53.2001 42.2997 54.5001C42.0997 55.7001 41.9997 57.1001 42.0997 58.4001V58.5001L41.1997 58.7001V58.5001C40.8997 56.9001 40.7997 55.4001 40.6997 54.0001C40.6997 52.6001 40.7997 51.2001 41.0997 49.9001C41.3997 48.6001 41.8997 47.3001 42.4997 46.1001C43.1997 44.9001 44.0997 43.7001 45.1997 42.5001C46.2997 41.3001 47.4997 40.4001 48.5997 39.6001C49.7997 38.9001 50.9997 38.3001 52.2997 37.9001C53.5997 37.5001 54.9997 37.3001 56.3997 37.2001C57.7997 37.1001 59.3997 37.2001 60.8997 37.4001H61.0997L60.9997 38.3001Z" fill="#96744A"/>
<path d="M52.8999 36.5H14.3999V39H52.8999V36.5Z" fill="#96744A"/>
</g>
<defs>
<clipPath id="clip0_237_682">
<rect width="75.5" height="75.5" fill="white"/>
</clipPath>
</defs>
</svg>
