<svg width="206" height="206" viewBox="0 0 206 206" fill="none" xmlns="http://www.w3.org/2000/svg">
<path d="M102.46 204.706C158.495 204.706 203.92 159.281 203.92 103.246C203.92 47.2116 158.495 1.78644 102.46 1.78644C46.4252 1.78644 1 47.2116 1 103.246C1 159.281 46.4252 204.706 102.46 204.706Z" fill="#F0F0F0"/>
<path d="M130.94 103.796C132.68 101.526 134.04 99.2064 135 96.9064C135.96 94.6064 136.59 92.2364 136.87 89.8464C137.15 87.4964 137.14 85.0364 136.85 82.5364C136.85 82.5064 136.85 82.4764 136.84 82.4364C136.59 80.3364 136.16 78.1264 135.58 75.8664C134.96 75.5364 134.32 75.2264 133.66 74.9364C132.22 74.3064 130.69 73.7564 129.05 73.3064C126.29 72.5464 123.63 72.1464 121.14 72.1164C118.65 72.0864 116.21 72.3864 113.89 73.0264C113.38 73.1664 112.87 73.3264 112.36 73.4964C113.14 74.5364 113.88 75.6364 114.56 76.7864C114.65 76.9464 114.74 77.1164 114.83 77.2764C116.82 77.1764 118.85 77.2464 120.87 77.5064C125.35 78.0764 129.77 79.2964 133.92 81.0964C133.99 81.1264 134.06 81.1664 134.14 81.1964C134.13 81.4564 134.13 81.7164 134.1 81.9664C133.91 84.2264 133.47 86.4264 132.79 88.5164C132.11 90.6064 131.21 92.6664 130.11 94.6364C128.04 98.3264 125.46 101.746 122.49 104.766C122.29 104.976 122.1 105.196 121.9 105.396C121.69 105.606 121.46 105.806 121.24 106.016C121.89 107.836 122.31 109.656 122.53 111.456C122.57 111.836 122.62 112.206 122.65 112.586C122.81 114.846 122.71 117.096 122.35 119.266C122 121.446 121.42 123.616 120.63 125.726C119.05 129.966 116.86 133.986 114.16 137.616C112.81 139.426 111.3 141.086 109.66 142.566C108.03 144.046 106.19 145.346 104.21 146.446C104.19 146.456 104.17 146.466 104.15 146.476C103.02 147.686 101.79 148.886 100.45 150.066C102.31 149.706 104.1 149.266 105.76 148.746C108.19 147.986 110.47 146.976 112.53 145.756C114.59 144.526 116.5 142.986 118.21 141.166C119.91 139.356 121.47 137.156 122.84 134.646C124.21 132.126 125.2 129.636 125.8 127.216C126.4 124.796 126.65 122.356 126.57 119.956C126.48 117.556 126.09 115.096 125.41 112.646C125.18 111.806 124.9 110.946 124.6 110.076C124.85 109.896 125.11 109.716 125.35 109.526C127.33 108.006 129.2 106.076 130.94 103.796ZM107.98 138.776C109.12 136.666 109.98 134.356 110.51 131.926C111.05 129.496 111.26 126.816 111.15 123.956C111.04 121.096 110.62 118.436 109.89 116.056C109.82 115.836 109.74 115.616 109.67 115.396C109.42 114.646 109.14 113.916 108.83 113.196C108.26 111.876 107.6 110.606 106.83 109.416C106.17 108.396 105.43 107.396 104.63 106.436C106.67 105.516 108.92 104.866 111.32 104.516L111.58 104.476L111.56 102.866L111.24 102.886C108.4 103.076 105.69 103.466 103.22 104.026C103 104.076 102.79 104.146 102.58 104.206C102.42 104.046 102.27 103.876 102.1 103.716C100.26 101.956 98.1398 100.246 95.7898 98.6264L95.5298 98.4464L94.6898 99.8164L94.8898 99.9864C96.7798 101.516 98.3898 103.246 99.6798 105.096C100.97 106.956 102.03 108.936 102.84 110.986C103.23 111.976 103.57 112.986 103.87 114.016C104.02 114.556 104.17 115.096 104.3 115.636C104.44 116.226 104.57 116.816 104.67 117.406C105.48 121.856 105.66 126.436 105.19 130.926C104.96 133.166 104.51 135.376 103.86 137.476C103.21 139.576 102.31 141.636 101.16 143.596C100.02 145.546 98.5498 147.386 96.7798 149.056L96.5898 149.236L97.5298 150.536L97.7798 150.336C99.9898 148.536 101.98 146.666 103.67 144.776C105.4 142.916 106.84 140.876 107.98 138.776ZM79.5298 139.646C78.3898 137.686 77.4798 135.636 76.8398 133.526C76.1898 131.426 75.7498 129.216 75.5098 126.976C75.0498 122.476 75.2298 117.896 76.0398 113.456C76.4498 111.236 77.0598 109.076 77.8698 107.026C78.6798 104.986 79.7398 102.996 81.0298 101.136C81.2398 100.826 81.4798 100.526 81.7098 100.226C82.8198 98.7864 84.1198 97.4464 85.5998 96.2164C85.5198 95.9264 85.4298 95.6364 85.3498 95.3464C85.2798 95.0664 85.2298 94.7864 85.1598 94.5064C84.1598 90.3864 83.6898 86.1364 83.8098 81.9064C83.8698 79.6464 84.1498 77.4164 84.6398 75.2764C85.1298 73.1264 85.8798 71.0064 86.8698 68.9764C86.9798 68.7464 87.1098 68.5264 87.2298 68.2964C87.3098 68.3064 87.3898 68.3164 87.4698 68.3264C91.9498 68.8964 96.3698 70.1164 100.52 71.9164C102.59 72.8164 104.55 73.9164 106.36 75.1664C106.63 75.3564 106.9 75.5664 107.16 75.7564C107.11 75.7864 107.06 75.8064 107.01 75.8364C104.78 77.0564 102.51 78.5564 100.25 80.3064L99.9998 80.4964L101.05 81.7064L101.27 81.5664C103.31 80.2264 105.43 79.2164 107.59 78.5464C108.31 78.3264 109.05 78.1364 109.78 77.9764C110.32 78.4964 110.86 79.0264 111.36 79.5864C112.87 81.2664 114.18 83.2264 115.24 85.4164L115.36 85.6564L116.89 85.1564L116.77 84.8664C115.73 82.2164 114.54 79.7564 113.25 77.5664C111.96 75.3664 110.46 73.3764 108.79 71.6564C107.12 69.9264 105.19 68.4164 103.03 67.1664C100.88 65.9164 98.3898 64.9064 95.6298 64.1464C93.9898 63.6964 92.3898 63.3864 90.8298 63.1864C90.1098 63.0964 89.3998 63.0364 88.6998 62.9964C87.0398 64.6464 85.5498 66.3164 84.2598 67.9964C84.2398 68.0264 84.2198 68.0464 84.1998 68.0764C82.6698 70.0764 81.4098 72.1764 80.4398 74.3364C79.4598 76.5264 78.7798 78.8864 78.4298 81.3564C78.0798 83.8164 78.0598 86.5064 78.3898 89.3564C78.7198 92.1964 79.3398 94.8164 80.2398 97.1364C80.3498 97.4264 80.4798 97.7064 80.6098 97.9964C79.9098 98.5864 79.2298 99.1864 78.5998 99.7864C76.7598 101.546 75.1598 103.456 73.8598 105.476C72.5598 107.496 71.5298 109.726 70.7998 112.106C70.0798 114.486 69.6498 117.146 69.5398 120.006C69.4298 122.866 69.6498 125.546 70.1798 127.976C70.7198 130.406 71.5698 132.716 72.7098 134.826C73.8498 136.936 75.2898 138.966 76.9898 140.866C78.1598 142.166 79.4598 143.456 80.8798 144.716C80.3298 143.016 79.8898 141.356 79.5398 139.736C79.5598 139.686 79.5398 139.666 79.5298 139.646ZM98.4698 105.956C98.3898 105.846 98.2998 105.736 98.2198 105.626C97.5498 105.896 96.8798 106.186 96.2398 106.506C94.9698 107.136 93.7598 107.886 92.5898 108.726C91.9598 109.186 91.3498 109.666 90.7498 110.186C90.5698 110.336 90.3898 110.476 90.2198 110.636C88.3798 112.306 86.6598 114.376 85.0998 116.776C83.5398 119.176 82.3498 121.586 81.5698 123.956C80.7898 126.316 80.3398 128.736 80.2398 131.136C80.1398 133.526 80.3398 136.016 80.8298 138.516C81.3198 141.006 82.0598 143.636 83.0398 146.306L83.1498 146.606L84.6298 145.966L84.5598 145.716C83.8998 143.366 83.5798 141.036 83.5998 138.776C83.6198 136.506 83.8898 134.276 84.4098 132.136C84.9298 129.996 85.6798 127.876 86.6298 125.826C88.5298 121.726 91.0298 117.886 93.9998 114.476C94.3998 114.016 94.8098 113.576 95.2298 113.146C95.6198 112.746 96.0198 112.346 96.4298 111.966C97.2198 111.236 98.0298 110.536 98.8698 109.886C99.3198 109.536 99.7898 109.206 100.26 108.886C99.7198 107.896 99.1298 106.916 98.4698 105.956Z" fill="#8A8177"/>
<path d="M21.4498 65.6465C22.4198 63.7465 23.4898 62.2065 24.6498 61.0065C25.8198 59.8165 27.0398 58.9565 28.3198 58.4365C29.5998 57.9165 30.9398 57.7165 32.3398 57.8365C33.7398 57.9665 35.1598 58.3865 36.5998 59.1265C37.9998 59.8365 39.1698 60.7265 40.1198 61.7765C41.0698 62.8265 41.7398 64.0165 42.1298 65.3265C42.5198 66.6365 42.6198 68.0765 42.4298 69.6365C42.2398 71.1965 41.6998 72.8465 40.8098 74.5865L37.8998 80.2865L22.3698 72.3565C21.5098 71.9165 20.7498 71.6765 20.0998 71.6465C19.4498 71.6165 18.9098 72.0365 18.4598 72.8965L18.1698 73.4765L17.5898 73.1865L21.4498 65.6465ZM37.9298 76.8465C38.7498 75.8465 39.3698 74.9365 39.7898 74.1165C40.3198 73.0665 40.6298 71.9865 40.7098 70.8665C40.7798 69.7465 40.6198 68.6665 40.2198 67.6265C39.8198 66.5765 39.1998 65.6065 38.3498 64.6865C37.4998 63.7765 36.4198 62.9765 35.1198 62.3165C33.8498 61.6665 32.5998 61.2665 31.3698 61.1065C30.1398 60.9465 28.9698 61.0065 27.8798 61.2965C26.7898 61.5865 25.8098 62.0865 24.9298 62.8065C24.0598 63.5265 23.3398 64.4265 22.7898 65.5165C22.5798 65.9365 22.3798 66.4065 22.2098 66.9365C22.0398 67.4665 21.8998 68.0265 21.7898 68.6165L37.9298 76.8465Z" fill="#8A8177"/>
<path d="M46.8 33.5764C47.22 33.2064 47.61 32.9564 47.98 32.8364C48.34 32.7164 48.68 32.6764 48.99 32.7164C49.3 32.7564 49.59 32.8664 49.85 33.0564C50.11 33.2364 50.35 33.4564 50.57 33.6964L52.18 35.5064L51.7 35.9364C50.84 34.9664 49.96 34.4964 49.04 34.5164C48.12 34.5364 47.18 34.9764 46.21 35.8364L41.72 39.8264L47.29 46.1064L53.81 40.3164L54.67 41.2864L48.15 47.0764L54.15 53.8464L58.38 50.0964C59.47 49.1264 60.16 48.1564 60.44 47.1864C60.72 46.2164 60.61 45.0864 60.13 43.7964L60.72 43.4864L61.91 46.5364C62.11 47.0264 62.16 47.5064 62.05 47.9864C61.95 48.4664 61.65 48.9264 61.17 49.3564L52.83 56.7464L41.25 43.6764C40.61 42.9564 39.99 42.4564 39.39 42.1964C38.8 41.9364 38.14 42.1164 37.41 42.7664L36.93 43.1964L36.5 42.7164L46.8 33.5764Z" fill="#8A8177"/>
<path d="M66.1102 25.7964C65.7702 24.8864 65.3102 24.2264 64.7102 23.8164C64.1202 23.4064 63.3002 23.3964 62.2502 23.7864L61.9502 23.8964L61.7202 23.2864L63.6802 22.5464C64.6702 22.1764 65.5402 22.0364 66.3002 22.1164C67.0602 22.1964 67.7702 22.4364 68.4502 22.8264L83.9602 32.0164L78.3502 17.0464L79.5602 16.5964L87.1602 36.8564L86.5502 37.0864L67.4802 25.7864L73.4302 41.6664L72.2202 42.1164L66.1102 25.7964Z" fill="#8A8177"/>
<path d="M113.56 13.8564L113.55 15.1464L106.28 15.0764L106.07 35.0964L103.17 35.0664L103.37 15.0464L100.46 15.0164C99.17 15.0064 98.17 15.2864 97.46 15.8764C96.76 16.4564 96.4 17.3964 96.38 18.6864L95.73 18.6764L95.75 16.2564C95.75 15.9364 95.79 15.6164 95.87 15.3064C95.95 14.9964 96.09 14.7264 96.3 14.4864C96.51 14.2564 96.79 14.0564 97.15 13.9164C97.51 13.7664 97.97 13.6964 98.53 13.7064L113.56 13.8564Z" fill="#8A8177"/>
<path d="M146.51 48.0964L155.38 55.3564L154.56 56.3564L143.44 47.2564L154.48 33.7564C155.09 33.0064 155.48 32.3164 155.65 31.6864C155.81 31.0564 155.52 30.4364 154.77 29.8264L154.27 29.4164L154.68 28.9164L156.93 30.7564C157.36 31.1064 157.69 31.4464 157.93 31.7564C158.16 32.0664 158.27 32.4064 158.26 32.7764C158.25 33.1464 158.12 33.5564 157.87 33.9964C157.62 34.4364 157.24 34.9764 156.73 35.5864L146.51 48.0964Z" fill="#8A8177"/>
<path d="M176.97 50.7964L178.65 53.1664L164.41 63.2365C163.62 63.7965 163.06 64.3565 162.73 64.9165C162.4 65.4765 162.52 66.1564 163.08 66.9464L163.45 67.4764L162.92 67.8465L161.24 65.4764C160.92 65.0164 160.69 64.6064 160.55 64.2464C160.41 63.8764 160.4 63.5264 160.5 63.1664C160.61 62.8164 160.84 62.4564 161.19 62.1064C161.54 61.7464 162.06 61.3364 162.72 60.8564L176.97 50.7964Z" fill="#8A8177"/>
<path d="M186.25 86.0964C188.12 85.0364 189.35 83.8364 189.94 82.4664C190.53 81.0964 190.54 79.5664 189.98 77.8764C189.65 76.8764 189.16 75.9864 188.53 75.2164C187.9 74.4364 187.09 73.8464 186.1 73.4264C185.11 73.0064 183.93 72.8164 182.55 72.8364C181.17 72.8664 179.57 73.1864 177.73 73.7964C176.59 74.1764 175.51 74.6864 174.5 75.3364C173.49 75.9764 172.65 76.7364 171.99 77.6164C171.33 78.4964 170.89 79.4864 170.67 80.5964C170.45 81.7064 170.55 82.9064 170.99 84.2164C171.5 85.7464 172.3 86.9464 173.41 87.8064C174.51 88.6664 175.9 89.2864 177.58 89.6864L177.33 90.4564C176.21 90.2864 175.22 90.0064 174.38 89.6164C173.53 89.2264 172.8 88.7464 172.17 88.1864C171.54 87.6264 171.01 86.9664 170.58 86.2164C170.15 85.4664 169.78 84.6264 169.47 83.7064C168.99 82.2564 168.82 80.8564 168.97 79.4964C169.12 78.1464 169.53 76.8964 170.19 75.7564C170.85 74.6164 171.74 73.6164 172.87 72.7564C173.99 71.8964 175.28 71.2264 176.73 70.7464C178.26 70.2364 179.78 70.0065 181.28 70.0665C182.79 70.1165 184.18 70.4164 185.47 70.9364C186.76 71.4664 187.88 72.2064 188.83 73.1664C189.79 74.1264 190.48 75.2665 190.92 76.5665C191.49 78.2665 191.73 79.8064 191.66 81.1864C191.59 82.5764 191.31 83.6564 190.82 84.4264C190.48 84.9664 189.9 85.4164 189.08 85.7564C188.26 86.0964 187.4 86.4164 186.47 86.7264L186.25 86.0964Z" fill="#8A8177"/>
<path d="M138.66 32.5164L138.57 32.5664C137.69 33.0564 136.78 33.4164 135.87 33.6264C134.96 33.8364 134.03 33.9464 133.12 33.9364C132.21 33.9364 131.28 33.8364 130.37 33.6564C128.54 33.2864 126.75 32.6564 125.09 31.7864C124.26 31.3564 123.49 30.8464 122.78 30.2764C122.07 29.7064 121.42 29.0464 120.84 28.3064C120.27 27.5664 119.78 26.7164 119.41 25.7864L119.37 25.6864L118.73 25.8464L118.77 25.9664C119.12 27.0964 119.54 28.1364 120 29.0764C120.47 30.0164 121.03 30.8864 121.66 31.6464C122.29 32.4064 123.05 33.0864 123.9 33.6664C124.75 34.2464 125.75 34.7364 126.86 35.1364C127.98 35.5264 129.06 35.7764 130.09 35.8664C131.11 35.9564 132.13 35.8964 133.11 35.7064C134.08 35.5164 135.06 35.1964 136.02 34.7564C136.98 34.3164 137.96 33.7664 138.94 33.1164L139.05 33.0464L138.66 32.5164Z" fill="#8A8177"/>
<path d="M134.76 33.0964L134.07 19.0864L133.16 18.7664L123.17 29.6664C123.19 29.6864 123.21 29.7064 123.23 29.7264C123.55 29.9864 123.89 30.2264 124.24 30.4564L131.19 22.8564L131.74 33.1465C132.2 33.1965 132.67 33.2264 133.13 33.2264C133.67 33.2264 134.21 33.1764 134.76 33.0964ZM122.69 30.1864L117.53 35.8164L118.9 36.3064L123.76 30.9864C123.42 30.7564 123.1 30.5264 122.79 30.2764C122.75 30.2464 122.72 30.2164 122.69 30.1864ZM134.8 33.8064C134.24 33.8864 133.68 33.9364 133.12 33.9364C132.67 33.9364 132.22 33.9164 131.77 33.8664L132.15 41.0064L135.2 42.0864L134.8 33.8064Z" fill="#8A8177"/>
<path d="M182.84 118.326L182.76 118.246C182.04 117.536 181.45 116.766 180.99 115.946C180.53 115.126 180.17 114.276 179.92 113.396C179.67 112.526 179.5 111.606 179.42 110.676C179.26 108.816 179.37 106.926 179.74 105.086C179.92 104.176 180.2 103.286 180.55 102.446C180.9 101.606 181.35 100.796 181.9 100.036C182.45 99.2764 183.13 98.5864 183.92 97.9564L184.01 97.8864L183.67 97.3164L183.57 97.4064C182.59 98.0564 181.7 98.7464 180.92 99.4664C180.14 100.176 179.47 100.956 178.92 101.786C178.37 102.606 177.92 103.526 177.6 104.506C177.28 105.486 177.09 106.576 177.02 107.756C176.95 108.936 177.02 110.046 177.22 111.056C177.42 112.066 177.76 113.026 178.22 113.906C178.68 114.786 179.25 115.636 179.94 116.436C180.63 117.236 181.43 118.016 182.33 118.786L182.43 118.866L182.84 118.326Z" fill="#8A8177"/>
<path d="M181.19 114.746L194.45 110.166L194.51 109.196L181.25 102.646C181.24 102.676 181.22 102.696 181.21 102.726C181.05 103.106 180.91 103.496 180.79 103.906L190.03 108.456L180.3 111.856C180.38 112.316 180.48 112.766 180.61 113.206C180.76 113.736 180.96 114.246 181.19 114.746ZM180.61 102.336L173.76 98.9565L173.68 100.406L180.14 103.586C180.26 103.206 180.39 102.816 180.55 102.456C180.57 102.416 180.6 102.386 180.61 102.336ZM180.52 114.986C180.29 114.466 180.08 113.946 179.93 113.416C179.81 112.986 179.7 112.546 179.62 112.106L172.87 114.466L172.68 117.696L180.52 114.986Z" fill="#8A8177"/>
<path d="M15.29 111.176C14.8 110.666 14.53 110.016 14.48 109.236C14.44 108.596 14.56 107.986 14.86 107.416C15.15 106.846 15.62 106.406 16.28 106.096C16.93 105.786 17.7 105.606 18.6 105.546C19.29 105.496 19.98 105.566 20.65 105.736C21.32 105.916 21.87 106.256 22.29 106.776C22.71 107.296 22.95 107.956 23.01 108.766C23.06 109.466 22.92 110.066 22.6 110.556C22.28 111.046 21.75 111.436 21 111.736L21.42 113.086C22.37 112.736 23.09 112.186 23.58 111.436C24.07 110.676 24.28 109.776 24.2 108.726C24.14 107.796 23.87 106.956 23.39 106.216C22.91 105.466 22.25 104.916 21.41 104.556C20.57 104.196 19.59 104.046 18.5 104.126C17.49 104.196 16.57 104.446 15.71 104.876C14.86 105.306 14.23 105.896 13.81 106.636C13.4 107.376 13.23 108.316 13.3 109.456C13.37 110.556 13.74 111.456 14.39 112.176C15.04 112.896 15.95 113.366 17.12 113.576L17.38 112.156C16.47 112.006 15.77 111.686 15.29 111.176Z" fill="#8A8177"/>
<path d="M17.1998 129.096L26.1198 126.446L27.1198 129.796L28.3098 129.446L25.9298 121.416L24.7398 121.776L25.7298 125.106L16.7998 127.756L17.1998 129.096Z" fill="#8A8177"/>
<path d="M30.8101 140.026C31.7501 140.316 32.4601 140.896 32.9401 141.756C33.2801 142.366 33.4301 142.996 33.4001 143.656C33.3601 144.316 33.1401 144.926 32.7201 145.496C32.3001 146.066 31.7201 146.556 30.9701 146.976C29.7801 147.636 28.7001 147.856 27.7201 147.616C26.7401 147.386 26.0001 146.806 25.4901 145.886C24.9901 144.986 24.8901 144.056 25.1901 143.106C25.5001 142.156 26.2101 141.366 27.3201 140.746C28.7001 139.976 29.8701 139.736 30.8101 140.026ZM24.6201 141.296C24.0901 142.056 23.8101 142.886 23.7701 143.806C23.7301 144.726 23.9601 145.616 24.4401 146.486C24.8901 147.286 25.4901 147.926 26.2601 148.406C27.0301 148.886 27.8801 149.106 28.8301 149.076C29.7801 149.046 30.7201 148.766 31.6601 148.246C32.5801 147.736 33.3101 147.096 33.8401 146.326C34.3701 145.566 34.6401 144.726 34.6701 143.816C34.6901 142.906 34.4701 142.026 34.0001 141.176C33.2701 139.876 32.2501 139.056 30.9301 138.716C29.6101 138.376 28.1801 138.636 26.6501 139.486C25.8201 139.936 25.1501 140.536 24.6201 141.296Z" fill="#8A8177"/>
<path d="M35.3599 161.826L41.8799 155.646L37.4599 164.046L38.3299 164.956L46.8499 161.106L40.4399 167.186L41.3699 168.166L49.0299 160.896L47.7399 159.536L40.6699 162.756C39.9599 163.086 39.4199 163.336 39.0599 163.516C39.2399 163.206 39.4999 162.726 39.8499 162.076L43.5499 155.116L42.0999 153.586L34.4399 160.856L35.3599 161.826Z" fill="#8A8177"/>
<path d="M57.9201 171.596C58.4901 171.166 59.0101 170.696 59.4901 170.206C59.3201 170.776 59.1401 171.526 58.9401 172.456L58.2901 175.516L55.2701 173.586L57.9201 171.596ZM51.6201 176.396L54.3201 174.326L58.0401 176.706L57.3601 180.066L58.7001 180.926L60.7401 169.706L59.4701 168.896L50.3701 175.606L51.6201 176.396Z" fill="#8A8177"/>
<path d="M71.77 186.836L75.09 178.136L78.35 179.376L78.8 178.216L70.98 175.226L70.53 176.396L73.78 177.636L70.46 186.336L71.77 186.836Z" fill="#8A8177"/>
<path d="M88.6398 182.666C89.4398 182.096 90.3398 181.886 91.3098 182.036C91.9998 182.136 92.5898 182.406 93.0998 182.836C93.5998 183.266 93.9498 183.826 94.1398 184.496C94.3298 185.176 94.3698 185.936 94.2398 186.786C94.0398 188.126 93.5498 189.116 92.7698 189.746C91.9898 190.376 91.0798 190.616 90.0398 190.466C89.0198 190.316 88.2198 189.826 87.6498 189.006C87.0798 188.186 86.8898 187.146 87.0698 185.886C87.3098 184.296 87.8298 183.226 88.6398 182.666ZM85.8698 188.336C86.1498 189.216 86.6398 189.956 87.3398 190.546C88.0398 191.136 88.8898 191.506 89.8698 191.646C90.7798 191.776 91.6598 191.686 92.4998 191.376C93.3498 191.066 94.0498 190.516 94.5998 189.746C95.1498 188.976 95.5098 188.056 95.6598 186.996C95.8198 185.956 95.7498 184.986 95.4698 184.106C95.1898 183.226 94.6898 182.496 93.9798 181.916C93.2698 181.336 92.4398 180.986 91.4798 180.836C90.0098 180.616 88.7298 180.926 87.6598 181.776C86.5898 182.626 85.9198 183.906 85.6598 185.636C85.5198 186.556 85.5898 187.456 85.8698 188.336Z" fill="#8A8177"/>
<path d="M107.33 189.256C107.41 190.136 107.38 190.706 107.24 190.956C107.1 191.206 106.88 191.346 106.56 191.376C106.4 191.386 106.2 191.356 105.96 191.286L105.83 192.546C106.27 192.626 106.64 192.646 106.95 192.616C107.46 192.576 107.86 192.396 108.17 192.076C108.47 191.766 108.66 191.346 108.71 190.826C108.77 190.306 108.75 189.496 108.65 188.396L108.17 182.976L111.97 182.636L112.8 191.916L114.19 191.796L113.25 181.276L106.66 181.866L107.33 189.256Z" fill="#8A8177"/>
<path d="M126.7 180.376C127.15 179.506 127.85 178.906 128.79 178.586C129.45 178.366 130.1 178.326 130.74 178.476C131.38 178.626 131.95 178.966 132.43 179.476C132.91 179.986 133.29 180.646 133.57 181.466C134.01 182.756 134.03 183.856 133.62 184.776C133.22 185.696 132.52 186.326 131.52 186.666C130.54 186.996 129.61 186.926 128.73 186.456C127.85 185.986 127.2 185.146 126.79 183.946C126.27 182.446 126.24 181.256 126.7 180.376ZM126.84 186.686C127.49 187.346 128.26 187.766 129.16 187.966C130.06 188.166 130.97 188.106 131.91 187.786C132.78 187.486 133.52 187.006 134.12 186.336C134.73 185.666 135.1 184.866 135.24 183.926C135.38 182.986 135.27 182.006 134.92 180.996C134.58 179.996 134.08 179.166 133.42 178.516C132.76 177.856 131.99 177.436 131.1 177.256C130.21 177.066 129.3 177.136 128.38 177.446C126.97 177.926 125.98 178.786 125.41 180.036C124.84 181.276 124.84 182.726 125.41 184.386C125.72 185.266 126.19 186.036 126.84 186.686Z" fill="#8A8177"/>
<path d="M147.71 180.486L148.9 179.746L143.98 171.836L148.6 168.976L147.94 167.916L142.14 171.516L147.71 180.486Z" fill="#8A8177"/>
<path d="M162.94 169.516L163.94 168.536L162.08 158.646L167.94 164.586L168.84 163.696L161.43 156.176L160.43 157.166L162.3 167.066L156.43 161.116L155.53 162.006L162.94 169.516Z" fill="#8A8177"/>
<path d="M172.71 142.596L170.94 145.436C170.53 146.096 170.36 146.676 170.44 147.146C170.52 147.626 170.77 147.996 171.2 148.256C171.49 148.436 171.81 148.526 172.15 148.516C172.5 148.506 172.82 148.386 173.12 148.156C173.42 147.916 173.74 147.536 174.08 146.986L175.67 144.436L172.71 142.596ZM180.68 147.566L176.7 145.086L175.84 146.466C175.65 146.776 175.53 146.996 175.47 147.156C175.4 147.366 175.37 147.596 175.37 147.846C175.37 148.096 175.45 148.416 175.59 148.826C175.74 149.226 175.97 149.766 176.29 150.446L177.42 152.796L176.49 154.286L175.02 151.206C174.74 150.596 174.54 150.026 174.44 149.476C174.39 149.226 174.39 148.896 174.44 148.486C173.79 149.276 173.11 149.736 172.42 149.876C171.73 150.016 171.06 149.886 170.43 149.496C169.94 149.186 169.56 148.786 169.31 148.286C169.06 147.786 168.98 147.276 169.08 146.756C169.18 146.236 169.48 145.586 169.97 144.786L172.45 140.816L181.41 146.396L180.68 147.566Z" fill="#8A8177"/>
<path d="M201.17 129.986C216.12 75.7265 184.25 19.6264 129.99 4.68644C75.7399 -10.2636 19.6399 21.6064 4.68986 75.8664C-10.2601 130.126 21.6099 186.226 75.8699 201.166C130.12 216.116 186.22 184.246 201.17 129.986ZM160.75 121.996C169.67 89.6164 150.65 56.1364 118.27 47.2164C85.8899 38.2964 52.4099 57.3164 43.4899 89.6964C34.5699 122.076 53.5899 155.556 85.9699 164.476C118.36 173.386 151.83 154.366 160.75 121.996Z" stroke="#8A8177" stroke-width="1.1886" stroke-miterlimit="10"/>
</svg>
