<svg width="24" height="24" viewBox="0 0 24 24" fill="none" xmlns="http://www.w3.org/2000/svg">
<g clip-path="url(#clip0_237_570)">
<path d="M16.4598 23.88C16.2598 23.88 15.9598 23.78 15.7598 23.78C14.5598 23.58 13.4598 23.08 12.3598 22.58C9.85978 21.38 7.55978 19.68 5.65978 17.58C3.75978 15.48 2.15978 13.18 1.15978 10.58C0.759783 9.57997 0.559783 8.67997 0.459783 7.57997C0.359783 6.37997 0.659783 5.37997 1.55978 4.57997C2.15978 3.97997 2.75978 3.27997 3.45978 2.67997C4.25978 1.97997 5.45978 1.97997 6.25978 2.67997C6.65978 3.07997 7.05978 3.47997 7.45978 3.97997C8.15978 4.57997 8.75978 5.17997 9.45978 5.87997C10.1598 6.67997 10.1598 7.87997 9.45978 8.67997C8.85978 9.27997 8.25978 9.87997 7.65978 10.48C7.85978 10.78 8.05978 11.18 8.25978 11.48C9.45978 13.28 11.0598 14.88 12.9598 16.08C13.1598 16.28 13.4598 16.38 13.7598 16.48C13.8598 16.58 13.9598 16.48 14.0598 16.48C14.5598 15.98 15.0598 15.48 15.6598 14.98C16.6598 14.08 17.7598 14.08 18.6598 14.98C19.6598 15.98 20.6598 16.98 21.6598 17.98C22.3598 18.78 22.3598 19.98 21.6598 20.78C21.3598 21.08 21.1598 21.38 20.8598 21.68C20.4598 22.08 20.0598 22.58 19.5598 22.98C19.0598 23.48 18.4598 23.68 17.7598 23.78H17.6598C17.1598 23.88 16.8598 23.88 16.4598 23.88ZM1.75978 7.27997C1.75978 8.17997 1.95978 9.17997 2.35978 10.08C3.35978 12.58 4.85978 14.78 6.65978 16.68C8.45978 18.58 10.4598 20.18 12.8598 21.28C14.0598 21.88 15.2598 22.38 16.6598 22.48C17.4598 22.58 18.2598 22.38 18.7598 21.78C19.2598 21.28 19.7598 20.78 20.2598 20.28C20.3598 20.18 20.3598 20.08 20.4598 20.08C20.7598 19.68 20.7598 19.18 20.4598 18.88C20.0598 18.48 19.6598 18.08 19.3598 17.68C18.7598 17.08 18.2598 16.58 17.6598 15.98C17.2598 15.58 16.8598 15.58 16.4598 15.98C16.3598 16.08 16.2598 16.08 16.2598 16.18C15.7598 16.68 15.2598 17.18 14.6598 17.78C14.2598 18.18 13.8598 18.18 13.4598 17.98C13.1598 17.78 12.8598 17.68 12.5598 17.48C11.1598 16.68 9.95978 15.58 8.85978 14.38C7.95978 13.38 7.05978 12.28 6.55978 10.98C6.15978 10.38 6.25978 9.97997 6.65978 9.57997C7.15978 9.07997 7.65978 8.57997 8.15978 8.07997C8.75978 7.47997 8.75978 7.07997 8.15978 6.47997C7.35978 5.57997 6.45978 4.77997 5.65978 3.97997C5.05978 3.37997 4.65978 3.47997 4.05978 3.97997C3.55978 4.37997 3.05978 4.87997 2.65978 5.37997C2.05978 5.87997 1.75978 6.57997 1.75978 7.27997Z" fill="white"/>
<path d="M23.4599 11.28C23.2599 11.68 23.0599 11.88 22.7599 11.78C22.4599 11.78 22.1599 11.58 22.1599 11.18C21.9599 9.87999 21.4599 8.57999 20.7599 7.47999C19.7599 5.87999 18.5599 4.57999 16.9599 3.67999C15.8599 2.97999 14.5599 2.47999 13.2599 2.27999C12.8599 2.17999 12.6599 1.97999 12.5599 1.67999C12.4599 1.17999 12.8599 0.779989 13.3599 0.879989C15.7599 1.37999 17.8599 2.37999 19.6599 4.07999C21.4599 5.77999 22.6599 7.77999 23.1599 10.18C23.2599 10.48 23.2599 10.78 23.3599 11.08C23.4599 11.08 23.4599 11.18 23.4599 11.28Z" fill="white"/>
<path d="M13.0598 4.97998C13.6598 5.17998 14.2598 5.27998 14.7598 5.57998C17.0598 6.57998 18.4598 8.27998 19.1598 10.68C19.2598 10.88 19.2598 11.08 19.2598 11.28C19.2598 11.68 19.0598 11.98 18.7598 11.98C18.3598 12.08 18.0598 11.88 17.9598 11.48C17.8598 11.08 17.7598 10.78 17.6598 10.38C16.7598 8.17998 15.1598 6.77998 12.8598 6.37998C12.5598 6.27998 12.3598 6.07998 12.2598 5.77998C12.2598 5.47998 12.4598 5.17998 12.6598 5.07998C12.8598 5.07998 12.9598 5.07998 13.0598 4.97998Z" fill="white"/>
</g>
<defs>
<clipPath id="clip0_237_570">
<rect width="23" height="23" fill="white" transform="translate(0.459961 0.880005)"/>
</clipPath>
</defs>
</svg>
