<svg width="37" height="51" viewBox="0 0 37 51" fill="none" xmlns="http://www.w3.org/2000/svg">
<path d="M34.7997 18.4C35.3997 16.8 35.8997 15.3 35.9997 13.9C36.1997 12.4 36.1997 11 35.9997 9.60005C35.7997 8.20005 35.3997 6.80005 34.8997 5.50005C34.8997 5.50005 34.8997 5.50005 34.8997 5.40005C34.3997 4.20005 33.7997 3.10005 33.1997 1.90005C32.7997 1.80005 32.3997 1.70005 31.9997 1.70005C31.0997 1.60005 30.0997 1.50005 29.0997 1.50005C27.3997 1.50005 25.7997 1.70005 24.3997 2.00005C22.9997 2.40005 21.5997 2.90005 20.3997 3.60005C20.1997 3.70005 19.3997 4.20005 18.7997 4.60005C18.2997 4.20005 17.7997 3.90005 17.2997 3.60005C16.0997 2.90005 14.7997 2.30005 13.2997 1.90005C11.8997 1.50005 10.2997 1.30005 8.59967 1.30005C7.59967 1.30005 6.59967 1.40005 5.69967 1.50005C5.29967 1.60005 4.89967 1.60005 4.49967 1.70005C3.79967 2.90005 3.19967 4.10005 2.69967 5.20005C2.69967 5.20005 2.69967 5.20005 2.69967 5.30005C2.09967 6.70005 1.69967 8.10005 1.49967 9.40005C1.29967 10.8 1.29967 12.2 1.39967 13.7C1.59967 15.2 1.99967 16.7 2.59967 18.3C3.19967 19.9 3.99967 21.3001 4.89967 22.4001C4.99967 22.5001 5.09967 22.7 5.19967 22.8C4.89967 23.2 4.59967 23.7 4.29967 24.1C3.49967 25.4 2.89967 26.7 2.49967 28.1C2.09967 29.4 1.79967 30.9 1.79967 32.3C1.79967 33.8 1.89967 35.3 2.29967 37C2.69967 38.6 3.19967 40.1001 3.89967 41.4001C4.59967 42.7001 5.39967 43.9001 6.39967 44.9001C7.39967 45.9001 8.49967 46.9001 9.79967 47.7001C10.6997 48.3 13.0997 49.4001 14.0997 49.9001L14.1997 50.1L14.8997 49.5L14.7997 49.4001C14.0997 48.2001 13.4997 46.9 13.1997 45.6C12.8997 44.3 12.6997 43 12.5997 41.7001C12.5997 40.4001 12.6997 39.1 12.8997 37.8C13.2997 35.2001 14.1997 32.6 15.2997 30.2001C15.4997 29.9001 15.5997 29.6 15.7997 29.3C15.9997 29 16.0997 28.7001 16.2997 28.4001C16.5997 27.9001 16.9997 27.3 17.3997 26.8C17.5997 26.6 18.2997 25.8 18.6997 25.5C19.0997 25.9 19.4997 26.4 19.7997 26.8C20.1997 27.3 20.4997 27.8001 20.8997 28.4001C21.0997 28.7001 21.1997 29 21.3997 29.3C21.5997 29.6 21.6997 29.9001 21.8997 30.2001C22.9997 32.6 23.8997 35.2001 24.2997 37.8C24.4997 39.1 24.5997 40.4001 24.5997 41.7001C24.5997 43 24.3997 44.3 23.9997 45.6C23.6997 46.9 23.0997 48.2001 22.3997 49.4001L22.2997 49.5L22.9997 50.1C23.9997 49.6 26.4997 48.3 27.3997 47.8C28.6997 47 29.7997 46.1 30.7997 45C31.7997 44 32.5997 42.8 33.2997 41.5C33.9997 40.2001 34.4997 38.7 34.8997 37.1C35.2997 35.5 35.4997 33.9001 35.3997 32.4001C35.3997 30.9001 35.0997 29.5 34.6997 28.2001C34.2997 26.9001 33.6997 25.5 32.8997 24.2001C32.5997 23.8001 32.2997 23.3001 31.9997 22.9001C32.0997 22.8001 32.1997 22.6 32.2997 22.5C33.3997 21.4 34.0997 20 34.7997 18.4Z" fill="white"/>
<path d="M34.8 18.4001C35.4 16.8001 35.9 15.3001 36 13.9001C36.2 12.4001 36.2 11.0001 36 9.6001C35.8 8.2001 35.4 6.8001 34.9 5.5001C34.9 5.5001 34.9 5.5001 34.9 5.4001C34.4 4.2001 33.8 3.1001 33.2 1.9001C32.8 1.8001 32.4 1.7001 32 1.7001C31.1 1.6001 30.1 1.5001 29.1 1.5001C27.4 1.5001 25.8 1.7001 24.4 2.0001C23 2.4001 21.6 2.9001 20.4 3.6001C20.1 3.8001 19.9 3.9001 19.6 4.1001C20.2 4.6001 20.8 5.1001 21.4 5.6001C21.5 5.7001 21.6 5.8001 21.6 5.8001C22.7 5.4001 23.9 5.2001 25.1 5.0001C27.7 4.6001 30.4 4.6001 33.1 5.0001H33.2C33.2 5.1001 33.3 5.3001 33.3 5.4001C33.5 6.7001 33.6 8.0001 33.6 9.3001C33.5 10.6001 33.3 11.9001 33 13.2001C32.4 15.6001 31.5 18.0001 30.2 20.1001C30.1 20.2001 30 20.4001 30 20.5001C29.9 20.7001 29.8 20.8001 29.7 21.0001C30.3 21.9001 30.9 22.9001 31.3 23.9001C31.4 24.1001 31.5 24.3001 31.5 24.5001C31.9 25.8001 32.2 27.1001 32.4 28.3001C32.5 29.6001 32.5 30.9001 32.4 32.2001C32.2 34.9001 31.5 37.5001 30.6 40.0001C30.1 41.2001 29.5 42.4001 28.8 43.5001C28.1 44.6001 27.3 45.6001 26.3 46.5001C25.8 47.4001 25.3 48.2001 24.8 49.1001C25.8 48.6001 26.7 48.1001 27.6 47.5001C28.9 46.7001 30 45.8001 31 44.7001C32 43.7001 32.8 42.5001 33.5 41.2001C34.2 39.9001 34.7 38.4001 35.1 36.8001C35.5 35.2001 35.7 33.6001 35.6 32.1001C35.6 30.6001 35.3 29.2001 34.9 27.9001C34.5 26.6001 33.9 25.2001 33.1 23.9001C32.8 23.5001 32.5 23.0001 32.2 22.6001C32.3 22.5001 32.4 22.3001 32.5 22.2001C33.4 21.3001 34.1 19.9001 34.8 18.4001ZM27.1 41.8001C27.4 40.4001 27.5 39.0001 27.5 37.5001C27.4 36.0001 27.1 34.5001 26.6 32.9001C26.1 31.3001 25.4 29.8001 24.7 28.6001C24.6 28.5001 24.5 28.4001 24.5 28.3001C24.2 27.9001 24 27.5001 23.7 27.2001C23.2 26.5001 22.6 25.9001 22 25.4001C21.5 24.9001 20.9 24.5001 20.3 24.0001C21.3 23.2001 22.5 22.4001 23.8 21.9001L23.9 21.8001L23.6 20.9001L23.4 21.0001C21.8 21.6001 20.3 22.2001 19 22.9001C18.9 23.0001 18.8 23.0001 18.7 23.1001C18.6 23.0001 18.5 23.0001 18.4 22.9001C17.1 22.2001 15.6 21.5001 14 21.0001L13.8 20.9001L13.5 21.8001L13.6 21.9001C14.9 22.5001 16.1 23.2001 17.1 24.1001C18.1 25.0001 19 25.9001 19.8 27.0001C20.2 27.5001 20.5 28.0001 20.9 28.6001C21.1 28.9001 21.2 29.2001 21.4 29.5001C21.6 29.8001 21.7 30.1001 21.9 30.5001C23 32.9001 23.9 35.5001 24.3 38.1001C24.5 39.4001 24.6 40.7001 24.6 42.0001C24.6 43.3001 24.4 44.6001 24 45.9001C23.7 47.2001 23.1 48.5001 22.4 49.7001L22.3 49.8001L23 50.4001L23.1 50.2001C24.1 48.8001 24.9 47.5001 25.6 46.1001C26.3 44.5001 26.8 43.2001 27.1 41.8001ZM11.1 46.7001C10.1 45.8001 9.29996 44.7001 8.59996 43.6001C7.89996 42.5001 7.29996 41.3001 6.79996 40.1001C5.79996 37.6001 5.19996 35.0001 4.99996 32.3001C4.89996 31.0001 4.89996 29.7001 4.99996 28.4001C5.09996 27.1001 5.39996 25.8001 5.89996 24.6001C5.99996 24.4001 6.09996 24.2001 6.09996 24.0001C6.49996 23.0001 6.99996 22.0001 7.69996 21.1001C7.59996 20.9001 7.49996 20.8001 7.39996 20.6001C7.29996 20.5001 7.19996 20.3001 7.19996 20.1001C5.99996 17.9001 5.09996 15.6001 4.49996 13.1001C4.19996 11.8001 3.99996 10.5001 3.89996 9.2001C3.79996 7.9001 3.89996 6.6001 4.19996 5.3001C4.19996 5.2001 4.29996 5.0001 4.29996 4.9001H4.39996C6.99996 4.5001 9.69996 4.5001 12.4 4.9001C13.7 5.1001 15 5.4001 16.2 5.8001C16.4 5.9001 16.6 5.9001 16.7 6.0001C16.7 6.0001 16.7 6.0001 16.6 6.1001C15.5 7.1001 14.5 8.3001 13.5 9.7001L13.4 9.8001L14.2 10.3001L14.3 10.2001C15.2 9.1001 16.3 8.2001 17.4 7.5001C17.8 7.3001 18.2 7.0001 18.6 6.8001C19 7.0001 19.4 7.2001 19.7 7.5001C20.8 8.2001 21.9 9.1001 22.8 10.2001L22.9 10.3001L23.7 9.8001L23.6 9.7001C22.6 8.4001 21.5 7.1001 20.5 6.1001C19.4 5.1001 18.3 4.2001 17.1 3.4001C15.9 2.7001 14.6 2.1001 13.1 1.7001C11.7 1.3001 10.1 1.1001 8.39996 1.1001C7.39996 1.1001 6.39996 1.2001 5.49996 1.3001C5.09996 1.4001 4.69996 1.4001 4.29996 1.5001C3.59996 2.7001 2.99996 3.9001 2.49996 5.0001C2.49996 5.0001 2.49996 5.0001 2.49996 5.1001C1.89996 6.5001 1.49996 7.9001 1.29996 9.2001C1.09996 10.6001 1.09996 12.0001 1.19996 13.5001C1.39996 15.0001 1.79996 16.5001 2.39996 18.1001C2.99996 19.7001 3.79996 21.1001 4.69996 22.2001C4.79996 22.3001 4.89996 22.5001 4.99996 22.6001C4.69996 23.0001 4.39996 23.5001 4.09996 23.9001C3.29996 25.2001 2.69996 26.5001 2.29996 27.9001C1.89996 29.2001 1.59996 30.7001 1.59996 32.1001C1.59996 33.6001 1.69996 35.1001 2.09996 36.8001C2.49996 38.4001 2.99996 39.9001 3.69996 41.2001C4.39996 42.5001 5.19996 43.7001 6.19996 44.7001C7.19996 45.7001 8.29996 46.7001 9.59996 47.5001C10.5 48.1001 11.4 48.6001 12.4 49.1001C12.1 48.5001 11.6 47.6001 11.1 46.7001ZM16.7 24.6001C16.6 24.5001 16.6 24.5001 16.5 24.4001C16.2 24.7001 15.8 24.9001 15.5 25.2001C14.9 25.8001 14.3 26.4001 13.8 27.0001C13.5 27.4001 13.2 27.7001 13 28.1001C12.9 28.2001 12.8 28.3001 12.8 28.4001C12 29.6001 11.4 31.1001 10.8 32.7001C10.3 34.3001 9.99996 35.9001 9.89996 37.3001C9.79996 38.8001 9.89996 40.2001 10.3 41.6001C10.6 43.0001 11.1 44.4001 11.8 45.7001C12.5 47.0001 13.3 48.4001 14.3 49.8001L14.4 50.0001L15.1 49.4001L15 49.3001C14.3 48.1001 13.7 46.8001 13.4 45.5001C13.1 44.2001 12.9 42.9001 12.8 41.6001C12.8 40.3001 12.9 39.0001 13.1 37.7001C13.5 35.1001 14.4 32.5001 15.5 30.1001C15.7 29.8001 15.8 29.5001 16 29.2001C16.2 28.9001 16.3 28.6001 16.5 28.3001C16.8 27.8001 17.2 27.2001 17.6 26.7001C17.8 26.4001 18 26.2001 18.2 25.9001C17.7 25.5001 17.2 25.1001 16.7 24.6001Z" stroke="#96744A" stroke-width="0.5" stroke-miterlimit="10"/>
</svg>
