<svg width="77" height="66" viewBox="0 0 77 66" fill="none" xmlns="http://www.w3.org/2000/svg">
<g clip-path="url(#clip0_295_2007)">
<path d="M37.19 66.0004H1.09168C0.509452 66.0004 0 65.4904 0 64.9077V4.58979C0 4.007 0.509452 3.49707 1.09168 3.49707H11.8629C12.4452 3.49707 12.9546 4.007 12.9546 4.58979C12.9546 5.17257 12.4452 5.6825 11.8629 5.6825H2.18336V63.8149H37.19C37.7722 63.8149 38.2817 64.3249 38.2817 64.9077C38.3544 65.4904 37.845 66.0004 37.19 66.0004Z" fill="#333333"/>
<path d="M50.6542 18.5037C50.072 18.5037 49.5625 17.9938 49.5625 17.411V5.6825H39.9557C39.3735 5.6825 38.864 5.17257 38.864 4.58979C38.864 4.007 39.3735 3.49707 39.9557 3.49707H50.727C51.3092 3.49707 51.8186 4.007 51.8186 4.58979V17.411C51.7459 17.9938 51.3092 18.5037 50.6542 18.5037Z" fill="#333333"/>
<path d="M12.9546 23.0931H9.75233C9.1701 23.0931 8.66064 22.5832 8.66064 22.0004V16.901C8.66064 15.5898 9.75233 14.4971 11.0623 14.4971H12.9546C15.2835 14.4971 17.2485 16.3911 17.2485 18.7951C17.2485 21.1991 15.3563 23.0931 12.9546 23.0931ZM10.9168 20.9077H12.9546C14.1191 20.9077 14.9924 19.9606 14.9924 18.8679C14.9924 17.7024 14.0463 16.8282 12.9546 16.8282H11.0623C10.9896 16.8282 10.9168 16.901 10.9168 16.9739V20.9077Z" fill="#96744A"/>
<path d="M9.82508 29.5036C9.24285 29.5036 8.7334 28.9937 8.7334 28.4109V22.0732C8.7334 21.4904 9.24285 20.9805 9.82508 20.9805C10.4073 20.9805 10.9168 21.4904 10.9168 22.0732V28.4109C10.9168 28.9937 10.4073 29.5036 9.82508 29.5036Z" fill="#96744A"/>
<path d="M13.7553 34.7492C13.5369 34.7492 13.2458 34.6763 13.0275 34.4578C12.5908 34.0935 12.518 33.3651 12.8819 32.928L21.2515 22.875C21.6154 22.4379 22.3432 22.3651 22.7798 22.7293C23.2165 23.0935 23.2893 23.822 22.9254 24.2591L14.6286 34.3849C14.4103 34.6763 14.0464 34.7492 13.7553 34.7492Z" fill="#96744A"/>
<path d="M22.1247 34.7491C21.8336 34.7491 21.4697 34.6034 21.2514 34.312L11.7174 22.8021C11.3535 22.365 11.4263 21.6365 11.8629 21.2723C12.2996 20.908 13.0274 20.9809 13.3913 21.418L22.9981 33.0008C23.362 33.4378 23.2892 34.1663 22.8525 34.5306C22.6342 34.6763 22.4159 34.7491 22.1247 34.7491Z" fill="#96744A"/>
<path d="M35.516 9.17881H16.3024C15.7201 9.17881 15.2107 8.66887 15.2107 8.08609V1.09272C15.2107 0.509934 15.7201 0 16.3024 0H35.516C36.0982 0 36.6077 0.509934 36.6077 1.09272V8.01324C36.6077 8.66887 36.0982 9.17881 35.516 9.17881ZM17.3941 6.92053H34.4243V2.18543H17.3941V6.92053Z" fill="#333333"/>
<path d="M46.4329 65.9999C46.3601 65.9999 46.2873 65.9999 46.2873 65.9999C43.8129 65.927 41.775 64.3244 41.1928 61.8475L39.0094 52.7416C38.1361 49.0992 36.8989 45.384 35.1522 41.3773C33.9149 38.4634 33.1871 34.1654 33.4783 31.4701C33.9877 26.0065 38.5728 21.6356 44.3951 20.98C48.4707 20.5429 52.4008 21.8542 55.1664 24.6224C57.9319 21.8542 61.862 20.5429 65.9376 20.98C71.5416 21.5628 76.1994 25.7879 76.9272 30.9601C77.3639 33.874 76.5633 38.3177 75.1077 41.523C73.2883 45.4568 71.9055 49.8277 70.8138 54.8542L69.3582 61.3376C68.8488 63.8144 66.811 65.4899 64.3365 65.5628C61.7892 65.7085 59.6786 64.1787 58.9508 61.7747L57.4225 56.8211C56.9858 55.8012 56.0397 55.3641 55.2391 55.3641C54.4386 55.3641 53.4924 55.8012 53.2013 56.8939L51.6002 62.1389C50.8724 64.5429 48.8346 65.9999 46.4329 65.9999ZM45.9234 23.0926C45.4868 23.0926 45.0501 23.0926 44.6134 23.1654C39.81 23.6754 36.0255 27.2449 35.5161 31.6158C35.2977 33.6555 35.8072 37.5164 37.0444 40.4303C38.7911 44.5826 40.1011 48.4436 41.0473 52.1588L43.2306 61.2648C43.6673 63.0131 45.0501 63.6687 46.2873 63.7416C47.4518 63.7416 48.9074 63.2317 49.4168 61.4833L51.018 56.2383C51.6002 54.3442 53.2013 53.1058 55.1664 53.1058C57.1314 53.1058 58.7325 54.3442 59.3147 56.1654L60.8431 61.1191C61.3525 62.8674 62.8081 63.3773 64.0454 63.3773C65.2098 63.3045 66.6654 62.6489 67.0293 60.8277L68.4849 54.3442C69.6493 49.172 71.1049 44.6555 72.9244 40.576C74.1616 37.8078 74.8894 33.7283 74.5255 31.2515C73.9433 27.0264 70.086 23.6025 65.5009 23.0926C61.862 22.8012 58.2958 24.1853 56.0397 26.9535C55.603 27.4634 54.7297 27.4634 54.293 26.9535C52.328 24.5495 49.2713 23.0926 45.9234 23.0926Z" fill="#96744A"/>
<path d="M52.9102 31.3974C52.7647 31.3974 52.6919 31.3974 52.5463 31.3246C51.9641 31.1061 51.673 30.5233 51.8913 29.9405C52.6919 27.5365 54.293 25.6425 54.3658 25.5696C54.8025 25.1325 55.4575 25.0597 55.8942 25.4968C56.3308 25.861 56.4036 26.5895 55.967 27.0266C55.967 27.0994 54.5842 28.7021 53.8564 30.669C53.7836 31.1061 53.3469 31.3974 52.9102 31.3974Z" fill="#96744A"/>
</g>
<defs>
<clipPath id="clip0_295_2007">
<rect width="77" height="66" fill="white"/>
</clipPath>
</defs>
</svg>
