<svg width="53" height="62" viewBox="0 0 53 62" fill="none" xmlns="http://www.w3.org/2000/svg">
<g clip-path="url(#clip0_297_2801)">
<path d="M19.2732 34.3228C19.2002 34.3228 19.2002 34.3228 19.1272 34.3228C17.1561 34.2498 15.477 32.9353 15.039 31.0366L13.36 24.172C12.7029 21.47 11.7539 18.695 10.5129 15.7009C9.56382 13.4371 8.9798 10.2239 9.19881 8.10608C9.63682 3.94353 13.214 0.511259 17.7401 0.0730968C20.8062 -0.292039 23.7264 0.73034 25.8434 2.70207C27.9605 0.73034 30.8806 -0.219012 33.9467 0.0730968C38.2539 0.511259 41.831 3.79748 42.4151 7.81397C42.7071 10.0778 42.1961 13.4371 41.028 15.8469C39.714 18.768 38.6189 21.9812 37.8159 25.7786L36.7938 30.6714C36.3558 32.6432 34.7498 33.9577 32.7787 34.1037C30.8076 34.1767 29.0556 33.0083 28.4715 31.0366L27.3035 27.3122C27.0115 26.4359 26.2084 26.3628 25.9894 26.3628C25.7704 26.3628 24.9674 26.4359 24.6754 27.3122L23.5073 31.2557C22.8503 33.1544 21.2443 34.3228 19.2732 34.3228ZM18.9082 2.19088C18.6162 2.19088 18.2511 2.19088 17.9591 2.26391C14.528 2.62904 11.7539 5.18499 11.3889 8.32516C11.2429 9.85873 11.6079 12.6338 12.4839 14.8246C13.798 17.9647 14.82 20.8128 15.477 23.6608L17.1561 30.5254C17.4481 31.6938 18.3972 32.132 19.1272 32.132C19.8572 32.132 20.8792 31.7669 21.2443 30.5984L22.4123 26.655C22.8503 25.1214 24.2374 24.099 25.8434 24.099C27.4495 24.099 28.7635 25.0484 29.2746 26.5819L30.4426 30.3063C30.8076 31.4747 31.7567 31.8399 32.5597 31.7669C33.3627 31.7669 34.3118 31.2557 34.5308 30.0872L35.6258 25.1944C36.5018 21.251 37.5969 17.8917 38.9839 14.8246C39.933 12.7798 40.444 9.7857 40.152 8.03305C39.714 5.03894 36.9399 2.55602 33.6547 2.19088C30.8806 1.89877 28.3255 2.92115 26.6465 4.89288C26.4275 5.18499 26.1354 5.33105 25.7704 5.33105C25.4054 5.33105 25.1134 5.18499 24.8944 4.89288C23.5803 3.21326 21.3173 2.19088 18.9082 2.19088Z" fill="#96744A"/>
<path d="M24.1646 8.39813C24.0186 8.39813 23.9456 8.39813 23.7996 8.32511C23.2155 8.10602 22.9235 7.52181 23.1425 6.93759C23.7266 5.11191 24.9676 3.65137 25.0406 3.57834C25.4786 3.14018 26.1357 3.06715 26.5737 3.50532C27.0117 3.87045 27.0847 4.60072 26.7197 5.03889C26.7197 5.03889 25.6976 6.20732 25.1866 7.66786C25.0406 8.10602 24.6026 8.39813 24.1646 8.39813Z" fill="#96744A"/>
<path d="M21.171 59.2254C18.3969 59.2254 15.6958 58.4221 13.3597 56.8155L1.6793 49.0747C0.000233955 47.9062 -0.510785 45.6424 0.511253 43.8897C1.46029 42.3562 3.50437 41.6989 5.18343 42.4292L20.076 48.7826C20.66 49.0016 20.879 49.6589 20.66 50.2431C20.441 50.8273 19.784 51.0464 19.2 50.8273L4.3804 44.474C3.65037 44.1818 2.84734 44.474 2.48233 45.1312C2.04431 45.8615 2.26332 46.8108 2.99335 47.322L14.6008 55.1359C16.8639 56.6695 19.565 57.3267 22.2661 57.1076L40.5898 55.428C41.1738 55.355 41.7578 55.7932 41.7578 56.4504C41.8308 57.0346 41.3928 57.6188 40.7358 57.6188L22.4121 59.1524C21.9741 59.2254 21.536 59.2254 21.171 59.2254Z" fill="#333333"/>
<path d="M21.755 51.8492C19.784 51.8492 18.1049 50.3887 17.8859 48.417C17.5939 46.3722 19.0539 44.4735 21.025 44.0353L36.7206 41.1143C38.2537 40.8221 39.7867 41.0412 41.1738 41.6985L45.3349 43.6702C45.9189 43.9623 46.138 44.6196 45.8459 45.1307C45.5539 45.715 44.8969 45.934 44.3859 45.6419L40.2247 43.6702C39.2757 43.232 38.1807 43.086 37.0856 43.3051L21.39 46.2261C20.514 46.3722 19.93 47.2485 20.003 48.1249C20.149 49.0742 20.952 49.7315 21.901 49.5854L32.5594 48.2709C33.1435 48.1979 33.7275 48.636 33.8005 49.2203C33.8735 49.8045 33.4355 50.3887 32.8515 50.4617L22.2661 51.8492C22.047 51.8492 21.901 51.8492 21.755 51.8492Z" fill="#333333"/>
<path d="M45.919 61.9999C45.773 61.9999 45.7 61.9999 45.554 61.9269L39.4218 59.6631C39.1298 59.59 38.9108 59.371 38.7648 59.0788C38.6188 58.7867 38.6188 58.4946 38.7648 58.2025L44.678 41.9175C44.897 41.3333 45.554 41.0412 46.0651 41.2602L52.1973 43.5241C52.4893 43.5971 52.7083 43.8162 52.8543 44.1083C53.0003 44.4004 53.0003 44.6925 52.8543 44.9846L46.9411 61.2697C46.7951 61.7078 46.3571 61.9999 45.919 61.9999ZM41.1739 57.9834L45.262 59.444L50.4452 45.2767L46.3571 43.8162L41.1739 57.9834Z" fill="#333333"/>
</g>
<defs>
<clipPath id="clip0_297_2801">
<rect width="53" height="62" fill="white"/>
</clipPath>
</defs>
</svg>
