<svg width="90" height="63" viewBox="0 0 90 63" fill="none" xmlns="http://www.w3.org/2000/svg">
<g clip-path="url(#clip0_295_1969)">
<path d="M47.7804 58.4949H42.9511C42.5853 58.4949 42.2926 58.3472 42.0731 58.0518C41.8536 57.7564 41.7804 57.3871 41.8536 57.0917L42.8779 53.2511H39.1462C38.7804 53.2511 38.4877 53.1034 38.2682 52.808C38.0487 52.5125 37.9755 52.1432 38.0487 51.8478L39.3658 46.9733C39.5121 46.4563 39.9511 46.1608 40.4633 46.1608H44.8536L46.0975 41.7294C46.2438 41.2124 46.6828 40.917 47.195 40.917H51.9511C52.317 40.917 52.6097 41.0647 52.8292 41.3601C53.0487 41.6556 53.1219 42.0248 53.0487 42.3203L51.9511 46.1608H55.6828C56.0487 46.1608 56.3414 46.3085 56.5609 46.604C56.7804 46.8994 56.8536 47.2687 56.7804 47.5641L55.4633 52.4387C55.317 52.9557 54.878 53.2511 54.3658 53.2511H49.9755L48.7316 57.6825C48.6584 58.1257 48.2926 58.4949 47.7804 58.4949ZM44.4145 56.2792H46.9023L48.1462 51.8478C48.2926 51.3308 48.7316 51.0354 49.2438 51.0354H53.634L54.3658 48.4504H50.4877C50.1219 48.4504 49.8292 48.3027 49.6097 48.0073C49.3901 47.7118 49.317 47.3425 49.3901 47.0471L50.4145 43.2066H47.9267L46.6828 47.638C46.5365 48.155 46.0975 48.4504 45.5853 48.4504H41.195L40.4633 51.0354H44.195C44.5609 51.0354 44.8536 51.1831 45.0731 51.4785C45.2926 51.774 45.3658 52.1433 45.2926 52.4387L44.4145 56.2792Z" fill="#96744A"/>
<path d="M26.6342 55.4665L12.8781 55.0972C12.5854 55.0972 12.2927 54.9495 12.0732 54.7279C11.8537 54.5064 11.7805 54.2109 11.7805 53.9155L12.2195 46.8252C12.2927 46.2344 12.8049 45.7174 13.3903 45.7912C13.9756 45.8651 14.4878 46.3821 14.4147 46.9729L14.0488 52.8815L26.6342 53.1769C27.2195 53.1769 27.7317 53.6939 27.7317 54.3586C27.7317 55.0234 27.2195 55.4665 26.6342 55.4665Z" fill="#333333"/>
<path d="M24.6585 63H8.19512C3.87805 63 0.292683 59.6026 0.0731707 55.1712C-0.219512 49.6319 0.365854 44.0188 1.82927 38.6272L1.90244 38.4057C2.70732 35.3037 5.26829 32.9402 8.41463 32.4233L19.8293 30.5768C20.0488 30.503 20.3415 30.5768 20.561 30.7245L26.6341 34.122L32.7073 30.7245C32.9268 30.5768 33.1463 30.5768 33.439 30.5768L41.8537 31.9801C42.439 32.054 42.878 32.6448 42.8049 33.2357C42.7317 33.8265 42.1463 34.2697 41.561 34.1958L33.5122 32.8664L27.2195 36.4115C26.8537 36.6331 26.4878 36.6331 26.122 36.4115L19.8293 32.8664L8.78049 34.7128C6.5122 35.0821 4.60976 36.7808 4.02439 39.0704L3.95122 39.2919C2.56098 44.4619 1.97561 49.7796 2.26829 55.0973C2.41463 58.2732 5.04878 60.7843 8.19512 60.7843H24.6585C25.2439 60.7843 25.7561 61.3013 25.7561 61.8922C25.7561 62.483 25.3171 63 24.6585 63Z" fill="#333333"/>
<path d="M19.9756 32.8666C19.8292 32.8666 19.6829 32.8666 19.5365 32.7928C18.9512 32.5712 18.7317 31.9065 18.9512 31.3157L19.9024 29.0999C20.1219 28.5091 20.7804 28.2875 21.3658 28.5091C21.9512 28.7307 22.1707 29.3954 21.9512 29.9862L21 32.2019C20.8536 32.5712 20.4146 32.8666 19.9756 32.8666Z" fill="#333333"/>
<path d="M33.2195 32.8666C32.7805 32.8666 32.4146 32.6451 32.1951 32.2019L31.2439 29.9862C31.0244 29.3954 31.2439 28.7307 31.8293 28.5091C32.4146 28.2875 33.0732 28.5091 33.2927 29.0999L34.2439 31.3157C34.4634 31.9065 34.2439 32.5712 33.6585 32.7928C33.5122 32.8666 33.3658 32.8666 33.2195 32.8666Z" fill="#333333"/>
<path d="M26.6342 28.7304C21.2927 28.7304 18 23.782 16.683 19.3505C15.5854 18.4642 15.1464 16.2485 15 14.9191V14.8453C14.9269 13.3681 15.2927 12.2603 16.2439 11.5956C16.1708 9.4537 16.3903 3.54514 19.5366 1.99415L19.6098 1.92029C20.122 0.88629 20.8537 0.295435 23.3415 6.79493e-06C26.4878 -0.295421 30.8049 0.369292 33.1464 2.21572L33.2195 2.28957C34.683 3.47128 37.0976 5.46542 37.0244 11.6694C37.9025 12.3341 38.3415 13.442 38.2683 14.9191C38.122 16.2485 37.683 18.3904 36.6586 19.3505C35.4147 24.0035 32.1952 28.7304 26.6342 28.7304ZM18.0732 17.6518C18.3659 17.7995 18.6586 18.095 18.7317 18.3904C19.683 22.1571 22.3171 26.5147 26.6342 26.5147C32.2683 26.5147 34.0976 20.3107 34.6098 18.3904C34.683 18.0211 34.9025 17.7995 35.2683 17.6518C35.561 17.3564 35.9269 15.9531 36.0732 14.6975C36.1464 13.5897 35.7805 13.442 35.4878 13.3681C35.0488 13.2204 34.7561 12.7773 34.7561 12.2603C34.9756 6.64713 33.0732 5.02228 31.8293 3.98828L31.7561 3.91443C30.2195 2.65886 26.561 1.92029 23.6342 2.28957C21.8781 2.51114 21.7317 2.80657 21.6586 2.95429C21.4391 3.24971 21.2195 3.76671 20.4878 4.136C18.6586 5.02228 18.3659 10.0446 18.4391 12.2603C18.4391 12.7773 18.2195 13.2204 17.7073 13.3681C17.4147 13.442 17.122 13.5897 17.1952 14.7714C17.4147 16.027 17.7805 17.3564 18.0732 17.6518Z" fill="#333333"/>
<path d="M35.5609 9.08456C35.0487 9.08456 34.6097 8.71527 34.4633 8.19827C34.3902 7.75513 34.1706 7.4597 33.7316 7.23813C32.4145 6.49956 29.6341 6.72113 26.1219 7.82899C22.9024 8.86299 20.4877 8.86299 18.9511 7.68127C17.4877 6.57342 17.4146 4.94857 17.4146 4.727C17.4146 4.13614 17.9267 3.61914 18.5121 3.61914C19.0975 3.61914 19.6097 4.13614 19.6097 4.727C19.6097 4.80085 19.6828 5.46556 20.2682 5.90871C20.7804 6.27799 22.1707 6.79499 25.5365 5.76099C28.4633 4.80085 32.4877 3.98843 34.9024 5.39171C35.7804 5.90871 36.4389 6.72113 36.6585 7.75513C36.8048 8.34599 36.4389 8.93684 35.8536 9.08456C35.7072 9.08456 35.6341 9.08456 35.5609 9.08456Z" fill="#333333"/>
<path d="M62.3416 62.9998H24.6586C24.2928 62.9998 24.0001 62.8521 23.7806 62.5566C23.5611 62.2612 23.4879 61.8919 23.6342 61.5965L31.244 36.8544C31.3903 36.4113 31.8294 36.042 32.2684 36.042H49.244C49.8294 36.042 50.3416 36.559 50.3416 37.1498C50.3416 37.7407 49.8294 38.2577 49.244 38.2577H33.0733L26.1952 60.7841H61.4635L66.0001 44.7571C66.1464 44.1663 66.805 43.797 67.3903 44.0185C67.9757 44.1663 68.3416 44.831 68.122 45.4218L63.366 62.2612C63.2196 62.7044 62.7806 62.9998 62.3416 62.9998Z" fill="#333333"/>
<path d="M65.561 30.1339C65.3415 30.1339 65.1219 30.06 64.9024 29.9123L45.9512 16.1011C45.5854 15.8056 45.439 15.3625 45.5122 14.9193C45.6585 14.4762 46.0244 14.1069 46.5366 14.1069L69.8049 12.4082C70.0976 12.4082 70.3171 12.4821 70.5366 12.6298L89.4878 26.441C89.8537 26.7365 90 27.1796 89.9268 27.6227C89.7805 28.0659 89.4146 28.4352 88.9024 28.4352L65.6341 30.1339C65.6341 30.1339 65.6341 30.1339 65.561 30.1339ZM49.7561 16.1011L65.9268 27.8443L85.7561 26.3672L69.5854 14.6239L49.7561 16.1011Z" fill="#96744A"/>
<path d="M68.7806 41.4341C61.9025 41.4341 55.244 38.406 50.7074 32.9406C50.4879 32.6452 50.4147 32.2759 50.4879 31.9066L52.3903 24.7425C52.5367 24.1516 53.122 23.7823 53.7806 23.93C54.3659 24.0777 54.7318 24.6686 54.5854 25.3333L52.8293 31.9066C58.3172 38.1844 67.0245 40.6956 75.0001 38.2583L76.7562 31.685C76.9025 31.0942 77.4879 30.7249 78.1464 30.8726C78.7318 31.0203 79.0976 31.6112 78.9513 32.2759L77.0489 39.44C76.9757 39.8093 76.683 40.1047 76.3172 40.1786C73.7562 41.0649 71.2684 41.4341 68.7806 41.4341Z" fill="#96744A"/>
<path d="M86.4147 37.1507C86.3415 37.1507 86.1952 37.1507 86.122 37.0768C85.5367 36.9291 85.1708 36.2644 85.3903 35.6735L86.9269 30.0604C87.0732 29.4695 87.7318 29.1003 88.3171 29.3218C88.9025 29.4695 89.2684 30.1343 89.0489 30.7251L87.5123 36.3382C87.3659 36.8552 86.9269 37.1507 86.4147 37.1507Z" fill="#96744A"/>
<path d="M87.0001 42.0251C86.9269 42.0251 86.7806 42.0251 86.7074 41.9512L83.122 40.9172C82.5367 40.7695 82.1708 40.1048 82.3903 39.5139C82.5367 38.9231 83.1952 38.5538 83.7806 38.7754L85.7562 39.3662L85.3903 36.1904C85.3171 35.5995 85.7562 35.0087 86.3415 34.9348C86.9269 34.861 87.5123 35.3041 87.5854 35.895L88.1708 40.7695C88.244 41.1388 88.0976 41.5081 87.805 41.7297C87.5123 41.9512 87.2928 42.0251 87.0001 42.0251Z" fill="#96744A"/>
</g>
<defs>
<clipPath id="clip0_295_1969">
<rect width="90" height="63" fill="white"/>
</clipPath>
</defs>
</svg>
