<svg width="77" height="66" viewBox="0 0 77 66" fill="none" xmlns="http://www.w3.org/2000/svg">
<g clip-path="url(#clip0_297_2225)">
<path d="M37.19 66.0004H1.09168C0.509452 66.0004 0 65.4904 0 64.9077V4.58979C0 4.007 0.509452 3.49707 1.09168 3.49707H11.8629C12.4452 3.49707 12.9546 4.007 12.9546 4.58979C12.9546 5.17257 12.4452 5.6825 11.8629 5.6825H2.18336V63.8149H37.19C37.7722 63.8149 38.2817 64.3249 38.2817 64.9077C38.3544 65.4904 37.845 66.0004 37.19 66.0004Z" fill="#333333"/>
<path d="M50.6539 18.5037C50.0717 18.5037 49.5623 17.9938 49.5623 17.411V5.6825H39.9555C39.3732 5.6825 38.8638 5.17257 38.8638 4.58979C38.8638 4.007 39.3732 3.49707 39.9555 3.49707H50.7267C51.3089 3.49707 51.8184 4.007 51.8184 4.58979V17.411C51.7456 17.9938 51.3089 18.5037 50.6539 18.5037Z" fill="#333333"/>
<path d="M12.9546 23.0931H9.75233C9.1701 23.0931 8.66064 22.5832 8.66064 22.0004V16.901C8.66064 15.5898 9.75233 14.4971 11.0623 14.4971H12.9546C15.2835 14.4971 17.2485 16.3911 17.2485 18.7951C17.2485 21.1991 15.3563 23.0931 12.9546 23.0931ZM10.9168 20.9077H12.9546C14.1191 20.9077 14.9924 19.9606 14.9924 18.8679C14.9924 17.7024 14.0463 16.8282 12.9546 16.8282H11.0623C10.9896 16.8282 10.9168 16.901 10.9168 16.9739V20.9077Z" fill="#96744A"/>
<path d="M9.82508 29.5036C9.24285 29.5036 8.7334 28.9937 8.7334 28.4109V22.0732C8.7334 21.4904 9.24285 20.9805 9.82508 20.9805C10.4073 20.9805 10.9168 21.4904 10.9168 22.0732V28.4109C10.9168 28.9937 10.4073 29.5036 9.82508 29.5036Z" fill="#96744A"/>
<path d="M13.7553 34.7492C13.5369 34.7492 13.2458 34.6763 13.0275 34.4578C12.5908 34.0935 12.518 33.3651 12.8819 32.928L21.2515 22.875C21.6154 22.4379 22.3432 22.3651 22.7798 22.7293C23.2165 23.0935 23.2893 23.822 22.9254 24.2591L14.6286 34.3849C14.4103 34.6763 14.0464 34.7492 13.7553 34.7492Z" fill="#96744A"/>
<path d="M22.1247 34.7491C21.8336 34.7491 21.4697 34.6034 21.2514 34.312L11.7174 22.8021C11.3535 22.365 11.4263 21.6365 11.8629 21.2723C12.2996 20.908 13.0274 20.9809 13.3913 21.418L22.9981 33.0008C23.362 33.4378 23.2892 34.1663 22.8525 34.5306C22.6342 34.6763 22.4159 34.7491 22.1247 34.7491Z" fill="#96744A"/>
<path d="M35.5162 9.17881H16.3026C15.7204 9.17881 15.2109 8.66887 15.2109 8.08609V1.09272C15.2109 0.509934 15.7204 0 16.3026 0H35.5162C36.0985 0 36.6079 0.509934 36.6079 1.09272V8.01324C36.6079 8.66887 36.0985 9.17881 35.5162 9.17881ZM17.3943 6.92053H34.4245V2.18543H17.3943V6.92053Z" fill="#333333"/>
<path d="M46.4326 65.9999C46.3599 65.9999 46.2871 65.9999 46.2871 65.9999C43.8126 65.927 41.7748 64.3244 41.1926 61.8475L39.0092 52.7416C38.1359 49.0992 36.8986 45.384 35.1519 41.3773C33.9147 38.4634 33.1869 34.1654 33.478 31.4701C33.9875 26.0065 38.5725 21.6356 44.3948 20.98C48.4705 20.5429 52.4005 21.8542 55.1661 24.6224C57.9317 21.8542 61.8618 20.5429 65.9374 20.98C71.5413 21.5628 76.1992 25.7879 76.927 30.9601C77.3636 33.874 76.5631 38.3177 75.1075 41.523C73.288 45.4568 71.9052 49.8277 70.8136 54.8542L69.358 61.3376C68.8485 63.8144 66.8107 65.4899 64.3362 65.5628C61.789 65.7085 59.6784 64.1787 58.9506 61.7747L57.4222 56.8211C56.9856 55.8012 56.0395 55.3641 55.2389 55.3641C54.4383 55.3641 53.4922 55.8012 53.2011 56.8939L51.5999 62.1389C50.8722 64.5429 48.8343 65.9999 46.4326 65.9999ZM45.9232 23.0926C45.4865 23.0926 45.0498 23.0926 44.6132 23.1654C39.8098 23.6754 36.0253 27.2449 35.5158 31.6158C35.2975 33.6555 35.8069 37.5164 37.0442 40.4303C38.7909 44.5826 40.1009 48.4436 41.047 52.1588L43.2304 61.2648C43.6671 63.0131 45.0498 63.6687 46.2871 63.7416C47.4515 63.7416 48.9071 63.2317 49.4166 61.4833L51.0177 56.2383C51.5999 54.3442 53.2011 53.1058 55.1661 53.1058C57.1311 53.1058 58.7323 54.3442 59.3145 56.1654L60.8428 61.1191C61.3523 62.8674 62.8079 63.3773 64.0451 63.3773C65.2096 63.3045 66.6652 62.6489 67.029 60.8277L68.4846 54.3442C69.6491 49.172 71.1047 44.6555 72.9241 40.576C74.1614 37.8078 74.8892 33.7283 74.5253 31.2515C73.943 27.0264 70.0858 23.6025 65.5007 23.0926C61.8618 22.8012 58.2956 24.1853 56.0394 26.9535C55.6028 27.4634 54.7294 27.4634 54.2928 26.9535C52.3277 24.5495 49.271 23.0926 45.9232 23.0926Z" fill="#96744A"/>
<path d="M52.9098 31.3974C52.7642 31.3974 52.6914 31.3974 52.5459 31.3246C51.9636 31.1061 51.6725 30.5233 51.8909 29.9405C52.6914 27.5365 54.2925 25.6425 54.3653 25.5696C54.802 25.1325 55.457 25.0597 55.8937 25.4968C56.3304 25.861 56.4031 26.5895 55.9665 27.0266C55.9665 27.0994 54.5837 28.7021 53.8559 30.669C53.7831 31.1061 53.3464 31.3974 52.9098 31.3974Z" fill="#96744A"/>
</g>
<defs>
<clipPath id="clip0_297_2225">
<rect width="77" height="66" fill="white"/>
</clipPath>
</defs>
</svg>
