<svg width="65" height="65" viewBox="0 0 65 65" fill="none" xmlns="http://www.w3.org/2000/svg">
<g clip-path="url(#clip0_295_1928)">
<path d="M47.0396 55.919C46.6833 55.919 46.3269 55.7045 46.1131 55.347L27.226 22.0246C26.941 21.5241 27.0835 20.809 27.6537 20.523L40.7677 13.0862C41.0528 12.9432 41.3379 12.9432 41.623 13.0147C41.9081 13.0863 42.1219 13.3008 42.2644 13.5153L61.0802 46.8376C61.2227 47.1237 61.2228 47.4097 61.1515 47.6957C61.0802 47.9817 60.8664 48.1963 60.6526 48.3393L47.5385 55.776C47.396 55.8475 47.1822 55.919 47.0396 55.919ZM29.6493 21.8816L47.396 53.3448L58.5857 46.9806L40.839 15.5175L29.6493 21.8816Z" fill="#333333"/>
<path d="M32.1438 20.3084C31.7875 20.3084 31.4311 20.0938 31.2173 19.7363L28.9366 15.7319C28.2239 14.4448 28.6515 12.8001 29.9344 12.085L32.3577 10.6549C32.9991 10.2974 33.7118 10.2258 34.3533 10.3689C35.066 10.5834 35.6362 11.0124 35.9925 11.656L38.2732 15.6604C38.5583 16.1609 38.4158 16.876 37.8456 17.162C37.3467 17.4481 36.634 17.3051 36.3489 16.733L34.0682 12.7286C33.9969 12.5856 33.8544 12.5141 33.7831 12.5141C33.7118 12.5141 33.5693 12.4426 33.4267 12.5856L31.0035 14.0157C30.7897 14.1587 30.6471 14.4448 30.7897 14.7308L33.0704 18.7352C33.3555 19.2357 33.2129 19.9508 32.6427 20.2368C32.5002 20.3084 32.2864 20.3084 32.1438 20.3084Z" fill="#333333"/>
<path d="M56.7327 63.8563C56.6615 63.8563 56.5189 63.8563 56.4476 63.7848C56.1626 63.7133 55.9487 63.4988 55.8062 63.2843L50.0332 53.0588C49.7481 52.5582 49.8906 51.8431 50.4608 51.5571L55.6637 48.6253C55.9487 48.4823 56.2338 48.4823 56.5189 48.5538C56.804 48.6253 57.0178 48.8398 57.1604 49.0544L62.9334 59.2799C63.2185 59.7804 63.0759 60.4955 62.5058 60.7815L57.3029 63.7133C57.0891 63.8563 56.9465 63.8563 56.7327 63.8563ZM52.4564 52.9872L57.1604 61.2821L60.5101 59.4229L55.8062 51.1281L52.4564 52.9872Z" fill="#333333"/>
<path d="M54.8083 65C54.452 65 54.0956 64.7855 53.8818 64.4279C53.5967 63.9274 53.7393 63.2123 54.3094 62.9263L63.4322 57.7778C63.9311 57.4918 64.6439 57.6348 64.929 58.2068C65.214 58.7074 65.0715 59.4224 64.5013 59.7085L55.3785 64.857C55.1647 64.9285 54.9509 65 54.8083 65Z" fill="#333333"/>
<path d="M31.716 13.4433C31.3596 13.4433 31.0033 13.2288 30.7894 12.8713L24.375 1.64466C24.0899 1.14411 24.2324 0.429043 24.8026 0.143014C25.3015 -0.143014 26.0142 0 26.2993 0.572057L32.6425 11.8702C32.9276 12.3707 32.7851 13.0858 32.2149 13.3718C32.0723 13.3718 31.8585 13.4433 31.716 13.4433Z" fill="#333333"/>
<path d="M32.2151 29.7466C31.8587 29.7466 31.5024 29.5321 31.2885 29.1745C31.0035 28.674 31.146 27.9589 31.7162 27.6729L34.7809 25.8852C35.2798 25.5992 35.9925 25.7422 36.2776 26.3142C36.5627 26.8148 36.4201 27.5299 35.8499 27.8159L32.7852 29.6036C32.5714 29.6751 32.4289 29.7466 32.2151 29.7466Z" fill="#333333"/>
<path d="M36.8479 37.898C36.4915 37.898 36.1352 37.6834 35.9214 37.3259C35.6363 36.8253 35.7788 36.1103 36.349 35.8242L39.4137 34.0366C39.9126 33.7505 40.6253 33.8936 40.9104 34.4656C41.1955 34.9662 41.0529 35.6812 40.4828 35.9673L37.4181 37.7549C37.2042 37.898 37.0617 37.898 36.8479 37.898Z" fill="#333333"/>
<path d="M41.4802 46.1216C41.1239 46.1216 40.7675 45.9071 40.5537 45.5495C40.2686 45.049 40.4111 44.3339 40.9813 44.0479L44.046 42.2602C44.5449 41.9742 45.2576 42.1172 45.5427 42.6892C45.8278 43.1898 45.6853 43.9049 45.1151 44.1909L42.0504 45.9786C41.8366 46.0501 41.6228 46.1216 41.4802 46.1216Z" fill="#333333"/>
<path d="M13.7555 63.2833H4.13377C1.85307 63.2833 0 61.4241 0 59.1358V49.4824C0 47.1941 1.85307 45.335 4.13377 45.335H13.2566C13.8268 45.335 14.3257 45.8355 14.3257 46.4076C14.3257 46.9796 13.8268 47.4802 13.2566 47.4802H4.13377C3.06469 47.4802 2.13816 48.3383 2.13816 49.4824V59.1358C2.13816 60.2084 2.99342 61.138 4.13377 61.138H13.7555C14.8246 61.138 15.7511 60.28 15.7511 59.1358V57.5627C15.7511 56.9906 16.25 56.4901 16.8202 56.4901C17.3904 56.4901 17.8893 56.9906 17.8893 57.5627V59.1358C17.8893 61.4241 16.0362 63.2833 13.7555 63.2833Z" fill="#333333"/>
<path d="M9.12262 58.7065C9.05134 58.7065 9.05134 58.7065 9.12262 58.7065C8.76626 58.7065 8.48117 58.5635 8.33863 58.3489L4.48994 53.9155C4.06231 53.4865 4.13358 52.7714 4.56121 52.4139C4.98884 51.9848 5.70156 52.0563 6.05792 52.4854L9.19389 56.0607L17.1051 48.6955C17.5327 48.2664 18.2454 48.3379 18.6018 48.767C19.0294 49.196 18.9581 49.9111 18.5305 50.2686L9.83534 58.4205C9.62152 58.635 9.33643 58.7065 9.12262 58.7065Z" fill="#96744A"/>
<path d="M13.7555 40.9737H4.13377C1.85307 40.9737 0 39.1145 0 36.8263V27.1728C0 24.8846 1.85307 23.0254 4.13377 23.0254H13.2566C13.8268 23.0254 14.3257 23.5259 14.3257 24.098C14.3257 24.6701 13.8268 25.1706 13.2566 25.1706H4.13377C3.06469 25.2421 2.13816 26.1002 2.13816 27.1728V36.8263C2.13816 37.8989 2.99342 38.8285 4.13377 38.8285H13.7555C14.8246 38.8285 15.7511 37.9704 15.7511 36.8263V35.2531C15.7511 34.6811 16.25 34.1805 16.8202 34.1805C17.3904 34.1805 17.8893 34.6811 17.8893 35.2531V36.8263C17.8893 39.1145 16.0362 40.9737 13.7555 40.9737Z" fill="#333333"/>
<path d="M9.12262 36.3969C9.05134 36.3969 9.05134 36.3969 9.12262 36.3969C8.76626 36.3969 8.48117 36.2539 8.33863 36.0394L4.48994 31.6059C4.06231 31.1769 4.13358 30.4618 4.56121 30.1043C4.98884 29.7467 5.70156 29.7467 6.05792 30.2473L9.19389 33.8227L17.1051 26.3859C17.5327 25.9569 18.2454 26.0284 18.6018 26.4574C19.0294 26.8865 18.9581 27.6015 18.5305 27.9591L9.83534 36.1109C9.62152 36.3254 9.33643 36.3969 9.12262 36.3969Z" fill="#96744A"/>
<path d="M13.7555 18.6631H4.13377C1.85307 18.6631 0 16.804 0 14.5157V4.86226C0 2.57403 1.85307 0.714844 4.13377 0.714844H13.2566C13.8268 0.714844 14.3257 1.21539 14.3257 1.78745C14.3257 2.35951 13.8268 2.86006 13.2566 2.86006H4.13377C3.06469 2.93157 2.13816 3.78965 2.13816 4.86226V14.5157C2.13816 15.5883 2.99342 16.5179 4.13377 16.5179H13.7555C14.8246 16.5179 15.7511 15.6598 15.7511 14.5157V12.9426C15.7511 12.3705 16.25 11.87 16.8202 11.87C17.3904 11.87 17.8893 12.3705 17.8893 12.9426V14.5157C17.8893 16.804 16.0362 18.6631 13.7555 18.6631Z" fill="#333333"/>
<path d="M9.12262 14.0864C9.05134 14.0864 9.05134 14.0864 9.12262 14.0864C8.76626 14.0864 8.48117 13.9433 8.33863 13.7288L4.48994 9.29538C4.06231 8.86634 4.13358 8.15127 4.56121 7.79373C4.98884 7.4362 5.70156 7.50771 6.05792 7.93675L9.19389 11.5121L17.1051 4.07536C17.5327 3.64632 18.2454 3.71783 18.6018 4.14687C19.0294 4.57591 18.9581 5.29098 18.5305 5.64852L9.83534 13.8003C9.62152 14.0149 9.33643 14.0864 9.12262 14.0864Z" fill="#96744A"/>
</g>
<defs>
<clipPath id="clip0_295_1928">
<rect width="65" height="65" fill="white"/>
</clipPath>
</defs>
</svg>
