<svg width="68" height="68" viewBox="0 0 68 68" fill="none" xmlns="http://www.w3.org/2000/svg">
<g clip-path="url(#clip0_297_2494)">
<path d="M33.9998 64.8326C16.9646 64.8326 3.16748 50.9651 3.16748 34.0003C3.16748 16.9651 17.035 3.16797 33.9998 3.16797C51.035 3.16797 64.8321 17.0355 64.8321 34.0003C64.8321 51.0355 51.035 64.8326 33.9998 64.8326ZM33.9998 5.27977C18.1613 5.27977 5.27928 18.1618 5.27928 34.0003C5.27928 49.8388 18.1613 62.7208 33.9998 62.7208C49.8383 62.7208 62.7203 49.8388 62.7203 34.0003C62.7203 18.1618 49.8383 5.27977 33.9998 5.27977Z" fill="#333333"/>
<path d="M34.0002 8.72878C33.4371 8.72878 32.9443 8.23602 32.9443 7.67288V1.0559C32.9443 0.492754 33.4371 0 34.0002 0C34.5634 0 35.0561 0.492754 35.0561 1.0559V7.60248C35.0561 8.23602 34.6338 8.72878 34.0002 8.72878Z" fill="#333333"/>
<path d="M34.0002 68.0002C33.4371 68.0002 32.9443 67.5074 32.9443 66.9443V60.3977C32.9443 59.8346 33.4371 59.3418 34.0002 59.3418C34.5634 59.3418 35.0561 59.8346 35.0561 60.3977V66.9443C35.0561 67.5074 34.6338 68.0002 34.0002 68.0002Z" fill="#333333"/>
<path d="M66.9443 35.0561H60.3977C59.8346 35.0561 59.3418 34.5634 59.3418 34.0002C59.3418 33.4371 59.8346 32.9443 60.3977 32.9443H66.9443C67.5074 32.9443 68.0002 33.4371 68.0002 34.0002C68.0002 34.6338 67.5778 35.0561 66.9443 35.0561Z" fill="#333333"/>
<path d="M7.60248 35.0561H1.0559C0.492754 35.0561 0 34.5634 0 34.0002C0 33.4371 0.492754 32.9443 1.0559 32.9443H7.60248C8.16563 32.9443 8.65839 33.4371 8.65839 34.0002C8.72878 34.6338 8.23602 35.0561 7.60248 35.0561Z" fill="#333333"/>
<path d="M27.4534 51.176C27.383 51.176 27.383 51.176 27.3126 51.176C25.3416 51.1056 23.7225 49.7681 23.2298 47.8675L21.5403 40.969C20.9068 38.2236 19.9213 35.4783 18.6542 32.4514C17.6687 30.1988 17.1759 26.9607 17.3871 24.8489C17.8095 20.6957 21.3995 17.3168 25.9047 16.824C29.002 16.4721 31.8882 17.4576 34 19.499C36.1118 17.528 39.0683 16.5425 42.0952 16.824C46.4596 17.3168 49.9793 20.5549 50.5424 24.5673C50.8944 26.8199 50.2608 30.1988 49.2049 32.5921C47.8675 35.5487 46.8116 38.7868 45.9668 42.588L44.9109 47.5155C44.4886 49.4162 42.8695 50.824 40.8985 50.8944C38.9275 50.9648 37.1677 49.7681 36.6045 47.8675L35.4078 44.1367C35.1966 43.4327 34.5631 43.1512 34.0704 43.1512C33.5776 43.1512 32.9441 43.4327 32.7329 44.1367L31.5362 48.0787C30.973 49.9793 29.354 51.176 27.4534 51.176ZM27.1014 19.0062C26.8198 19.0062 26.4679 19.0062 26.1863 19.0766C22.6666 19.4286 19.9213 22.0331 19.5693 25.2008C19.3581 26.6791 19.7101 29.5652 20.6252 31.677C21.9627 34.7743 22.9482 37.7309 23.6521 40.5466L25.3416 47.4451C25.6231 48.6418 26.6087 49.0642 27.383 49.1346C28.1573 49.1346 29.1428 48.7826 29.4948 47.5859L30.6915 43.6439C31.1842 42.0953 32.4513 41.1801 34.0704 41.1097C35.619 41.1097 36.9565 42.0953 37.4492 43.5735L38.6459 47.3044C38.9979 48.501 39.9834 48.853 40.8281 48.853C41.6024 48.7826 42.588 48.3603 42.8695 47.1636L43.9254 42.236C44.7701 38.294 45.8964 34.9151 47.3043 31.8178C48.2194 29.7764 48.7826 26.7495 48.501 24.9897C48.0786 21.9627 45.2629 19.4286 41.884 19.0766C39.1387 18.795 36.4637 19.7806 34.8447 21.822C34.4223 22.3147 33.5776 22.3147 33.1552 21.822C31.7474 19.9917 29.4948 19.0062 27.1014 19.0062Z" fill="#96744A"/>
<path d="M32.3105 25.2005C32.1697 25.2005 32.0993 25.2005 31.9585 25.1301C31.3954 24.9189 31.1138 24.3558 31.325 23.7926C31.9585 21.9624 33.2256 20.4841 33.2256 20.4137C33.648 19.9914 34.2815 19.921 34.7039 20.3433C35.1262 20.6953 35.1966 21.3992 34.8447 21.8216C34.8447 21.8216 33.7888 23.0183 33.296 24.4262C33.1552 24.9189 32.7329 25.2005 32.3105 25.2005Z" fill="#96744A"/>
</g>
<defs>
<clipPath id="clip0_297_2494">
<rect width="68" height="68" fill="white"/>
</clipPath>
</defs>
</svg>
