<svg width="61" height="61" viewBox="0 0 61 61" fill="none" xmlns="http://www.w3.org/2000/svg">
<g clip-path="url(#clip0_306_3076)">
<path d="M44.1446 52.478C43.8101 52.478 43.4757 52.2767 43.2751 51.9412L25.5503 20.6694C25.2827 20.1997 25.4165 19.5286 25.9516 19.2602L38.2586 12.2811C38.5262 12.1469 38.7937 12.1469 39.0612 12.214C39.3288 12.2811 39.5294 12.4824 39.6632 12.6837L57.3211 43.9555C57.4549 44.2239 57.4549 44.4923 57.388 44.7607C57.3211 45.0292 57.1205 45.2305 56.9198 45.3647L44.6128 52.3438C44.479 52.4109 44.2783 52.478 44.1446 52.478ZM27.8244 20.5352L44.479 50.0622L54.9801 44.0897L38.3255 14.5627L27.8244 20.5352Z" fill="#333333"/>
<path d="M30.1656 19.0587C29.8311 19.0587 29.4967 18.8573 29.2961 18.5218L27.1557 14.7638C26.4868 13.5559 26.8882 12.0125 28.0921 11.3414L30.3662 9.99925C30.9682 9.66372 31.6371 9.59661 32.239 9.73082C32.9079 9.93214 33.443 10.3348 33.7774 10.9387L35.9178 14.6967C36.1853 15.1665 36.0515 15.8375 35.5165 16.106C35.0483 16.3744 34.3794 16.2402 34.1119 15.7033L31.9715 11.9453C31.9046 11.8111 31.7708 11.744 31.704 11.744C31.6371 11.744 31.5033 11.6769 31.3695 11.8111L29.0954 13.1533C28.8947 13.2875 28.761 13.5559 28.8947 13.8243L31.0351 17.5823C31.3026 18.0521 31.1689 18.7231 30.6338 18.9915C30.5 19.0587 30.2993 19.0587 30.1656 19.0587Z" fill="#333333"/>
<path d="M53.2409 59.9264C53.174 59.9264 53.0402 59.9264 52.9733 59.8593C52.7058 59.7922 52.5051 59.5909 52.3714 59.3895L46.9536 49.7933C46.6861 49.3235 46.8198 48.6525 47.3549 48.384L52.2376 45.6327C52.5051 45.4985 52.7727 45.4985 53.0402 45.5656C53.3078 45.6327 53.5084 45.834 53.6422 46.0353L59.06 55.6316C59.3275 56.1013 59.1937 56.7724 58.6586 57.0408L53.776 59.7922C53.5753 59.9264 53.4415 59.9264 53.2409 59.9264ZM49.2277 49.7262L53.6422 57.5106L56.7858 55.7658L52.3714 47.9814L49.2277 49.7262Z" fill="#333333"/>
<path d="M51.4349 60.9999C51.1005 60.9999 50.7661 60.7986 50.5654 60.463C50.2979 59.9933 50.4316 59.3222 50.9667 59.0538L59.5281 54.2221C59.9963 53.9537 60.6652 54.0879 60.9327 54.6247C61.2003 55.0945 61.0665 55.7656 60.5314 56.034L51.97 60.8657C51.7694 60.9328 51.5687 60.9999 51.4349 60.9999Z" fill="#333333"/>
<path d="M29.7642 12.6161C29.4298 12.6161 29.0954 12.4147 28.8947 12.0792L22.875 1.54345C22.6074 1.07371 22.7412 0.40264 23.2763 0.134213C23.7445 -0.134213 24.4134 0 24.6809 0.536854L30.6338 11.1397C30.9013 11.6095 30.7675 12.2805 30.2324 12.549C30.0987 12.549 29.898 12.6161 29.7642 12.6161Z" fill="#333333"/>
<path d="M30.2323 27.9162C29.8979 27.9162 29.5634 27.7149 29.3628 27.3793C29.0952 26.9096 29.229 26.2385 29.7641 25.9701L32.6402 24.2924C33.1084 24.024 33.7772 24.1582 34.0448 24.6951C34.3123 25.1648 34.1786 25.8359 33.6435 26.1043L30.7674 27.782C30.5667 27.8491 30.433 27.9162 30.2323 27.9162Z" fill="#333333"/>
<path d="M34.5799 35.5666C34.2455 35.5666 33.9111 35.3653 33.7104 35.0297C33.4429 34.56 33.5767 33.8889 34.1117 33.6205L36.9878 31.9428C37.456 31.6744 38.1249 31.8086 38.3924 32.3454C38.66 32.8152 38.5262 33.4863 37.9911 33.7547L35.115 35.4324C34.9144 35.5666 34.7806 35.5666 34.5799 35.5666Z" fill="#333333"/>
<path d="M38.9276 43.2834C38.5932 43.2834 38.2587 43.082 38.0581 42.7465C37.7905 42.2768 37.9243 41.6057 38.4594 41.3373L41.3355 39.6596C41.8037 39.3912 42.4726 39.5254 42.7401 40.0622C43.0076 40.532 42.8739 41.2031 42.3388 41.4715L39.4627 43.1492C39.262 43.2163 39.0614 43.2834 38.9276 43.2834Z" fill="#333333"/>
<path d="M12.909 59.3897H3.87939C1.73904 59.3897 0 57.6449 0 55.4975V46.4381C0 44.2907 1.73904 42.5459 3.87939 42.5459H12.4408C12.9759 42.5459 13.4441 43.0156 13.4441 43.5525C13.4441 44.0894 12.9759 44.5591 12.4408 44.5591H3.87939C2.8761 44.5591 2.00658 45.3644 2.00658 46.4381V55.4975C2.00658 56.5041 2.80921 57.3765 3.87939 57.3765H12.909C13.9123 57.3765 14.7818 56.5712 14.7818 55.4975V54.0211C14.7818 53.4843 15.25 53.0145 15.7851 53.0145C16.3202 53.0145 16.7884 53.4843 16.7884 54.0211V55.4975C16.7884 57.6449 15.0493 59.3897 12.909 59.3897Z" fill="#333333"/>
<path d="M8.56155 55.0951C8.49466 55.0951 8.49466 55.0951 8.56155 55.0951C8.22712 55.0951 7.95957 54.9609 7.8258 54.7596L4.21396 50.599C3.81264 50.1964 3.87953 49.5253 4.28085 49.1898C4.68216 48.7871 5.35102 48.8542 5.68545 49.2569L8.62843 52.6122L16.0528 45.7002C16.4541 45.2976 17.123 45.3647 17.4574 45.7673C17.8587 46.1699 17.7918 46.841 17.3905 47.1766L9.23041 54.8267C9.02975 55.028 8.76221 55.0951 8.56155 55.0951Z" fill="#96744A"/>
<path d="M12.909 38.4522H3.87939C1.73904 38.4522 0 36.7074 0 34.56V25.5006C0 23.3532 1.73904 21.6084 3.87939 21.6084H12.4408C12.9759 21.6084 13.4441 22.0781 13.4441 22.615C13.4441 23.1519 12.9759 23.6216 12.4408 23.6216H3.87939C2.8761 23.6887 2.00658 24.494 2.00658 25.5006V34.56C2.00658 35.5666 2.80921 36.439 3.87939 36.439H12.909C13.9123 36.439 14.7818 35.6337 14.7818 34.56V33.0836C14.7818 32.5468 15.25 32.077 15.7851 32.077C16.3202 32.077 16.7884 32.5468 16.7884 33.0836V34.56C16.7884 36.7074 15.0493 38.4522 12.909 38.4522Z" fill="#333333"/>
<path d="M8.56155 34.1576C8.49466 34.1576 8.49466 34.1576 8.56155 34.1576C8.22712 34.1576 7.95957 34.0234 7.8258 33.8221L4.21396 29.6615C3.81264 29.2589 3.87953 28.5878 4.28085 28.2522C4.68216 27.9167 5.35102 27.9167 5.68545 28.3865L8.62843 31.7418L16.0528 24.7627C16.4541 24.3601 17.123 24.4272 17.4574 24.8298C17.8587 25.2324 17.7918 25.9035 17.3905 26.239L9.23041 33.8892C9.02975 34.0905 8.76221 34.1576 8.56155 34.1576Z" fill="#96744A"/>
<path d="M12.909 17.5147H3.87939C1.73904 17.5147 0 15.7699 0 13.6225V4.56309C0 2.41567 1.73904 0.670898 3.87939 0.670898H12.4408C12.9759 0.670898 13.4441 1.14065 13.4441 1.6775C13.4441 2.21435 12.9759 2.6841 12.4408 2.6841H3.87939C2.8761 2.75121 2.00658 3.55649 2.00658 4.56309V13.6225C2.00658 14.6291 2.80921 15.5015 3.87939 15.5015H12.909C13.9123 15.5015 14.7818 14.6962 14.7818 13.6225V12.1461C14.7818 11.6093 15.25 11.1395 15.7851 11.1395C16.3202 11.1395 16.7884 11.6093 16.7884 12.1461V13.6225C16.7884 15.7699 15.0493 17.5147 12.909 17.5147Z" fill="#333333"/>
<path d="M8.56155 13.2201C8.49466 13.2201 8.49466 13.2201 8.56155 13.2201C8.22712 13.2201 7.95957 13.0859 7.8258 12.8846L4.21396 8.72399C3.81264 8.32135 3.87953 7.65028 4.28085 7.31475C4.68216 6.97922 5.35102 7.04632 5.68545 7.44896L8.62843 10.8043L16.0528 3.8252C16.4541 3.42256 17.123 3.48967 17.4574 3.89231C17.8587 4.29495 17.7918 4.96602 17.3905 5.30155L9.23041 12.9517C9.02975 13.153 8.76221 13.2201 8.56155 13.2201Z" fill="#96744A"/>
</g>
<defs>
<clipPath id="clip0_306_3076">
<rect width="61" height="61" fill="white"/>
</clipPath>
</defs>
</svg>
