<svg width="73" height="59" viewBox="0 0 73 59" fill="none" xmlns="http://www.w3.org/2000/svg">
<g clip-path="url(#clip0_297_2689)">
<path d="M16.9265 58.9998C16.8611 58.9998 16.7958 58.9998 16.7304 58.9998C13.5934 58.9342 11.11 56.8997 10.3911 53.8808L7.45021 41.7395C6.27384 36.883 4.57465 31.8952 2.28727 26.5137C0.653431 22.6416 -0.261519 17.0632 0.0652489 13.5193C0.784139 6.56265 6.79667 0.918599 14.3123 0.131057C19.7367 -0.459599 24.965 1.44363 28.4941 5.18445C32.0232 1.378 37.2515 -0.459599 42.6758 0.131057C49.9301 0.918599 55.8772 6.30013 56.8576 12.9942C57.1843 15.4881 56.9229 19.0321 56.0079 22.3791C55.8772 22.9041 55.3544 23.2323 54.8316 23.101C54.3088 22.9698 53.982 22.4447 54.1127 21.9197C54.8969 18.8352 55.2237 15.5537 54.8969 13.3224C54.0473 7.54707 48.8844 2.82182 42.4798 2.09991C37.3168 1.50925 32.3499 3.47811 29.2783 7.28456C29.0823 7.54707 28.8208 7.67833 28.4941 7.67833C28.1673 7.67833 27.9059 7.54707 27.7098 7.28456C24.6382 3.47811 19.6713 1.50925 14.5084 2.09991C7.90768 2.82182 2.67939 7.74396 2.02586 13.7818C1.69909 16.6038 2.41798 21.8541 4.05182 25.7262C6.40455 31.239 8.10374 36.2923 9.28011 41.2801L12.221 53.4214C12.8746 56.0465 15.0312 56.9653 16.6651 57.0309C18.3643 57.0966 20.5209 56.2434 21.3052 53.6839L23.5272 46.7273C24.2461 44.4303 26.2067 42.9208 28.6248 42.9208C30.9775 42.9208 33.0035 44.3646 33.7224 46.6616L35.8137 53.2245C36.3365 54.8652 37.3822 55.6527 38.1664 56.0465C39.3428 56.6372 40.7152 56.7028 42.0223 56.2434C42.5451 56.0465 43.1333 56.309 43.264 56.8341C43.4601 57.3591 43.1986 57.9497 42.6758 58.081C40.9113 58.7373 38.9507 58.606 37.3168 57.7529C35.7483 56.9653 34.5066 55.5215 33.9838 53.7495L31.8925 47.1867C31.3696 45.4147 29.8665 44.8241 28.6901 44.8241C27.5138 44.8241 26.0106 45.4803 25.4878 47.1867L23.3965 54.1433C22.4162 57.1622 19.9328 58.9998 16.9265 58.9998Z" fill="#333333"/>
<path d="M25.4879 12.9944C25.3572 12.9944 25.2918 12.9944 25.1611 12.9288C24.6383 12.7319 24.3768 12.2069 24.5729 11.6819C25.6186 8.59733 27.7099 6.16908 27.7752 6.03782C28.102 5.57842 28.7555 5.57842 29.1477 5.90656C29.5398 6.23471 29.6051 6.89099 29.2784 7.28476C29.2784 7.28476 27.3831 9.51613 26.4028 12.2725C26.2721 12.7319 25.88 12.9944 25.4879 12.9944Z" fill="#333333"/>
<path d="M56.1386 59C46.8584 59 39.2773 51.3871 39.2773 42.0679C39.2773 32.7486 46.8584 25.1357 56.1386 25.1357C65.4188 25.1357 72.9998 32.7486 72.9998 42.0679C72.9998 51.4528 65.4188 59 56.1386 59ZM56.1386 27.1702C47.904 27.1702 41.238 33.8643 41.238 42.1335C41.238 50.4027 47.904 57.0968 56.1386 57.0968C64.3731 57.0968 71.0392 50.4027 71.0392 42.1335C71.0392 33.8643 64.3078 27.1702 56.1386 27.1702Z" fill="#96744A"/>
<path d="M56.0081 31.7642C55.4853 31.7642 55.0278 31.3048 55.0278 30.7798V29.6641C55.0278 29.1391 55.4853 28.6797 56.0081 28.6797C56.531 28.6797 56.9884 29.1391 56.9884 29.6641V30.7798C56.9884 31.3705 56.531 31.7642 56.0081 31.7642Z" fill="#96744A"/>
<path d="M44.898 43.2491H43.7869C43.2641 43.2491 42.8066 42.7897 42.8066 42.2647C42.8066 41.7397 43.2641 41.2803 43.7869 41.2803H44.898C45.4208 41.2803 45.8783 41.7397 45.8783 42.2647C45.8783 42.7897 45.4208 43.2491 44.898 43.2491Z" fill="#96744A"/>
<path d="M56.2694 55.5211C55.7465 55.5211 55.2891 55.0617 55.2891 54.5366V53.421C55.2891 52.8959 55.7465 52.4365 56.2694 52.4365C56.7922 52.4365 57.2497 52.8959 57.2497 53.421V54.471C57.2497 55.0617 56.7922 55.5211 56.2694 55.5211Z" fill="#96744A"/>
<path d="M68.4907 42.9864H67.3797C66.8569 42.9864 66.3994 42.527 66.3994 42.002C66.3994 41.477 66.8569 41.0176 67.3797 41.0176H68.4907C69.0136 41.0176 69.471 41.477 69.471 42.002C69.471 42.527 69.0136 42.9864 68.4907 42.9864Z" fill="#96744A"/>
<path d="M56.0078 43.1173C55.9425 43.1173 55.8118 43.1173 55.7464 43.1173C55.485 43.0516 55.2236 42.8547 55.0929 42.5922L51.4984 35.8981C51.237 35.4387 51.4331 34.7824 51.8906 34.5199C52.348 34.2574 53.0016 34.4543 53.263 34.9137L56.3346 40.689L59.4062 38.7201C59.8637 38.392 60.4519 38.5889 60.7786 39.0483C61.1054 39.5077 60.9094 40.0983 60.4519 40.4265L56.5307 42.986C56.4 43.0516 56.2039 43.1173 56.0078 43.1173Z" fill="#96744A"/>
</g>
<defs>
<clipPath id="clip0_297_2689">
<rect width="73" height="59" fill="white"/>
</clipPath>
</defs>
</svg>
