<svg width="66" height="71" viewBox="0 0 66 71" fill="none" xmlns="http://www.w3.org/2000/svg">
<g clip-path="url(#clip0_295_1903)">
<path d="M58.2538 71.0005H16.9651C16.5003 71.0005 16.113 70.7677 15.8806 70.3021C15.7256 69.9141 15.7256 69.371 16.0355 69.0606L23.1623 60.9906C24.789 59.1283 27.1904 58.042 29.6693 58.042H45.5496C48.0285 58.042 50.4299 59.1283 52.0566 60.9906L59.1834 69.0606C59.4933 69.371 59.5707 69.9141 59.3383 70.3021C59.1834 70.7677 58.7186 71.0005 58.2538 71.0005ZM19.5214 68.6726H55.62L50.2749 62.5425C49.113 61.1458 47.3313 60.3699 45.5496 60.3699H29.6693C27.8876 60.3699 26.1059 61.1458 24.944 62.5425L19.5214 68.6726Z" fill="#333333"/>
<path d="M42.2958 56.1794C41.676 56.1794 41.1338 55.6362 41.1338 55.0154V45.704C41.1338 45.0832 41.676 44.54 42.2958 44.54C42.9155 44.54 43.4577 45.0832 43.4577 45.704V55.0154C43.4577 55.6362 42.9155 56.1794 42.2958 56.1794Z" fill="#333333"/>
<path d="M32.9227 60.3699C32.303 60.3699 31.7607 59.8268 31.7607 59.206V51.0585C31.7607 50.4377 32.303 49.8945 32.9227 49.8945C33.5424 49.8945 34.0847 50.4377 34.0847 51.0585V59.206C34.0847 59.8268 33.5424 60.3699 32.9227 60.3699Z" fill="#333333"/>
<path d="M61.5849 49.5838C60.8102 49.5838 60.0356 49.351 59.3384 48.963L51.9792 44.1521L25.6412 49.351C23.5496 49.739 21.3806 48.9631 20.1412 47.2559L8.44401 32.7456C7.82429 31.892 7.51443 30.8057 7.66936 29.7969C7.82429 28.7882 8.44401 27.7794 9.29613 27.2363C12.1623 25.2188 16.1905 25.8396 18.3595 28.5554L26.8032 38.6428L51.1271 33.7543C53.0637 33.3663 55.0004 33.7543 56.6271 34.8406L63.3666 39.3412C64.7609 40.2723 65.6905 41.6691 66.0004 43.221C66.3102 44.8505 66.0004 46.48 65.0708 47.7991C64.2187 48.963 62.9018 49.5838 61.5849 49.5838ZM52.2116 41.6691C52.444 41.6691 52.6764 41.7467 52.8313 41.8243L60.5778 46.868C61.3525 47.4111 62.437 47.1784 62.9792 46.4024C63.5215 45.5488 63.7539 44.5401 63.5215 43.609C63.2891 42.6002 62.7468 41.7467 61.8947 41.2035L55.1553 36.7029C54.0708 36.0046 52.7539 35.6942 51.437 36.0046L26.4933 41.0483C26.106 41.1259 25.6412 40.9707 25.3313 40.6603L16.5004 30.0297C15.0285 28.245 12.4722 27.857 10.613 29.0986C10.3032 29.3314 10.0708 29.7193 9.99331 30.1073C9.91584 30.4953 10.0708 30.8833 10.3032 31.2712L22.0004 45.7816C22.775 46.7904 24.0144 47.2559 25.2539 47.0232L52.0567 41.7467C52.0567 41.6691 52.1342 41.6691 52.2116 41.6691Z" fill="#333333"/>
<path d="M4.10576 24.4427C2.94379 24.4427 1.78182 23.8995 0.929708 22.8908C-0.1548 21.5716 -0.309729 19.7093 0.542384 18.235L1.93675 15.9071C2.63393 14.7432 3.87337 14.0449 5.19027 13.9673C6.50717 13.8897 7.82407 14.4328 8.67619 15.5192L9.29591 16.2951C9.99309 17.1487 10.3029 18.235 10.148 19.3214C9.99309 20.4077 9.45084 21.4164 8.59872 22.1148L6.58464 23.6667C5.80999 24.2099 4.95788 24.4427 4.10576 24.4427ZM5.50013 16.2951C5.42267 16.2951 5.42267 16.2951 5.3452 16.2951C4.80295 16.3727 4.26069 16.6831 3.95083 17.1487L2.55647 19.4765C2.16914 20.0973 2.24661 20.8733 2.7114 21.4164C3.33112 22.1148 4.33816 22.27 5.11281 21.7268L7.12689 20.1749C7.51421 19.8645 7.74661 19.4765 7.82407 19.011C7.90154 18.5454 7.74661 18.0798 7.43675 17.6918L6.81703 16.9159C6.50717 16.5279 5.96492 16.2951 5.50013 16.2951Z" fill="#96744A"/>
<path d="M42.6834 20.0976C40.5919 20.0976 38.4228 19.3992 36.4088 18.1577C31.7609 15.2867 29.8243 10.3206 31.9158 6.98394C34.0074 3.64733 39.275 3.25935 43.9228 6.13039C46.0919 7.44951 47.7186 9.31181 48.5707 11.3293C49.5003 13.502 49.4228 15.5971 48.4158 17.3042C47.4088 19.0113 45.4721 19.9424 43.1482 20.0976C42.9933 20.0976 42.8383 20.0976 42.6834 20.0976ZM37.5707 6.59596C35.944 6.59596 34.5496 7.13913 33.8524 8.22547C32.4581 10.3981 34.2397 14.0451 37.5707 16.1402C39.275 17.2266 41.2116 17.7697 42.9158 17.6921C44.4651 17.6145 45.7045 17.0714 46.3243 16.0626C46.944 15.0539 46.944 13.7348 46.3243 12.2604C45.6271 10.7085 44.3102 9.23421 42.6059 8.14787C40.9792 7.13913 39.1975 6.59596 37.5707 6.59596Z" fill="#96744A"/>
<path d="M56.0846 31.1938C55.4649 31.1938 54.9226 30.6507 54.9226 30.0299V8.30313C54.9226 7.0616 54.4579 5.89767 53.6057 5.04411L51.3593 2.79384C50.817 2.25067 49.9649 2.25067 49.4226 2.79384L44.155 7.99275C43.6902 8.45832 42.9156 8.45832 42.5283 7.99275C42.0635 7.52717 42.0635 6.75122 42.5283 6.36324L47.7184 1.16433C49.1902 -0.309985 51.5142 -0.309985 52.986 1.16433L55.2325 3.4146C56.5494 4.73373 57.2466 6.44083 57.2466 8.30313V30.0299C57.2466 30.6507 56.7818 31.1938 56.0846 31.1938Z" fill="#333333"/>
<path d="M32.9227 34.1426C32.8452 34.1426 32.7678 34.1426 32.6128 34.1426C31.9931 33.9874 31.6058 33.3667 31.7607 32.7459L33.3875 25.9175C33.5424 25.3743 34.0072 24.9863 34.5495 24.9863H50.1973C50.8171 24.9863 51.3593 25.5295 51.3593 26.1503C51.3593 26.771 50.8171 27.3142 50.1973 27.3142H35.479L34.0847 33.2891C33.9297 33.7546 33.3875 34.1426 32.9227 34.1426Z" fill="#333333"/>
<path d="M9.91558 29.3319C9.52825 29.3319 9.21839 29.1767 8.986 28.8663L7.12684 26.4609C6.73952 25.9177 6.81698 25.2193 7.35924 24.8314C7.90149 24.4434 8.59867 24.521 8.986 25.0641L10.8452 27.4696C11.2325 28.0128 11.155 28.7111 10.6128 29.0991C10.4578 29.2543 10.2254 29.3319 9.91558 29.3319Z" fill="#333333"/>
<path d="M56.0848 61.6117C55.4651 61.6117 54.9229 61.0685 54.9229 60.4477V52.3778C54.9229 51.757 55.4651 51.2139 56.0848 51.2139C56.7045 51.2139 57.2468 51.757 57.2468 52.3778V60.3702C57.2468 61.0685 56.782 61.6117 56.0848 61.6117Z" fill="#333333"/>
</g>
<defs>
<clipPath id="clip0_295_1903">
<rect width="66" height="71" fill="white"/>
</clipPath>
</defs>
</svg>
