<svg width="58" height="71" viewBox="0 0 58 71" fill="none" xmlns="http://www.w3.org/2000/svg">
<g clip-path="url(#clip0_269_3390)">
<path d="M29 71.0002C28.8428 71.0002 28.6856 71.0002 28.5285 70.9206L15.7182 64.8713C6.05149 60.3343 0 51.0215 0 40.674V10.3478C0 9.711 0.550135 9.15383 1.17886 9.15383C13.2033 9.15383 22.3198 6.20876 28.1355 0.398223C28.607 -0.0793556 29.3144 -0.0793556 29.7859 0.398223C35.8374 6.44755 44.168 9.15383 56.7425 9.15383C57.3713 9.15383 57.9214 9.711 57.9214 10.3478V40.674C57.9214 51.0215 51.8699 60.3343 42.2033 64.9509L29.393 71.0002C29.3144 71.0002 29.1572 71.0002 29 71.0002ZM2.35772 11.5417V40.674C2.35772 50.0664 7.85908 58.5832 16.6612 62.7222L29 68.4532L41.2602 62.6426C50.1409 58.5036 55.5637 49.9868 55.5637 40.5944V11.5417C43.5393 11.3825 35.2087 8.67625 28.9214 2.86571C22.8699 8.43746 13.9892 11.3825 2.35772 11.5417Z" fill="#333333"/>
<path d="M22.8699 53.3302C22.7913 53.3302 22.7913 53.3302 22.7127 53.3302C20.8265 53.2506 19.1761 51.977 18.7046 50.0667L17.1328 43.5398C16.504 40.9927 15.6395 38.366 14.4607 35.5006C13.5962 33.3515 13.046 30.2472 13.2818 28.2573C13.6748 24.1979 17.1328 20.9344 21.3767 20.4568C24.2059 20.1384 26.9566 21.014 29 22.8447C30.9647 21.014 33.7154 20.1384 36.6233 20.4568C40.7886 20.9344 44.168 24.0387 44.7181 27.9389C45.0325 30.088 44.4823 33.3515 43.4607 35.6597C42.2032 38.4456 41.2601 41.4703 40.4742 45.0521L39.4525 49.6687C39.0596 51.579 37.4878 52.9322 35.523 53.0118C33.5582 53.0914 31.9078 51.8974 31.2791 49.9871L30.1788 46.4849C29.9431 45.7685 29.3143 45.6889 29.1571 45.6889C29 45.6889 28.2926 45.7685 28.1355 46.4849L27.0352 50.2259C26.3279 52.1362 24.7561 53.3302 22.8699 53.3302ZM22.5555 22.8447C22.2412 22.8447 22.0054 22.8447 21.691 22.9243C18.5474 23.2427 16.0325 25.6306 15.7181 28.5757C15.5609 30.0084 15.9539 32.6351 16.7398 34.625C17.9973 37.5701 18.9403 40.3559 19.5691 43.0622L21.1409 49.5891C21.3767 50.6239 22.1626 51.0219 22.8699 51.0219C23.5772 51.0219 24.3631 50.7035 24.6775 49.6687L25.7777 45.9277C26.2493 44.4154 27.5067 43.4602 29.0786 43.3806C30.6504 43.3806 31.9078 44.3358 32.3794 45.8481L33.4796 49.3503C33.794 50.3851 34.6585 50.7035 35.2872 50.6239C35.9945 50.6239 36.7805 50.2259 37.0162 49.1911L38.0379 44.5745C38.8238 40.8335 39.8455 37.6497 41.1815 34.7046C42.046 32.7943 42.5176 30.0084 42.2818 28.3369C41.8889 25.551 39.3739 23.2427 36.3089 22.9243C33.794 22.6059 31.4363 23.5611 29.9431 25.4714C29.7073 25.7898 29.3929 25.949 29 25.949C28.607 25.949 28.2926 25.7898 28.0569 25.4714C26.7208 23.7999 24.6775 22.8447 22.5555 22.8447Z" fill="#96744A"/>
<path d="M27.4281 28.7353C27.2709 28.7353 27.1923 28.7353 27.0351 28.6557C26.4064 28.4169 26.092 27.7802 26.3278 27.1434C26.9565 25.3923 28.1354 23.9595 28.1354 23.88C28.6069 23.4024 29.3142 23.3228 29.7858 23.8004C30.2573 24.1983 30.3359 24.9943 29.943 25.4719C29.943 25.4719 28.9999 26.5862 28.5283 27.9394C28.3712 28.4169 27.8996 28.7353 27.4281 28.7353Z" fill="#96744A"/>
</g>
<defs>
<clipPath id="clip0_269_3390">
<rect width="58" height="71" fill="white"/>
</clipPath>
</defs>
</svg>
