<svg width="69" height="59" viewBox="0 0 69 59" fill="none" xmlns="http://www.w3.org/2000/svg">
<g clip-path="url(#clip0_269_3404)">
<path d="M5.73888 59.0003H1.86847C0.800774 59.0003 0 58.2066 0 57.1483V41.0092C0 40.0171 0.800774 39.1572 1.86847 39.1572H5.80561C6.80658 39.1572 7.67408 39.9509 7.67408 41.0092V57.1483C7.60735 58.2066 6.73985 59.0003 5.73888 59.0003ZM2.00193 57.016H5.53868V41.2077H2.00193V57.016Z" fill="#96744A"/>
<path d="M26.292 59.0005H14.6141H14.5473C14.2137 59.0005 11.5444 58.802 9.87615 57.7437C9.40903 57.4792 9.27557 56.8177 9.5425 56.3547C9.80942 55.8917 10.4767 55.7594 10.9438 56.024C11.9448 56.6854 13.9468 56.8839 14.6141 56.95H26.292C28.5609 56.95 30.5628 55.4287 31.0967 53.246L33.0986 45.0442C33.2988 44.2505 33.0986 43.3906 32.5647 42.7292C32.0309 42.0677 31.2968 41.6709 30.4293 41.6709H21.2872C20.9535 41.6709 20.6199 41.4724 20.4197 41.2079C20.2195 40.9433 20.2195 40.5464 20.3529 40.2818L21.2872 38.1653C22.2881 35.9164 22.7553 33.5352 22.7553 31.0879C22.7553 30.2942 22.0879 29.6989 21.3539 29.6989C20.8201 29.6989 20.5531 29.8312 20.2195 30.1619C19.9526 30.4926 19.6189 31.154 19.2852 31.9478C17.8172 35.0565 15.4148 40.348 7.27364 42.9937C6.73979 43.1922 6.13921 42.8614 6.00574 42.3323C5.80555 41.8031 6.13921 41.2079 6.67306 41.0756C13.9468 38.6944 16.0154 34.1305 17.4168 31.154C17.8172 30.228 18.1508 29.4343 18.6179 28.9052C19.2852 28.0453 20.1527 27.6484 21.2872 27.6484C23.1556 27.6484 24.7572 29.1697 24.7572 31.0218C24.7572 33.7336 24.2233 36.4455 23.1556 38.959L22.822 39.6866H30.4961C31.9642 39.6866 33.2988 40.348 34.233 41.4724C35.1673 42.5969 35.4342 44.052 35.1005 45.5072L33.0986 53.709C32.2978 56.8177 29.4951 59.0005 26.292 59.0005Z" fill="#96744A"/>
<path d="M51.9168 59C48.8472 59 46.3781 57.148 45.4439 54.2376L43.3085 47.6233C42.9749 46.4989 42.1741 45.9036 41.6402 45.639C40.7727 45.2421 39.7718 45.176 38.9043 45.4406C38.3704 45.639 37.7698 45.3744 37.6364 44.8453C37.4362 44.3161 37.7031 43.7208 38.2369 43.5885C39.6383 43.1255 41.2398 43.1917 42.5745 43.8531C43.8424 44.5145 44.8433 45.639 45.3104 47.028L47.4458 53.6423C48.2466 56.2219 50.5155 57.0818 52.2505 56.9495C53.9855 56.8834 56.1876 55.8251 56.7215 53.1793L58.6567 44.4484C60.1915 37.5033 62.1934 31.4843 64.6625 26.0605C66.3975 22.2242 67.3985 16.7343 66.8646 13.2948C65.9971 7.47419 60.7253 2.71185 54.1857 1.98428C48.9139 1.52127 43.8424 3.50558 40.706 7.3419C40.5058 7.60647 40.2389 7.73876 39.9052 7.73876C39.5716 7.73876 39.3046 7.60647 39.1045 7.3419C35.9681 3.50558 30.8965 1.52127 25.6248 2.11656C18.8849 2.84414 13.5464 7.8049 12.9458 13.8901C12.6122 16.7343 13.3462 22.0258 15.0145 25.9282C15.3482 26.7219 15.6818 27.5157 16.0155 28.3094C16.2157 28.8385 15.9487 29.4338 15.4816 29.6323C14.9478 29.8307 14.3472 29.5661 14.147 29.1031C13.8134 28.3094 13.4797 27.5157 13.146 26.7881C11.4778 22.8856 10.5435 17.2634 10.8772 13.6917C11.678 6.61432 17.7505 0.92598 25.4246 0.132258C30.9633 -0.463033 36.3017 1.45513 39.9052 5.22531C43.5087 1.45513 48.8472 -0.463033 54.3859 0.132258C61.793 0.92598 67.8656 6.41589 68.7998 13.1625C69.3337 16.9327 68.3327 22.8856 66.3975 27.0527C63.9284 32.3441 61.9932 38.2309 60.5251 45.0437L58.59 53.7746C57.9226 56.8834 55.3868 58.9338 52.1838 59.0661C52.117 59 52.0503 59 51.9168 59Z" fill="#333333"/>
<path d="M36.8355 13.0965C36.7021 13.0965 36.6353 13.0965 36.5019 13.0303C35.968 12.8319 35.7011 12.3027 35.9013 11.7736C36.969 8.66485 39.1044 6.21754 39.1711 6.08525C39.5715 5.68839 40.1721 5.62224 40.5725 5.95296C40.9729 6.28368 41.0396 6.94511 40.7059 7.34198C40.7059 7.34198 38.7707 9.59086 37.7698 12.3689C37.6363 12.8319 37.2359 13.0965 36.8355 13.0965Z" fill="#333333"/>
</g>
<defs>
<clipPath id="clip0_269_3404">
<rect width="69" height="59" fill="white"/>
</clipPath>
</defs>
</svg>
