<svg width="85" height="60" viewBox="0 0 85 60" fill="none" xmlns="http://www.w3.org/2000/svg">
<g clip-path="url(#clip0_269_3251)">
<path d="M10.1644 20.5272C9.50326 20.5272 8.9248 19.9454 8.9248 19.2805V8.47639C8.9248 6.81422 10.3296 5.40137 11.9824 5.40137H15.949C16.61 5.40137 17.1885 5.98313 17.1885 6.648C17.1885 7.31287 16.61 7.89463 15.949 7.89463H11.9824C11.6518 7.89463 11.4039 8.14396 11.4039 8.47639V19.2805C11.4866 19.9454 10.9081 20.5272 10.1644 20.5272Z" fill="#333333"/>
<path d="M80.9018 59.8377H32.7244C32.0633 59.8377 31.4849 59.256 31.4849 58.5911C31.4849 57.9262 32.0633 57.3445 32.7244 57.3445H80.9018C81.2324 57.3445 81.4803 57.0951 81.4803 56.7627V8.39339C81.4803 8.06095 81.2324 7.81162 80.9018 7.81162H76.9352C76.2741 7.81162 75.6957 7.22986 75.6957 6.56499C75.6957 5.90012 76.2741 5.31836 76.9352 5.31836H80.9018C82.5546 5.31836 83.9594 6.73121 83.9594 8.39339V56.7627C83.9594 58.508 82.5546 59.8377 80.9018 59.8377Z" fill="#333333"/>
<path d="M50.4088 7.89463H46.1116C45.4505 7.89463 44.8721 7.31287 44.8721 6.648C44.8721 5.98313 45.4505 5.40137 46.1116 5.40137H50.4088C51.0698 5.40137 51.6483 5.98313 51.6483 6.648C51.6483 7.31287 51.0698 7.89463 50.4088 7.89463Z" fill="#333333"/>
<path d="M35.4512 7.89463H31.1541C30.493 7.89463 29.9146 7.31287 29.9146 6.648C29.9146 5.98313 30.493 5.40137 31.1541 5.40137H35.4512C36.1123 5.40137 36.6908 5.98313 36.6908 6.648C36.6908 7.31287 36.195 7.89463 35.4512 7.89463Z" fill="#333333"/>
<path d="M66.4402 7.89463H62.1431C61.482 7.89463 60.9036 7.31287 60.9036 6.648C60.9036 5.98313 61.482 5.40137 62.1431 5.40137H66.4402C67.1013 5.40137 67.6798 5.98313 67.6798 6.648C67.6798 7.31287 67.1013 7.89463 66.4402 7.89463Z" fill="#333333"/>
<path d="M23.2212 13.2132C20.7421 13.2132 18.7588 11.2186 18.7588 8.72535V4.56991C18.7588 2.07664 20.7421 0.0820312 23.2212 0.0820312C25.7003 0.0820312 27.6836 2.07664 27.6836 4.56991V8.72535C27.6836 11.2186 25.7003 13.2132 23.2212 13.2132ZM23.2212 2.49219C22.1469 2.49219 21.2379 3.40638 21.2379 4.4868V8.64224C21.2379 9.72265 22.1469 10.6368 23.2212 10.6368C24.2955 10.6368 25.2045 9.72265 25.2045 8.64224V4.4868C25.2045 3.40638 24.2955 2.49219 23.2212 2.49219Z" fill="#333333"/>
<path d="M38.6743 13.2132C36.1952 13.2132 34.2119 11.2186 34.2119 8.72535V4.56991C34.2119 2.07664 36.1952 0.0820312 38.6743 0.0820312C41.1534 0.0820312 43.1367 2.07664 43.1367 4.56991V8.72535C43.2194 11.2186 41.1534 13.2132 38.6743 13.2132ZM38.6743 2.49219C37.6 2.49219 36.691 3.40638 36.691 4.4868V8.64224C36.691 9.72265 37.6 10.6368 38.6743 10.6368C39.7486 10.6368 40.6576 9.72265 40.6576 8.64224V4.4868C40.6576 3.40638 39.8312 2.49219 38.6743 2.49219Z" fill="#333333"/>
<path d="M54.21 13.2132C51.7308 13.2132 49.7476 11.2186 49.7476 8.72535V4.56991C49.7476 2.07664 51.7308 0.0820312 54.21 0.0820312C56.6891 0.0820312 58.6724 1.99353 58.6724 4.4868V8.64224C58.6724 11.2186 56.6891 13.2132 54.21 13.2132ZM54.21 2.49219C53.1357 2.49219 52.2267 3.40638 52.2267 4.4868V8.64224C52.2267 9.72265 53.1357 10.6368 54.21 10.6368C55.2842 10.6368 56.1932 9.72265 56.1932 8.64224V4.4868C56.1932 3.40638 55.2842 2.49219 54.21 2.49219Z" fill="#333333"/>
<path d="M69.6631 13.2132C67.184 13.2132 65.2007 11.2186 65.2007 8.72535V4.56991C65.2007 2.07664 67.184 0.0820312 69.6631 0.0820312C72.1422 0.0820312 74.1255 2.07664 74.1255 4.56991V8.72535C74.1255 11.2186 72.1422 13.2132 69.6631 13.2132ZM69.6631 2.49219C68.5888 2.49219 67.6798 3.40638 67.6798 4.4868V8.64224C67.6798 9.72265 68.5888 10.6368 69.6631 10.6368C70.7374 10.6368 71.6464 9.72265 71.6464 8.64224V4.4868C71.6464 3.40638 70.7374 2.49219 69.6631 2.49219Z" fill="#333333"/>
<path d="M24.7085 60.1701C22.7252 60.1701 21.0725 58.9234 20.494 57.0119L19.0065 52.3578C18.7586 51.5268 17.9322 51.4436 17.767 51.4436C17.5191 51.4436 16.7753 51.5268 16.5274 52.3578L15.2052 56.8457C14.6268 58.8403 12.8914 60.087 10.8255 60.087C10.7428 60.087 10.7428 60.087 10.6602 60.087C8.59426 60.0039 6.85889 58.591 6.36306 56.5964L4.46241 49.0335C3.80132 46.2078 2.80967 43.2159 1.40484 40.0577C0.413198 37.6476 -0.165261 34.2401 0.08265 31.9962C0.578472 27.5083 4.37978 23.9346 9.17272 23.3529C12.3956 23.0204 15.4531 24.0177 17.6843 26.0955C19.9155 24.0177 22.9731 23.0204 26.196 23.3529C30.8236 23.8515 34.6249 27.3421 35.2034 31.6637C35.5339 34.0739 34.9555 37.6476 33.7986 40.224C32.3937 43.299 31.3195 46.7896 30.4104 50.6957L29.0883 56.5964C28.6751 58.591 26.9397 60.0039 24.9564 60.087C24.8738 60.1701 24.7911 60.1701 24.7085 60.1701ZM17.6843 48.8673C19.4197 48.8673 20.8245 49.9477 21.3204 51.6099L22.8078 56.264C23.1384 57.3444 24.0474 57.6768 24.7911 57.6768C25.5349 57.6768 26.3612 57.2613 26.6091 56.0977L27.9313 50.197C28.8403 46.0416 29.9973 42.4679 31.4847 39.2266C32.4764 37.0658 32.9722 33.9908 32.7243 32.0793C32.3111 28.9212 29.4188 26.3448 25.948 25.9292C23.0557 25.5968 20.3287 26.6772 18.676 28.838C18.4281 29.1705 18.0975 29.3367 17.6843 29.3367C17.2712 29.3367 16.9406 29.1705 16.6927 28.838C14.9573 26.7603 12.2303 25.6799 9.42063 25.9292C5.7846 26.3448 2.97495 29.0043 2.56176 32.3286C2.39649 33.9077 2.80967 36.8996 3.71868 39.1435C5.12351 42.4679 6.11515 45.5429 6.85889 48.5348L8.6769 56.0977C8.92481 57.2613 9.83382 57.6768 10.5776 57.6768C11.3213 57.6768 12.2303 57.3444 12.6435 56.1808L13.9657 51.693C14.5441 50.0308 15.949 48.9504 17.6843 48.8673Z" fill="#96744A"/>
<path d="M15.8664 32.4108C15.7012 32.4108 15.6185 32.4108 15.4532 32.3277C14.7921 32.0784 14.4616 31.4135 14.7095 30.7486C15.3706 28.754 16.6928 27.2581 16.7754 27.175C17.1886 26.6763 18.015 26.5932 18.5108 27.0919C19.0066 27.4243 19.0066 28.2554 18.5934 28.754C18.5934 28.754 17.5192 30.0007 17.0233 31.4966C16.8581 32.0784 16.3622 32.4108 15.8664 32.4108Z" fill="#96744A"/>
<path d="M41.3185 27.0094C40.6574 27.0094 40.0789 26.4276 40.0789 25.7628V21.7735H36.1124C35.4513 21.7735 34.8728 21.1918 34.8728 20.5269C34.8728 19.862 35.4513 19.2803 36.1124 19.2803H41.3185C41.9796 19.2803 42.558 19.862 42.558 20.5269V25.7628C42.558 26.5107 41.9796 27.0094 41.3185 27.0094Z" fill="#333333"/>
<path d="M56.7716 27.0094C56.1105 27.0094 55.5321 26.4276 55.5321 25.7628V21.7735H51.5655C50.9044 21.7735 50.3259 21.1918 50.3259 20.5269C50.3259 19.862 50.9044 19.2803 51.5655 19.2803H56.7716C57.4327 19.2803 58.0112 19.862 58.0112 20.5269V25.7628C58.0112 26.5107 57.4327 27.0094 56.7716 27.0094Z" fill="#333333"/>
<path d="M72.2247 27.0094C71.5636 27.0094 70.9852 26.4276 70.9852 25.7628V21.7735H67.0186C66.3575 21.7735 65.7791 21.1918 65.7791 20.5269C65.7791 19.862 66.3575 19.2803 67.0186 19.2803H72.2247C72.8858 19.2803 73.4643 19.862 73.4643 20.5269V25.7628C73.4643 26.5107 72.9685 27.0094 72.2247 27.0094Z" fill="#333333"/>
<path d="M41.3186 41.7194C40.6575 41.7194 40.0791 41.1376 40.0791 40.4727V36.4835H38.7569C38.0958 36.4835 37.5173 35.9017 37.5173 35.2369C37.5173 34.572 38.0958 33.9902 38.7569 33.9902H41.3186C41.9797 33.9902 42.5582 34.572 42.5582 35.2369V40.5558C42.5582 41.1376 41.9797 41.7194 41.3186 41.7194Z" fill="#333333"/>
<path d="M56.7716 41.7194C56.1105 41.7194 55.5321 41.1376 55.5321 40.4727V36.4835H51.5655C50.9044 36.4835 50.3259 35.9017 50.3259 35.2369C50.3259 34.572 50.9044 33.9902 51.5655 33.9902H56.7716C57.4327 33.9902 58.0112 34.572 58.0112 35.2369V40.5558C58.0112 41.1376 57.4327 41.7194 56.7716 41.7194Z" fill="#333333"/>
<path d="M72.2247 41.7194C71.5636 41.7194 70.9852 41.1376 70.9852 40.4727V36.4835H67.0186C66.3575 36.4835 65.7791 35.9017 65.7791 35.2369C65.7791 34.572 66.3575 33.9902 67.0186 33.9902H72.2247C72.8858 33.9902 73.4643 34.572 73.4643 35.2369V40.5558C73.4643 41.1376 72.9685 41.7194 72.2247 41.7194Z" fill="#333333"/>
</g>
<defs>
<clipPath id="clip0_269_3251">
<rect width="84.1989" height="60" fill="white"/>
</clipPath>
</defs>
</svg>
