<svg width="69" height="59" viewBox="0 0 69 59" fill="none" xmlns="http://www.w3.org/2000/svg">
<g clip-path="url(#clip0_297_2536)">
<path d="M5.73888 59.0003H1.86847C0.800774 59.0003 0 58.2066 0 57.1483V41.0092C0 40.0171 0.800774 39.1572 1.86847 39.1572H5.80561C6.80658 39.1572 7.67408 39.9509 7.67408 41.0092V57.1483C7.60735 58.2066 6.73985 59.0003 5.73888 59.0003ZM2.00193 57.016H5.53868V41.2077H2.00193V57.016Z" fill="#96744A"/>
<path d="M26.2923 59.0005H14.6143H14.5476C14.2139 59.0005 11.5447 58.802 9.8764 57.7437C9.40928 57.4792 9.27582 56.8177 9.54274 56.3547C9.80966 55.8917 10.477 55.7594 10.9441 56.024C11.9451 56.6854 13.947 56.8839 14.6143 56.95H26.2923C28.5611 56.95 30.563 55.4287 31.0969 53.246L33.0988 45.0442C33.299 44.2505 33.0988 43.3906 32.565 42.7292C32.0311 42.0677 31.2971 41.6709 30.4296 41.6709H21.2874C20.9538 41.6709 20.6201 41.4724 20.4199 41.2079C20.2197 40.9433 20.2197 40.5464 20.3532 40.2818L21.2874 38.1653C22.2884 35.9164 22.7555 33.5352 22.7555 31.0879C22.7555 30.2942 22.0882 29.6989 21.3542 29.6989C20.8203 29.6989 20.5534 29.8312 20.2197 30.1619C19.9528 30.4926 19.6191 31.154 19.2855 31.9478C17.8174 35.0565 15.4151 40.348 7.27388 42.9937C6.74003 43.1922 6.13945 42.8614 6.00599 42.3323C5.8058 41.8031 6.13945 41.2079 6.6733 41.0756C13.947 38.6944 16.0157 34.1305 17.417 31.154C17.8174 30.228 18.1511 29.4343 18.6182 28.9052C19.2855 28.0453 20.153 27.6484 21.2874 27.6484C23.1559 27.6484 24.7574 29.1697 24.7574 31.0218C24.7574 33.7336 24.2236 36.4455 23.1559 38.959L22.8222 39.6866H30.4963C31.9644 39.6866 33.299 40.348 34.2333 41.4724C35.1675 42.5969 35.4344 44.052 35.1008 45.5072L33.0988 53.709C32.2981 56.8177 29.4954 59.0005 26.2923 59.0005Z" fill="#96744A"/>
<path d="M51.9168 59C48.8472 59 46.3781 57.148 45.4439 54.2376L43.3085 47.6233C42.9749 46.4989 42.1741 45.9036 41.6402 45.639C40.7727 45.2421 39.7718 45.176 38.9043 45.4406C38.3704 45.639 37.7698 45.3744 37.6364 44.8453C37.4362 44.3161 37.7031 43.7208 38.2369 43.5885C39.6383 43.1255 41.2398 43.1917 42.5745 43.8531C43.8424 44.5145 44.8433 45.639 45.3104 47.028L47.4458 53.6423C48.2466 56.2219 50.5155 57.0818 52.2505 56.9495C53.9855 56.8834 56.1876 55.8251 56.7215 53.1793L58.6567 44.4484C60.1915 37.5033 62.1934 31.4843 64.6625 26.0605C66.3975 22.2242 67.3985 16.7343 66.8646 13.2948C65.9971 7.47419 60.7253 2.71185 54.1857 1.98428C48.9139 1.52127 43.8424 3.50558 40.706 7.3419C40.5058 7.60647 40.2389 7.73876 39.9052 7.73876C39.5716 7.73876 39.3046 7.60647 39.1045 7.3419C35.9681 3.50558 30.8965 1.52127 25.6248 2.11656C18.8849 2.84414 13.5464 7.8049 12.9458 13.8901C12.6122 16.7343 13.3462 22.0258 15.0145 25.9282C15.3482 26.7219 15.6818 27.5157 16.0155 28.3094C16.2157 28.8385 15.9487 29.4338 15.4816 29.6323C14.9478 29.8307 14.3472 29.5661 14.147 29.1031C13.8134 28.3094 13.4797 27.5157 13.146 26.7881C11.4778 22.8856 10.5435 17.2634 10.8772 13.6917C11.678 6.61432 17.7505 0.92598 25.4246 0.132258C30.9633 -0.463033 36.3017 1.45513 39.9052 5.22531C43.5087 1.45513 48.8472 -0.463033 54.3859 0.132258C61.793 0.92598 67.8656 6.41589 68.7998 13.1625C69.3337 16.9327 68.3327 22.8856 66.3975 27.0527C63.9284 32.3441 61.9932 38.2309 60.5251 45.0437L58.59 53.7746C57.9226 56.8834 55.3868 58.9338 52.1838 59.0661C52.117 59 52.0503 59 51.9168 59Z" fill="#333333"/>
<path d="M36.8357 13.0965C36.7022 13.0965 36.6355 13.0965 36.502 13.0303C35.9682 12.8319 35.7012 12.3027 35.9014 11.7736C36.9691 8.66485 39.1045 6.21754 39.1713 6.08525C39.5716 5.68839 40.1722 5.62224 40.5726 5.95296C40.973 6.28368 41.0397 6.94511 40.7061 7.34198C40.7061 7.34198 38.7709 9.59086 37.7699 12.3689C37.6364 12.8319 37.2361 13.0965 36.8357 13.0965Z" fill="#333333"/>
</g>
<defs>
<clipPath id="clip0_297_2536">
<rect width="69" height="59" fill="white"/>
</clipPath>
</defs>
</svg>
