<svg width="318" height="64" viewBox="0 0 318 64" fill="none" xmlns="http://www.w3.org/2000/svg">
<path d="M11.19 38.19C13.55 38.71 15.6 38.97 17.32 38.97C19.52 38.97 21.59 38.56 23.51 37.73C25.44 36.9 27.1 35.72 28.5 34.17C29.91 32.62 31 30.74 31.81 28.55C32.61 26.35 33.01 23.89 33.01 21.14C33.01 18.48 32.62 16.05 31.84 13.86C31.06 11.67 29.97 9.78001 28.56 8.21001C27.15 6.64001 25.49 5.43001 23.54 4.58001C21.6 3.73001 19.48 3.31001 17.2 3.31001C16.32 3.31001 15.37 3.39001 14.34 3.55001C13.32 3.71001 12.26 3.95001 11.18 4.28001L11.19 38.19ZM15.84 1.20001C19.83 1.20001 23.31 1.67001 26.3 2.59001C29.29 3.51001 31.75 4.83001 33.71 6.52001C35.66 8.21001 37.14 10.28 38.13 12.71C39.12 15.15 39.62 17.88 39.62 20.9C39.62 23.84 39.15 26.55 38.2 29.03C37.25 31.51 35.85 33.64 34 35.41C32.14 37.19 29.84 38.58 27.08 39.58C24.32 40.59 21.11 41.09 17.43 41.09H5.45001V8.45001C5.45001 6.63001 5.2 5.18001 4.69 4.07001C4.18 2.96001 3.02999 2.40001 1.20999 2.40001H0V1.20001H15.84Z" fill="#8A8278"/>
<path d="M68.5701 1.20001C69.6201 1.20001 70.4701 1.34001 71.1401 1.63001C71.8001 1.91001 72.3301 2.28001 72.7101 2.72001C73.0901 3.16001 73.3601 3.68001 73.5001 4.26001C73.6401 4.84001 73.7101 5.44001 73.7101 6.05001V10.58H72.5001C72.5001 8.16001 71.8401 6.40001 70.5301 5.29001C69.2201 4.18001 67.3501 3.63001 64.9401 3.63001H53.6901V19.35H70.0101V21.77H53.6901V38.68H64.2701C67.01 38.68 69.18 38.17 70.7701 37.17C72.3601 36.17 73.62 34.45 74.55 32.03L75.7601 32.33L73.6401 38.07C73.3201 38.99 72.7901 39.73 72.0401 40.27C71.3001 40.82 70.32 41.08 69.11 41.08H48.2501V8.45001C48.2501 6.63001 48.0001 5.18001 47.4901 4.07001C46.9801 2.96001 45.8301 2.40001 44.0101 2.40001H42.8101V1.20001H68.5701Z" fill="#8A8278"/>
<path d="M84.1701 8.45001C84.1701 6.63001 83.7801 5.18001 83.0201 4.07001C82.2501 2.96001 80.8201 2.40001 78.7301 2.40001H78.1201V1.20001H82.0501C84.0201 1.20001 85.6401 1.52001 86.9201 2.16001C88.1901 2.81001 89.2901 3.69001 90.2101 4.82001L111.37 31.12V1.20001H113.79V41.71H112.58L86.5801 9.37001V41.11H84.1601L84.1701 8.45001Z" fill="#8A8278"/>
<path d="M153.45 1.19999V3.61999H139.85V41.1H134.41V3.60999H128.97C126.55 3.60999 124.69 4.15999 123.38 5.26999C122.07 6.37999 121.41 8.14999 121.41 10.56H120.2V6.02999C120.2 5.42999 120.27 4.82999 120.41 4.23999C120.55 3.65999 120.81 3.13999 121.2 2.69999C121.58 2.25999 122.11 1.88999 122.77 1.60999C123.43 1.32999 124.29 1.17999 125.34 1.17999L153.45 1.19999Z" fill="#8A8278"/>
<path d="M200.01 38.68H221.47V41.1H194.56V8.45001C194.56 6.63001 194.31 5.18001 193.8 4.07001C193.29 2.96001 192.14 2.41001 190.32 2.41001H189.11V1.20001H194.55C195.6 1.20001 196.48 1.29001 197.18 1.47001C197.88 1.65001 198.45 2.02001 198.87 2.56001C199.3 3.11001 199.59 3.85001 199.75 4.80001C199.91 5.75001 199.99 6.96001 199.99 8.46001L200.01 38.68Z" fill="#8A8278"/>
<path d="M226.43 1.20001H231.87V33.85C231.87 35.67 232.12 37.13 232.63 38.23C233.14 39.34 234.29 39.89 236.11 39.89H237.32V41.1H231.88C230.83 41.1 229.95 41.01 229.25 40.83C228.55 40.65 227.98 40.28 227.56 39.74C227.13 39.19 226.84 38.46 226.68 37.54C226.52 36.62 226.44 35.38 226.44 33.85V1.20001H226.43Z" fill="#8A8278"/>
<path d="M273.47 13.89C272.7 9.94 271.28 7.04 269.2 5.18C267.12 3.32 264.41 2.4 261.07 2.4C259.1 2.4 257.23 2.73 255.48 3.4C253.73 4.06 252.19 5.15 250.85 6.66C249.52 8.17 248.47 10.16 247.71 12.62C246.95 15.08 246.56 18.12 246.56 21.75C246.56 24.01 246.83 26.22 247.37 28.4C247.91 30.58 248.77 32.51 249.94 34.21C251.11 35.9 252.61 37.28 254.44 38.32C256.27 39.37 258.48 39.89 261.06 39.89C264.09 39.89 266.68 39.16 268.86 37.71C271.04 36.26 272.97 34.16 274.67 31.42L275.88 32.33C274.91 34.23 273.83 35.81 272.64 37.08C271.45 38.35 270.18 39.38 268.8 40.16C267.42 40.94 265.95 41.5 264.35 41.82C262.75 42.14 261.06 42.3 259.24 42.3C256.38 42.3 253.79 41.76 251.47 40.7C249.16 39.63 247.18 38.17 245.55 36.32C243.91 34.46 242.67 32.29 241.81 29.79C240.94 27.29 240.51 24.61 240.51 21.75C240.51 18.72 241 15.9 242 13.26C242.99 10.62 244.33 8.31 246.02 6.34C247.71 4.37 249.69 2.82 251.98 1.69C254.26 0.56 256.69 0 259.26 0C262.6 0 265.49 0.47 267.9 1.42C270.31 2.37 272.07 3.51 273.16 4.83C273.93 5.75 274.37 7.05 274.49 8.7C274.61 10.35 274.67 12.09 274.67 13.9L273.47 13.89Z" fill="#8A8278"/>
<path d="M186.09 22.04L185.96 22.19C184.71 23.61 183.34 24.8 181.86 25.74C180.38 26.68 178.81 27.45 177.21 28.02C175.6 28.59 173.91 29 172.18 29.24C168.71 29.74 165.16 29.74 161.69 29.24C159.96 29 158.27 28.58 156.66 28.02C155.05 27.45 153.48 26.69 152.01 25.74C150.53 24.8 149.16 23.6 147.91 22.19L147.78 22.04L146.75 22.73L146.9 22.93C148.23 24.7 149.62 26.29 151.03 27.66C152.45 29.03 153.98 30.21 155.58 31.16C157.18 32.11 158.94 32.83 160.81 33.32C162.67 33.81 164.74 34.05 166.96 34.05C169.18 34.05 171.25 33.81 173.11 33.32C174.97 32.83 176.74 32.1 178.34 31.16C179.94 30.21 181.47 29.03 182.89 27.66C184.3 26.29 185.69 24.7 187.02 22.93L187.17 22.73L186.09 22.04Z" fill="#8A8278"/>
<path d="M180.07 26.74C179.13 27.23 178.17 27.67 177.19 28.02C176.4 28.3 175.59 28.53 174.76 28.74L179.89 41.11H185.96L180.07 26.74ZM156.41 27.92L150.82 41.09H153.54L158.8 28.66C158.07 28.47 157.34 28.27 156.64 28.02C156.56 27.99 156.49 27.95 156.41 27.92ZM179.57 25.5L169.58 1.19H167.76L156.94 26.7C156.99 26.72 157.04 26.75 157.09 26.76C157.82 27.02 158.58 27.23 159.33 27.42L166.85 9.65L174.26 27.48C175.11 27.28 175.95 27.04 176.76 26.75C177.72 26.43 178.65 25.99 179.57 25.5Z" fill="#8A8278"/>
<path d="M316.24 22.04L316.11 22.19C314.86 23.61 313.49 24.8 312.01 25.74C310.53 26.68 308.96 27.45 307.36 28.02C305.75 28.59 304.06 29 302.33 29.24C298.86 29.74 295.31 29.74 291.84 29.24C290.11 29 288.42 28.58 286.81 28.02C285.2 27.45 283.63 26.69 282.16 25.74C280.68 24.8 279.31 23.6 278.06 22.19L277.93 22.04L276.9 22.73L277.05 22.93C278.38 24.7 279.77 26.29 281.18 27.66C282.6 29.03 284.13 30.21 285.73 31.16C287.33 32.11 289.09 32.83 290.96 33.32C292.82 33.81 294.89 34.05 297.11 34.05C299.33 34.05 301.4 33.81 303.26 33.32C305.12 32.83 306.89 32.1 308.49 31.16C310.09 30.21 311.62 29.03 313.04 27.66C314.45 26.29 315.84 24.7 317.17 22.93L317.32 22.73L316.24 22.04Z" fill="#8A8278"/>
<path d="M310.22 26.74C309.28 27.23 308.32 27.67 307.34 28.02C306.55 28.3 305.74 28.53 304.91 28.74L310.04 41.11H316.11L310.22 26.74ZM286.56 27.92L280.97 41.09H283.69L288.95 28.66C288.22 28.47 287.49 28.27 286.79 28.02C286.71 27.99 286.64 27.95 286.56 27.92ZM309.72 25.5L299.73 1.19H297.91L287.09 26.7C287.14 26.72 287.19 26.75 287.24 26.76C287.97 27.02 288.73 27.23 289.48 27.42L297 9.65L304.41 27.48C305.26 27.28 306.1 27.04 306.91 26.75C307.87 26.43 308.8 25.99 309.72 25.5Z" fill="#8A8278"/>
<path d="M14.6298 60.26L15.7598 61.5C15.2698 62.18 14.6198 62.69 13.8198 63.04C13.0098 63.39 12.1498 63.56 11.2498 63.56C9.51979 63.56 8.13978 63.04 7.08978 61.99C6.04978 60.94 5.52979 59.57 5.52979 57.87C5.52979 56.22 6.06978 54.86 7.14978 53.79C8.22978 52.72 9.58979 52.19 11.2198 52.19C12.0898 52.19 12.9198 52.35 13.7198 52.67C14.5198 52.99 15.1398 53.48 15.5898 54.11L14.3198 55.32C13.5498 54.46 12.5598 54.03 11.3198 54.03C10.1698 54.03 9.23978 54.39 8.55978 55.1C7.86978 55.82 7.52979 56.74 7.52979 57.87C7.52979 59.02 7.88979 59.94 8.59979 60.65C9.30979 61.36 10.2398 61.72 11.3898 61.72C12.7198 61.72 13.8098 61.23 14.6298 60.26Z" fill="#8A8278"/>
<path d="M36.1201 54.12H32.3901V52.31H41.7801V54.12H38.0401V63.43H36.1201V54.12Z" fill="#8A8278"/>
<path d="M61.1401 55.15C60.4401 55.9 60.1001 56.81 60.1001 57.87C60.1001 58.93 60.4601 59.84 61.1701 60.59C61.8801 61.34 62.7601 61.72 63.7901 61.72C64.8801 61.72 65.7701 61.35 66.4501 60.61C67.1401 59.88 67.4801 58.96 67.4801 57.87C67.4801 56.8 67.1201 55.89 66.4201 55.14C65.7201 54.39 64.8401 54.02 63.7901 54.02C62.7201 54.02 61.8401 54.4 61.1401 55.15ZM59.7401 61.91C58.6501 60.81 58.1001 59.46 58.1001 57.87C58.1001 56.28 58.6501 54.94 59.7601 53.83C60.8701 52.73 62.2101 52.18 63.7901 52.18C65.4301 52.18 66.7801 52.73 67.8601 53.82C68.9401 54.91 69.4801 56.26 69.4801 57.87C69.4801 59.48 68.9301 60.83 67.8401 61.92C66.7501 63.01 65.3901 63.56 63.8001 63.56C62.1901 63.56 60.8301 63.01 59.7401 61.91Z" fill="#8A8278"/>
<path d="M89.4203 63.43H87.4902V52.31H89.1902L93.1703 57.48L97.0002 52.31H98.6802V63.43H96.7603V55.72L93.3702 60.15H92.8802L89.4203 55.71V63.43Z" fill="#8A8278"/>
<path d="M123.56 59.32L121.74 55.09L119.92 59.32H123.56ZM118.14 63.43H116.16L121.04 52.31H122.5L127.38 63.43H125.37L124.29 60.97H119.21L118.14 63.43Z" fill="#8A8278"/>
<path d="M145.96 54.12H142.22V52.31H151.61V54.12H147.87V63.43H145.96V54.12Z" fill="#8A8278"/>
<path d="M170.98 55.15C170.28 55.9 169.94 56.81 169.94 57.87C169.94 58.93 170.3 59.84 171.01 60.59C171.72 61.34 172.6 61.72 173.63 61.72C174.72 61.72 175.61 61.35 176.29 60.61C176.98 59.88 177.32 58.96 177.32 57.87C177.32 56.8 176.96 55.89 176.26 55.14C175.56 54.39 174.68 54.02 173.63 54.02C172.55 54.02 171.67 54.4 170.98 55.15ZM169.58 61.91C168.49 60.81 167.94 59.46 167.94 57.87C167.94 56.28 168.49 54.94 169.6 53.83C170.71 52.73 172.05 52.18 173.63 52.18C175.27 52.18 176.62 52.73 177.7 53.82C178.78 54.91 179.32 56.26 179.32 57.87C179.32 59.48 178.77 60.83 177.68 61.92C176.58 63.01 175.23 63.56 173.64 63.56C172.02 63.56 170.67 63.01 169.58 61.91Z" fill="#8A8278"/>
<path d="M206.02 63.43H204.1V54.1H199.86V55.61C199.86 56.01 199.85 56.39 199.84 56.76C199.83 57.12 199.8 57.58 199.75 58.14C199.69 58.7 199.62 59.21 199.54 59.67C199.46 60.13 199.32 60.61 199.15 61.1C198.98 61.59 198.77 62.01 198.53 62.35C198.29 62.69 197.99 62.97 197.62 63.19C197.26 63.4 196.85 63.51 196.4 63.5L195.74 63.45V61.59C196.06 61.59 196.3 61.57 196.48 61.51C196.65 61.45 196.84 61.33 197.01 61.12C197.67 60.32 198 58.21 198 54.78V52.32H206.04L206.02 63.43Z" fill="#8A8278"/>
<path d="M227.07 55.15C226.37 55.9 226.03 56.81 226.03 57.87C226.03 58.93 226.39 59.84 227.1 60.59C227.81 61.34 228.69 61.72 229.72 61.72C230.81 61.72 231.7 61.35 232.38 60.61C233.07 59.88 233.41 58.96 233.41 57.87C233.41 56.8 233.05 55.89 232.35 55.14C231.65 54.39 230.77 54.02 229.72 54.02C228.65 54.02 227.77 54.4 227.07 55.15ZM225.66 61.91C224.57 60.81 224.02 59.46 224.02 57.87C224.02 56.28 224.57 54.94 225.68 53.83C226.79 52.73 228.13 52.18 229.71 52.18C231.35 52.18 232.7 52.73 233.78 53.82C234.86 54.91 235.4 56.26 235.4 57.87C235.4 59.48 234.85 60.83 233.76 61.92C232.66 63.01 231.31 63.56 229.72 63.56C228.11 63.56 226.75 63.01 225.66 61.91Z" fill="#8A8278"/>
<path d="M255.34 63.43H253.42V52.31H261.52V54.12H255.34V63.43Z" fill="#8A8278"/>
<path d="M286.73 55.72L280.62 63.43H279V52.31H280.93V60.02L287.04 52.31H288.66V63.43H286.73V55.72Z" fill="#8A8278"/>
<path d="M311.15 57.73H314.09V54.1H311.34C309.76 54.1 308.97 54.71 308.97 55.92C308.97 56.47 309.19 56.9 309.63 57.21C310.07 57.52 310.57 57.7 311.15 57.73ZM316.01 63.43H314.09V59.52H311.63L308.5 63.43H306.19L309.64 59.19C308.81 58.98 308.16 58.61 307.69 58.04C307.22 57.47 306.97 56.77 306.97 55.93C306.97 55.31 307.1 54.75 307.35 54.27C307.6 53.79 307.95 53.41 308.38 53.13C308.81 52.85 309.29 52.65 309.81 52.51C310.33 52.38 310.88 52.3 311.48 52.3H316.01V63.43Z" fill="#8A8278"/>
</svg>
