<svg width="199" height="199" viewBox="0 0 199 199" fill="none" xmlns="http://www.w3.org/2000/svg">
<path d="M128.71 91.68C129.87 88.79 130.64 85.97 130.98 83.28C131.32 80.59 131.29 77.92 130.9 75.34C130.51 72.8 129.79 70.22 128.77 67.68C128.76 67.65 128.75 67.61 128.73 67.58C127.86 65.45 126.77 63.26 125.51 61.06C124.77 60.9 124.01 60.76 123.23 60.64C121.54 60.4 119.77 60.26 117.92 60.26C114.81 60.26 111.9 60.61 109.28 61.29C106.66 61.98 104.19 63 101.94 64.33C101.44 64.62 100.95 64.94 100.47 65.26C101.59 66.12 102.68 67.06 103.73 68.08C103.87 68.22 104.01 68.37 104.16 68.51C106.22 67.83 108.37 67.32 110.56 67.01C115.43 66.31 120.41 66.31 125.28 67.01C125.37 67.02 125.45 67.04 125.54 67.05C125.6 67.32 125.67 67.6 125.72 67.87C126.17 70.29 126.35 72.73 126.24 75.12C126.13 77.51 125.78 79.93 125.2 82.32C124.1 86.79 122.38 91.12 120.14 95.15C119.99 95.42 119.86 95.71 119.7 95.98C119.54 96.26 119.36 96.54 119.19 96.82C120.39 98.54 121.37 100.33 122.11 102.15C122.27 102.53 122.43 102.91 122.56 103.3C123.38 105.62 123.92 108.01 124.18 110.39C124.44 112.77 124.46 115.22 124.25 117.66C123.82 122.56 122.68 127.42 120.9 132C120.01 134.29 118.9 136.47 117.61 138.49C116.32 140.51 114.78 142.4 113.02 144.13C113 144.15 112.98 144.16 112.97 144.18C112.13 145.78 111.19 147.39 110.12 149.02C111.97 148.1 113.72 147.13 115.31 146.1C117.64 144.6 119.74 142.88 121.55 141C123.36 139.11 124.92 136.94 126.18 134.55C127.44 132.16 128.44 129.41 129.15 126.38C129.86 123.35 130.18 120.44 130.11 117.73C130.04 115.02 129.6 112.38 128.82 109.9C128.03 107.41 126.92 104.95 125.49 102.57C125 101.75 124.46 100.93 123.9 100.11C124.11 99.85 124.33 99.59 124.53 99.32C126.14 97.13 127.55 94.56 128.71 91.68ZM114.73 134.99C115.32 132.44 115.55 129.78 115.41 127.08C115.27 124.38 114.72 121.5 113.78 118.53C112.84 115.56 111.63 112.9 110.18 110.61C110.05 110.4 109.89 110.19 109.76 109.99C109.28 109.28 108.78 108.59 108.25 107.93C107.27 106.71 106.21 105.57 105.06 104.54C104.07 103.66 103.01 102.83 101.89 102.05C103.77 100.49 105.94 99.16 108.35 98.11L108.61 98L108.13 96.32L107.8 96.43C104.87 97.45 102.15 98.64 99.72 99.95C99.5 100.07 99.31 100.2 99.09 100.32C98.87 100.2 98.66 100.07 98.44 99.95C96 98.64 93.28 97.46 90.35 96.43L90.02 96.32L89.54 98L89.8 98.12C92.23 99.18 94.42 100.52 96.3 102.1C98.19 103.68 99.88 105.45 101.32 107.36C102.01 108.28 102.67 109.25 103.28 110.24C103.6 110.76 103.9 111.28 104.19 111.82C104.51 112.39 104.81 112.98 105.09 113.57C107.23 118 108.74 122.75 109.55 127.6C109.96 130.02 110.12 132.46 110.05 134.86C109.98 137.25 109.62 139.67 108.99 142.05C108.36 144.42 107.34 146.78 105.98 149.05L105.83 149.3L107.19 150.39L107.39 150.11C109.19 147.59 110.73 145.05 111.96 142.57C113.22 140.08 114.14 137.53 114.73 134.99ZM85.15 144.12C83.39 142.4 81.84 140.5 80.56 138.48C79.27 136.46 78.17 134.28 77.28 131.99C75.49 127.41 74.36 122.55 73.93 117.65C73.71 115.21 73.74 112.76 74 110.38C74.26 108 74.8 105.62 75.62 103.29C75.76 102.9 75.92 102.52 76.07 102.14C76.82 100.31 77.79 98.53 78.99 96.81C78.82 96.53 78.64 96.26 78.48 95.97C78.32 95.7 78.19 95.42 78.04 95.14C75.8 91.11 74.08 86.78 72.98 82.31C72.4 79.93 72.04 77.51 71.94 75.11C71.83 72.72 72.01 70.28 72.46 67.86C72.51 67.59 72.58 67.31 72.65 67.04C72.74 67.03 72.82 67.01 72.91 67C77.78 66.3 82.76 66.3 87.63 67C90.06 67.35 92.44 67.93 94.7 68.72C95.04 68.84 95.38 68.98 95.72 69.11C95.68 69.15 95.63 69.19 95.59 69.23C93.6 71.15 91.65 73.39 89.79 75.87L89.58 76.14L91.04 77.11L91.23 76.9C92.98 74.91 94.92 73.23 96.99 71.91C97.68 71.47 98.4 71.06 99.12 70.68C99.84 71.06 100.55 71.47 101.25 71.91C103.32 73.23 105.26 74.91 107.01 76.9L107.2 77.11L108.65 76.14L108.44 75.87C106.58 73.39 104.63 71.15 102.64 69.23C100.65 67.3 98.5 65.65 96.26 64.32C94.01 62.99 91.55 61.97 88.92 61.28C86.3 60.6 83.4 60.25 80.28 60.25C78.43 60.25 76.66 60.39 74.97 60.63C74.19 60.74 73.43 60.88 72.69 61.05C71.43 63.25 70.34 65.44 69.47 67.57C69.46 67.6 69.45 67.64 69.43 67.67C68.41 70.21 67.69 72.78 67.3 75.33C66.9 77.91 66.88 80.58 67.22 83.27C67.56 85.95 68.33 88.78 69.49 91.67C70.65 94.56 72.06 97.12 73.68 99.3C73.88 99.57 74.1 99.83 74.31 100.09C73.75 100.91 73.21 101.73 72.72 102.55C71.3 104.93 70.18 107.4 69.39 109.88C68.6 112.37 68.17 115.01 68.1 117.71C68.03 120.42 68.35 123.33 69.06 126.36C69.77 129.39 70.77 132.14 72.03 134.53C73.3 136.93 74.85 139.1 76.66 140.98C78.47 142.86 80.56 144.57 82.9 146.08C84.5 147.11 86.24 148.08 88.09 149C87.02 147.38 86.08 145.76 85.24 144.16C85.19 144.16 85.17 144.14 85.15 144.12ZM95.28 103.32C95.17 103.23 95.04 103.14 94.92 103.04C94.29 103.52 93.68 104.02 93.1 104.54C91.95 105.56 90.89 106.7 89.91 107.93C89.38 108.59 88.88 109.28 88.4 109.99C88.26 110.2 88.11 110.4 87.98 110.61C86.53 112.9 85.32 115.56 84.38 118.53C83.44 121.5 82.89 124.37 82.75 127.08C82.61 129.79 82.84 132.45 83.43 134.99C84.02 137.53 84.94 140.08 86.18 142.56C87.41 145.04 88.95 147.57 90.75 150.1L90.95 150.38L92.31 149.29L92.16 149.05C90.79 146.78 89.78 144.42 89.15 142.05C88.52 139.67 88.16 137.25 88.09 134.86C88.02 132.47 88.19 130.02 88.59 127.6C89.4 122.75 90.91 118 93.05 113.57C93.34 112.98 93.64 112.39 93.96 111.82C94.25 111.28 94.56 110.76 94.87 110.24C95.48 109.24 96.13 108.28 96.83 107.36C97.2 106.87 97.59 106.38 98 105.91C97.15 104.99 96.25 104.13 95.28 103.32Z" fill="#8A8177"/>
<path d="M2.86 83.3C3.33 81.03 4 79.1 4.88 77.51C5.76 75.92 6.79 74.67 7.98 73.75C9.17 72.84 10.52 72.24 12.03 71.96C13.53 71.69 15.15 71.72 16.87 72.08C18.54 72.43 20.03 73.01 21.33 73.84C22.63 74.67 23.68 75.72 24.47 76.98C25.26 78.24 25.78 79.72 26.03 81.41C26.28 83.1 26.19 84.99 25.76 87.08L24.36 93.89L5.77 90.07C4.74 89.86 3.88 89.83 3.19 89.98C2.5 90.14 2.05 90.73 1.84 91.76L1.7 92.45L1 92.31L2.86 83.3ZM23.37 90.29C23.94 89 24.33 87.87 24.54 86.89C24.8 85.63 24.81 84.41 24.56 83.22C24.32 82.03 23.83 80.94 23.12 79.96C22.4 78.98 21.46 78.13 20.31 77.42C19.15 76.71 17.8 76.19 16.24 75.87C14.73 75.56 13.3 75.49 11.96 75.68C10.62 75.87 9.42 76.27 8.36 76.88C7.3 77.49 6.41 78.3 5.71 79.31C5 80.32 4.51 81.47 4.24 82.77C4.14 83.27 4.07 83.82 4.04 84.42C4.01 85.02 4.03 85.65 4.08 86.3L23.37 90.29Z" fill="#8A8177"/>
<path d="M20.17 42.34C20.5 41.83 20.84 41.46 21.19 41.22C21.54 40.98 21.88 40.85 22.22 40.8C22.55 40.75 22.89 40.79 23.22 40.91C23.55 41.03 23.86 41.18 24.15 41.37L26.36 42.8L25.98 43.39C24.8 42.62 23.74 42.39 22.78 42.67C21.82 42.96 20.96 43.69 20.2 44.87L16.64 50.35L24.3 55.33L29.47 47.38L30.65 48.15L25.48 56.1L33.73 61.46L37.08 56.3C37.95 54.96 38.39 53.75 38.4 52.65C38.41 51.56 37.98 50.4 37.09 49.18L37.62 48.69L39.75 51.54C40.1 51.99 40.29 52.48 40.32 53.02C40.35 53.56 40.17 54.12 39.79 54.71L33.18 64.87L17.28 54.53C16.4 53.96 15.6 53.61 14.9 53.51C14.2 53.4 13.56 53.79 12.99 54.68L12.61 55.27L12.02 54.89L20.17 42.34Z" fill="#8A8177"/>
<path d="M38.19 28.6C37.57 27.75 36.89 27.19 36.15 26.93C35.41 26.67 34.55 26.9 33.56 27.61L33.27 27.82L32.86 27.25L34.71 25.91C35.64 25.24 36.51 24.83 37.33 24.71C38.15 24.58 38.96 24.62 39.79 24.84L58.72 29.99L48.51 15.91L49.65 15.09L63.47 34.14L62.9 34.55L39.63 28.2L50.46 43.13L49.32 43.96L38.19 28.6Z" fill="#8A8177"/>
<path d="M84.5 2.37L84.86 3.73L77.22 5.75L82.79 26.81L79.73 27.62L74.16 6.56L71.1 7.37C69.74 7.73 68.78 8.32 68.2 9.13C67.63 9.95 67.53 11.03 67.88 12.39L67.2 12.57L66.53 10.02C66.44 9.68 66.39 9.33999 66.38 8.99C66.37 8.64 66.44 8.31 66.59 8.01C66.74 7.7 66.98 7.42 67.31 7.17C67.64 6.91 68.1 6.71 68.69 6.55L84.5 2.37Z" fill="#8A8177"/>
<path d="M128.95 28.75L140.35 33.8L139.78 35.08L125.48 28.75L133.16 11.4C133.59 10.44 133.8 9.60001 133.79 8.89001C133.78 8.18001 133.3 7.62001 132.33 7.19001L131.69 6.90001L131.98 6.26001L134.87 7.54001C135.43 7.79001 135.87 8.04001 136.2 8.30001C136.53 8.56001 136.74 8.89001 136.84 9.28001C136.94 9.67001 136.92 10.13 136.78 10.68C136.64 11.22 136.4 11.89 136.05 12.68L128.95 28.75Z" fill="#8A8177"/>
<path d="M161.67 22.79L164.12 24.79L152.1 39.47C151.43 40.29 151.01 41.04 150.83 41.72C150.65 42.4 150.96 43.08 151.78 43.75L152.32 44.2L151.88 44.75L149.43 42.75C148.96 42.36 148.6 42 148.35 41.66C148.1 41.32 147.98 40.95 147.99 40.55C148 40.15 148.14 39.71 148.41 39.24C148.68 38.76 149.1 38.18 149.66 37.49L161.67 22.79Z" fill="#8A8177"/>
<path d="M181.6 57.13C183.26 55.48 184.2 53.86 184.42 52.26C184.64 50.66 184.22 49.05 183.13 47.43C182.49 46.48 181.73 45.69 180.84 45.05C179.95 44.42 178.93 44.03 177.77 43.87C176.61 43.72 175.31 43.85 173.88 44.28C172.45 44.71 170.85 45.51 169.1 46.68C168.01 47.41 167.03 48.26 166.15 49.22C165.27 50.19 164.62 51.23 164.18 52.34C163.74 53.45 163.57 54.62 163.65 55.84C163.74 57.06 164.2 58.3 165.03 59.54C166.01 61 167.2 62.02 168.6 62.6C170.01 63.18 171.64 63.44 173.51 63.37L173.46 64.25C172.23 64.4 171.12 64.39 170.12 64.22C169.12 64.06 168.21 63.77 167.39 63.36C166.57 62.95 165.82 62.41 165.15 61.75C164.48 61.08 163.85 60.32 163.26 59.44C162.33 58.06 161.75 56.64 161.52 55.17C161.29 53.71 161.35 52.28 161.72 50.89C162.08 49.5 162.73 48.2 163.66 46.97C164.59 45.74 165.74 44.67 167.12 43.74C168.58 42.76 170.1 42.08 171.7 41.71C173.29 41.33 174.84 41.23 176.34 41.41C177.84 41.59 179.23 42.04 180.51 42.78C181.79 43.51 182.85 44.5 183.68 45.75C184.76 47.36 185.47 48.91 185.79 50.38C186.11 51.85 186.13 53.07 185.84 54.02C185.64 54.69 185.16 55.32 184.4 55.92C183.64 56.51 182.82 57.1 181.95 57.69L181.6 57.13Z" fill="#8A8177"/>
<path d="M116.21 14.68L116.13 14.76C115.35 15.53 114.5 16.16 113.61 16.65C112.71 17.14 111.78 17.51 110.82 17.77C109.86 18.03 108.87 18.2 107.85 18.27C105.82 18.41 103.76 18.26 101.78 17.83C100.79 17.62 99.83 17.31 98.92 16.91C98.01 16.52 97.14 16.01 96.32 15.4C95.5 14.79 94.75 14.04 94.09 13.17L94.02 13.08L93.39 13.44L93.47 13.56C94.16 14.64 94.9 15.62 95.66 16.47C96.42 17.33 97.26 18.07 98.15 18.69C99.04 19.31 100.02 19.8 101.08 20.16C102.14 20.52 103.33 20.75 104.61 20.84C105.89 20.93 107.1 20.87 108.2 20.67C109.3 20.46 110.35 20.12 111.32 19.63C112.28 19.15 113.22 18.53 114.1 17.79C114.98 17.06 115.85 16.19 116.69 15.22L116.78 15.11L116.21 14.68Z" fill="#8A8177"/>
<path d="M112.29 16.42L107.52 1.92999L106.47 1.85999L99.14 16.18C99.17 16.19 99.2 16.21 99.22 16.22C99.63 16.4 100.06 16.56 100.49 16.7L105.59 6.71999L109.14 17.35C109.64 17.27 110.14 17.17 110.62 17.03C111.18 16.88 111.74 16.66 112.29 16.42ZM98.79 16.86L95 24.25L96.57 24.36L100.13 17.38C99.71 17.24 99.3 17.09 98.9 16.92C98.87 16.9 98.83 16.87 98.79 16.86ZM112.53 17.16C111.96 17.4 111.39 17.62 110.81 17.78C110.34 17.91 109.86 18.01 109.38 18.1L111.84 25.48L115.35 25.73L112.53 17.16Z" fill="#8A8177"/>
<path d="M187.34 91.92L187.24 91.86C186.28 91.32 185.44 90.69 184.72 89.96C184 89.23 183.38 88.44 182.86 87.59C182.34 86.75 181.9 85.83 181.55 84.88C180.85 82.97 180.41 80.96 180.27 78.93C180.2 77.92 180.23 76.91 180.35 75.92C180.47 74.94 180.72 73.96 181.07 73C181.42 72.05 181.94 71.12 182.59 70.24L182.66 70.14L182.14 69.63L182.05 69.74C181.21 70.71 180.47 71.69 179.87 72.66C179.26 73.63 178.78 74.64 178.44 75.67C178.1 76.69 177.9 77.78 177.84 78.9C177.79 80.02 177.9 81.22 178.17 82.48C178.44 83.74 178.83 84.88 179.34 85.88C179.85 86.88 180.47 87.79 181.21 88.58C181.94 89.37 182.79 90.1 183.75 90.73C184.7 91.37 185.77 91.96 186.94 92.5L187.07 92.56L187.34 91.92Z" fill="#8A8177"/>
<path d="M184.58 88.64L197.16 80L196.94 78.97L181.14 75.93C181.13 75.96 181.12 75.99 181.12 76.02C181.06 76.47 181.03 76.92 181.02 77.38L192.02 79.48L182.8 85.86C183.02 86.32 183.25 86.76 183.51 87.19C183.83 87.7 184.19 88.18 184.58 88.64ZM180.39 75.8L172.23 74.23L172.56 75.77L180.26 77.24C180.28 76.8 180.31 76.36 180.36 75.93C180.37 75.89 180.38 75.84 180.39 75.8ZM183.94 89.08C183.55 88.61 183.18 88.12 182.86 87.6C182.61 87.19 182.37 86.76 182.16 86.31L175.77 90.73L176.51 94.17L183.94 89.08Z" fill="#8A8177"/>
<path d="M9.55 132.82C8.89 132.43 8.42 131.83 8.14 131.02C7.91 130.36 7.86 129.69 8.01 129C8.15 128.31 8.52 127.72 9.11 127.21C9.7 126.7 10.46 126.29 11.38 125.96C12.09 125.71 12.83 125.58 13.58 125.57C14.33 125.56 15.01 125.77 15.6 126.19C16.19 126.61 16.64 127.24 16.93 128.07C17.18 128.8 17.21 129.46 17.02 130.06C16.83 130.66 16.38 131.23 15.68 131.76L16.51 133.06C17.41 132.42 18.01 131.63 18.3 130.7C18.59 129.77 18.55 128.76 18.17 127.67C17.84 126.71 17.31 125.91 16.6 125.27C15.89 124.63 15.03 124.23 14.04 124.1C13.05 123.96 11.99 124.09 10.86 124.49C9.82 124.85 8.92 125.38 8.15 126.08C7.38 126.78 6.89 127.58 6.67 128.47C6.45 129.37 6.54 130.4 6.95 131.57C7.34 132.7 7.99 133.55 8.88 134.11C9.77 134.68 10.86 134.9 12.14 134.79L12 133.23C11.02 133.36 10.2 133.22 9.55 132.82Z" fill="#8A8177"/>
<path d="M16.73 151.07L25.32 145.71L27.33 148.94L28.48 148.22L23.67 140.5L22.52 141.21L24.52 144.42L15.92 149.78L16.73 151.07Z" fill="#8A8177"/>
<path d="M34.16 158.6C35.23 158.63 36.14 159.03 36.9 159.8C37.43 160.34 37.77 160.96 37.93 161.66C38.08 162.36 38.02 163.07 37.75 163.79C37.48 164.5 37 165.19 36.34 165.85C35.29 166.89 34.21 167.42 33.12 167.46C32.03 167.5 31.08 167.11 30.28 166.29C29.49 165.49 29.12 164.54 29.17 163.46C29.22 162.37 29.73 161.34 30.72 160.37C31.94 159.16 33.09 158.57 34.16 158.6ZM28.04 161.72C27.7 162.67 27.65 163.63 27.87 164.6C28.1 165.57 28.59 166.44 29.35 167.22C30.05 167.93 30.87 168.43 31.81 168.71C32.75 168.99 33.71 168.98 34.7 168.67C35.69 168.36 36.59 167.8 37.42 166.98C38.24 166.17 38.82 165.29 39.15 164.34C39.48 163.39 39.53 162.43 39.3 161.47C39.06 160.51 38.57 159.65 37.83 158.89C36.69 157.74 35.38 157.17 33.9 157.2C32.41 157.23 30.99 157.91 29.63 159.25C28.9 159.94 28.38 160.77 28.04 161.72Z" fill="#8A8177"/>
<path d="M45.23 180.15L50.28 171.78L48.07 181.87L49.24 182.58L57.06 176.08L52.09 184.31L53.34 185.07L59.27 175.24L57.52 174.18L51.04 179.6C50.39 180.15 49.89 180.57 49.57 180.86C49.67 180.48 49.8 179.9 49.98 179.12L51.86 170.75L49.9 169.57L43.96 179.4L45.23 180.15Z" fill="#8A8177"/>
<path d="M71.71 183.88C72.18 183.26 72.59 182.63 72.95 181.97C72.94 182.62 72.96 183.45 73.02 184.49L73.23 187.88L69.51 186.73L71.71 183.88ZM66.5 190.73L68.73 187.78L73.32 189.2L73.57 192.92L75.22 193.43L74.12 181.07L72.56 180.59L64.95 190.26L66.5 190.73Z" fill="#8A8177"/>
<path d="M90.64 195.86L91.61 185.77L95.39 186.13L95.52 184.79L86.46 183.92L86.33 185.27L90.1 185.63L89.13 195.71L90.64 195.86Z" fill="#8A8177"/>
<path d="M107.13 186.61C107.81 185.78 108.68 185.3 109.75 185.17C110.5 185.08 111.2 185.18 111.85 185.49C112.5 185.8 113.03 186.28 113.42 186.93C113.82 187.58 114.07 188.38 114.19 189.3C114.37 190.77 114.14 191.95 113.51 192.83C112.88 193.71 111.99 194.23 110.85 194.37C109.74 194.51 108.76 194.22 107.92 193.52C107.08 192.82 106.58 191.78 106.41 190.41C106.21 188.71 106.45 187.44 107.13 186.61ZM105.87 193.36C106.41 194.2 107.14 194.83 108.05 195.25C108.96 195.66 109.95 195.81 111.02 195.68C112.01 195.56 112.9 195.21 113.7 194.64C114.5 194.07 115.08 193.29 115.43 192.32C115.78 191.35 115.89 190.29 115.75 189.13C115.61 187.99 115.26 187 114.71 186.15C114.16 185.3 113.43 184.68 112.52 184.28C111.61 183.88 110.63 183.74 109.58 183.87C107.97 184.07 106.73 184.76 105.84 185.96C104.95 187.15 104.63 188.7 104.86 190.59C104.99 191.59 105.32 192.51 105.87 193.36Z" fill="#8A8177"/>
<path d="M128.64 188.12C128.98 189.02 129.11 189.62 129.04 189.92C128.97 190.22 128.77 190.43 128.45 190.56C128.28 190.62 128.06 190.65 127.79 190.64L128.02 191.99C128.5 191.94 128.9 191.86 129.22 191.74C129.74 191.55 130.11 191.24 130.34 190.82C130.57 190.4 130.64 189.91 130.55 189.35C130.46 188.79 130.2 187.94 129.78 186.82L127.71 181.28L131.6 179.83L135.15 189.32L136.57 188.79L132.55 178.03L125.81 180.55L128.64 188.12Z" fill="#8A8177"/>
<path d="M146.39 173.22C146.61 172.17 147.17 171.35 148.06 170.74C148.69 170.31 149.36 170.09 150.08 170.06C150.8 170.03 151.49 170.22 152.14 170.62C152.79 171.02 153.38 171.6 153.91 172.38C154.74 173.6 155.08 174.75 154.92 175.83C154.76 176.91 154.21 177.77 153.27 178.42C152.34 179.05 151.35 179.25 150.28 179.01C149.22 178.77 148.29 178.08 147.52 176.94C146.54 175.5 146.16 174.27 146.39 173.22ZM148.36 179.79C149.23 180.29 150.17 180.52 151.16 180.47C152.16 180.42 153.1 180.09 154 179.48C154.82 178.92 155.46 178.2 155.9 177.32C156.35 176.44 156.51 175.49 156.38 174.47C156.25 173.45 155.86 172.45 155.2 171.49C154.55 170.54 153.79 169.82 152.91 169.32C152.03 168.82 151.1 168.6 150.11 168.67C149.12 168.73 148.19 169.06 147.31 169.66C145.97 170.57 145.18 171.76 144.95 173.23C144.71 174.7 145.13 176.22 146.2 177.79C146.77 178.63 147.49 179.29 148.36 179.79Z" fill="#8A8177"/>
<path d="M168.46 167.26L169.49 166.14L162.05 159.27L166.06 154.93L165.06 154.01L160.02 159.46L168.46 167.26Z" fill="#8A8177"/>
<path d="M181.26 151.35L182.02 150.04L177.22 140.21L185.08 144.74L185.77 143.54L175.82 137.8L175.06 139.13L179.88 148.97L172 144.42L171.31 145.62L181.26 151.35Z" fill="#8A8177"/>
<path d="M183.73 120.3L182.7 123.78C182.46 124.6 182.45 125.24 182.67 125.72C182.89 126.2 183.27 126.51 183.79 126.67C184.15 126.78 184.5 126.78 184.86 126.67C185.22 126.56 185.53 126.34 185.78 126.01C186.03 125.68 186.25 125.18 186.45 124.51L187.38 121.38L183.73 120.3ZM193.52 123.2L188.63 121.75L188.13 123.44C188.02 123.82 187.96 124.09 187.94 124.27C187.93 124.51 187.96 124.76 188.04 125.02C188.12 125.28 188.29 125.6 188.56 125.98C188.83 126.36 189.23 126.86 189.76 127.48L191.62 129.62L191.08 131.45L188.65 128.65C188.18 128.1 187.81 127.55 187.54 127.01C187.42 126.76 187.32 126.41 187.25 125.97C186.79 126.98 186.22 127.66 185.53 128.01C184.84 128.36 184.11 128.41 183.33 128.18C182.72 128 182.22 127.68 181.81 127.23C181.4 126.78 181.17 126.26 181.13 125.69C181.08 125.12 181.21 124.34 181.5 123.36L182.95 118.48L193.96 121.75L193.52 123.2Z" fill="#8A8177"/>
</svg>
