<svg width="472" height="104" viewBox="0 0 472 104" fill="none" xmlns="http://www.w3.org/2000/svg">
<path d="M16.6168 62.3118C20.1213 63.1603 23.1654 63.5845 25.7196 63.5845C28.9865 63.5845 32.0604 62.9155 34.9115 61.5613C37.7775 60.207 40.2425 58.2817 42.3215 55.7527C44.4153 53.2237 46.0339 50.1562 47.2367 46.583C48.4247 42.9934 49.0187 38.9796 49.0187 34.4926C49.0187 30.1525 48.4395 26.1876 47.2812 22.6144C46.123 19.0411 44.5044 15.9574 42.4106 13.3957C40.3168 10.834 37.8517 8.85978 34.9561 7.4729C32.0752 6.08602 28.9271 5.40074 25.5414 5.40074C24.2346 5.40074 22.8239 5.53127 21.2944 5.79233C19.7797 6.05339 18.2056 6.44498 16.6019 6.98341L16.6168 62.3118ZM23.5218 1.95801C29.4468 1.95801 34.6145 2.72487 39.0545 4.22597C43.4946 5.72706 47.1476 7.88081 50.0581 10.6383C52.9538 13.3957 55.1516 16.7732 56.6217 20.738C58.0918 24.7192 58.8343 29.1735 58.8343 34.101C58.8343 38.898 58.1364 43.3197 56.7256 47.3661C55.3149 51.4126 53.236 54.8879 50.4888 57.7759C47.7267 60.6802 44.3113 62.9482 40.2128 64.5798C36.1143 66.2277 31.3476 67.0435 25.8829 67.0435H8.09307V13.7873C8.09307 10.8177 7.72182 8.45188 6.96448 6.64077C6.20715 4.82967 4.49943 3.91596 1.79679 3.91596H0L0 1.95801L23.5218 1.95801Z" fill="#E9E9E9"/>
<path d="M101.824 1.95801C103.383 1.95801 104.645 2.18644 105.64 2.65961C106.62 3.11646 107.407 3.72016 107.972 4.43808C108.536 5.15599 108.937 6.00444 109.145 6.95078C109.353 7.89713 109.457 8.8761 109.457 9.87139V17.2627H107.66C107.66 13.3141 106.68 10.4425 104.734 8.63136C102.789 6.82025 100.012 5.92286 96.4336 5.92286H79.7277V31.572H103.962V35.5205H79.7277V63.1113H95.4386C99.5074 63.1113 102.73 62.2792 105.091 60.6476C107.452 59.0159 109.323 56.2096 110.704 52.261L112.501 52.7505L109.353 62.116C108.878 63.6171 108.091 64.8245 106.977 65.7056C105.878 66.603 104.423 67.0272 102.626 67.0272H71.6495V13.7873C71.6495 10.8177 71.2782 8.45188 70.5209 6.64077C69.7636 4.82967 68.0559 3.91596 65.3533 3.91596H63.5713V1.95801L101.824 1.95801Z" fill="#E9E9E9"/>
<path d="M124.99 13.7873C124.99 10.8177 124.411 8.45188 123.282 6.64077C122.139 4.82967 120.015 3.91596 116.912 3.91596H116.006V1.95801H121.842C124.767 1.95801 127.173 2.48013 129.074 3.52437C130.959 4.58493 132.593 6.02076 133.959 7.86449L165.381 50.7762V1.95801H168.975V68.0552H167.178L128.569 15.2884V67.0762H124.975L124.99 13.7873Z" fill="#E9E9E9"/>
<path d="M227.868 1.95793V5.90646H207.673V67.0598H199.594V5.89014H191.516C187.923 5.89014 185.161 6.78754 183.215 8.59864C181.27 10.4097 180.29 13.2977 180.29 17.2299H178.493V9.83868C178.493 8.8597 178.597 7.88073 178.805 6.91807C179.013 5.97172 179.399 5.12328 179.978 4.40536C180.542 3.68745 181.329 3.08375 182.309 2.62689C183.29 2.17004 184.567 1.92529 186.126 1.92529L227.868 1.95793Z" fill="#E9E9E9"/>
<path d="M297.007 63.1113H328.875V67.0599H288.914V13.7873C288.914 10.8177 288.543 8.45188 287.786 6.64077C287.028 4.82967 285.321 3.93227 282.618 3.93227H280.821V1.95801H288.899C290.459 1.95801 291.765 2.10485 292.805 2.39855C293.844 2.69224 294.691 3.29594 295.315 4.17702C295.953 5.07441 296.384 6.28182 296.621 7.83186C296.859 9.3819 296.978 11.3562 296.978 13.8036L297.007 63.1113Z" fill="#E9E9E9"/>
<path d="M336.24 1.95801H344.318V55.2306C344.318 58.2001 344.69 60.5823 345.447 62.3771C346.204 64.1882 347.912 65.0856 350.615 65.0856H352.412V67.0599H344.333C342.774 67.0599 341.467 66.913 340.428 66.6193C339.388 66.3256 338.542 65.7219 337.918 64.8409C337.28 63.9435 336.849 62.7524 336.611 61.2513C336.374 59.7502 336.255 57.727 336.255 55.2306V1.95801H336.24Z" fill="#E9E9E9"/>
<path d="M406.093 22.6633C404.949 16.2184 402.841 11.4866 399.752 8.45182C396.663 5.417 392.639 3.9159 387.679 3.9159C384.754 3.9159 381.977 4.45434 379.378 5.54753C376.78 6.6244 374.493 8.40287 372.503 10.8666C370.528 13.3304 368.969 16.5773 367.84 20.5911C366.712 24.6049 366.132 29.5651 366.132 35.4879C366.132 39.1753 366.533 42.7812 367.335 46.3382C368.137 49.8951 369.414 53.0441 371.152 55.8179C372.889 58.5754 375.116 60.827 377.834 62.5239C380.551 64.2371 383.833 65.0855 387.664 65.0855C392.164 65.0855 396.01 63.8945 399.247 61.5286C402.484 59.1627 405.35 55.7363 407.875 51.2657L409.672 52.7505C408.231 55.8505 406.627 58.4285 404.86 60.5007C403.093 62.5728 401.207 64.2534 399.158 65.5261C397.109 66.7987 394.926 67.7125 392.55 68.2346C390.174 68.7567 387.664 69.0178 384.962 69.0178C380.715 69.0178 376.869 68.1367 373.424 66.4072C369.993 64.6613 367.053 62.2791 364.633 59.2606C362.197 56.2258 360.356 52.6852 359.079 48.6061C357.787 44.5271 357.148 40.1543 357.148 35.4879C357.148 30.544 357.876 25.9428 359.361 21.6354C360.831 17.3279 362.821 13.5588 365.331 10.3445C367.84 7.1302 370.78 4.60118 374.181 2.75745C377.567 0.91371 381.175 0 384.992 0C389.951 0 394.243 0.766864 397.822 2.31691C401.4 3.86695 404.014 5.72701 405.632 7.88075C406.776 9.38185 407.429 11.503 407.607 14.1951C407.786 16.8873 407.875 19.7264 407.875 22.6796L406.093 22.6633Z" fill="#E9E9E9"/>
<path d="M276.337 35.9609L276.144 36.2057C274.288 38.5226 272.254 40.4642 270.056 41.998C267.858 43.5317 265.527 44.788 263.151 45.7181C260.76 46.6481 258.251 47.3171 255.682 47.7086C250.529 48.5245 245.257 48.5245 240.104 47.7086C237.535 47.3171 235.026 46.6318 232.635 45.7181C230.244 44.788 227.913 43.548 225.73 41.998C223.532 40.4642 221.498 38.5063 219.642 36.2057L219.448 35.9609L217.919 37.0868L218.142 37.4131C220.117 40.3011 222.181 42.8953 224.275 45.1307C226.383 47.366 228.655 49.2913 231.031 50.8414C233.407 52.3914 236.021 53.5662 238.798 54.3657C241.56 55.1652 244.633 55.5568 247.93 55.5568C251.227 55.5568 254.301 55.1652 257.063 54.3657C259.825 53.5662 262.453 52.3751 264.829 50.8414C267.205 49.2913 269.477 47.366 271.586 45.1307C273.679 42.8953 275.743 40.3011 277.718 37.4131L277.941 37.0868L276.337 35.9609Z" fill="#E9E9E9"/>
<path d="M267.397 43.6294C266.001 44.4289 264.576 45.1469 263.12 45.7179C261.947 46.1748 260.744 46.5501 259.512 46.8927L267.13 67.0759H276.144L267.397 43.6294ZM232.263 45.5548L223.962 67.0433H228.001L235.812 46.7622C234.728 46.4522 233.644 46.1258 232.604 45.7179C232.486 45.669 232.382 45.6037 232.263 45.5548ZM266.655 41.6062L251.82 1.94141H249.117L233.05 43.5642C233.124 43.5968 233.198 43.6458 233.273 43.6621C234.357 44.0863 235.485 44.4289 236.599 44.7389L247.766 15.745L258.769 44.8368C260.032 44.5105 261.279 44.1189 262.482 43.6458C263.907 43.1236 265.288 42.4057 266.655 41.6062Z" fill="#E9E9E9"/>
<path d="M469.605 35.9609L469.412 36.2057C467.556 38.5226 465.521 40.4642 463.324 41.998C461.126 43.5317 458.794 44.788 456.418 45.7181C454.028 46.6481 451.518 47.3171 448.949 47.7086C443.796 48.5245 438.525 48.5245 433.372 47.7086C430.803 47.3171 428.293 46.6318 425.902 45.7181C423.512 44.788 421.18 43.548 418.997 41.998C416.8 40.4642 414.765 38.5063 412.909 36.2057L412.716 35.9609L411.187 37.0868L411.409 37.4131C413.384 40.3011 415.448 42.8953 417.542 45.1307C419.651 47.366 421.923 49.2913 424.299 50.8414C426.675 52.3914 429.288 53.5662 432.065 54.3657C434.827 55.1652 437.901 55.5568 441.198 55.5568C444.494 55.5568 447.568 55.1652 450.33 54.3657C453.092 53.5662 455.721 52.3751 458.096 50.8414C460.472 49.2913 462.744 47.366 464.853 45.1307C466.947 42.8953 469.011 40.3011 470.986 37.4131L471.209 37.0868L469.605 35.9609Z" fill="#E9E9E9"/>
<path d="M460.666 43.6294C459.27 44.4289 457.844 45.1469 456.389 45.7179C455.216 46.1748 454.013 46.5501 452.781 46.8927L460.398 67.0759H469.412L460.666 43.6294ZM425.531 45.5548L417.23 67.0433H421.27L429.081 46.7622C427.997 46.4522 426.912 46.1258 425.873 45.7179C425.754 45.669 425.65 45.6037 425.531 45.5548ZM459.923 41.6062L445.088 1.94141H442.386L426.319 43.5642C426.393 43.5968 426.467 43.6458 426.541 43.6621C427.625 44.0863 428.754 44.4289 429.868 44.7389L441.034 15.745L452.038 44.8368C453.3 44.5105 454.548 44.1189 455.75 43.6458C457.176 43.1236 458.557 42.4057 459.923 41.6062Z" fill="#E9E9E9"/>
</svg>
